<?xml version="1.0" standalone="no"?>
<!DOCTYPE svg PUBLIC "-//W3C//DTD SVG 20010904//EN"
 "http://www.w3.org/TR/2001/REC-SVG-20010904/DTD/svg10.dtd">
<svg version="1.0" xmlns="http://www.w3.org/2000/svg"
 width="640.000000pt" height="644.000000pt" viewBox="0 0 640.000000 644.000000"
 preserveAspectRatio="xMidYMid meet">

<g transform="translate(0.000000,644.000000) scale(0.100000,-0.100000)"
fill="#000000" stroke="none">
<path d="M2931 6280 c-561 -54 -1103 -261 -1544 -588 -797 -590 -1257 -1499
-1257 -2482 0 -820 322 -1594 904 -2175 465 -464 1039 -758 1686 -864 855
-140 1736 93 2420 639 137 110 363 336 472 474 652 818 847 1885 527 2882
-252 787 -849 1466 -1602 1824 -291 138 -564 221 -892 270 -160 24 -554 35
-714 20z m663 -94 c873 -121 1633 -593 2110 -1311 449 -676 605 -1482 441
-2277 -183 -893 -778 -1661 -1604 -2073 -302 -151 -617 -245 -970 -292 -173
-22 -550 -22 -724 1 -822 107 -1544 524 -2031 1173 -658 876 -790 2033 -344
3029 299 668 846 1214 1515 1513 287 129 637 220 958 250 136 13 516 5 649
-13z"/>
<path d="M3260 5790 l0 -190 -110 0 -110 0 0 140 0 140 85 0 85 0 0 40 0 40
-140 0 -140 0 0 -193 c0 -251 -11 -237 188 -237 l142 0 0 -75 0 -75 55 0 55 0
0 170 c0 163 1 170 20 170 19 0 20 -7 20 -170 l0 -170 55 0 55 0 0 300 0 300
-55 0 -55 0 0 -90 c0 -83 -1 -90 -20 -90 -19 0 -20 7 -20 90 l0 90 -55 0 -55
0 0 -190z"/>
<path d="M1952 5676 c-18 -13 -35 -26 -39 -29 -5 -5 51 -99 255 -430 l54 -88
36 22 c20 12 41 26 46 30 5 5 -25 65 -72 142 -45 73 -84 140 -87 149 -5 11 5
22 34 39 39 22 40 22 25 51 -17 34 -22 34 -70 6 -35 -21 -38 -21 -48 -4 -58
94 -87 136 -93 136 -5 -1 -23 -11 -41 -24z"/>
<path d="M4425 5634 c-18 -27 -14 -54 7 -54 7 0 -2 -9 -20 -20 -88 -54 -69
-179 38 -251 102 -68 240 -32 240 63 0 25 3 28 23 23 18 -5 28 0 41 21 10 15
14 29 9 33 -5 3 -31 20 -56 36 -52 33 -53 36 -32 69 15 22 14 24 -25 50 -48
31 -56 32 -70 6 -14 -26 -24 -25 -73 8 -23 16 -47 32 -53 35 -7 4 -19 -5 -29
-19z m146 -163 c35 -36 37 -64 4 -96 -27 -28 -46 -31 -78 -13 -52 27 -61 75
-22 113 32 33 60 31 96 -4z"/>
<path d="M1800 5535 l-54 -35 -21 26 -21 27 -43 -27 c-32 -21 -41 -32 -36 -44
18 -42 15 -47 -40 -80 -30 -18 -55 -38 -55 -43 0 -5 7 -20 16 -34 l15 -24 35
21 34 20 -6 -45 c-8 -56 9 -108 49 -154 116 -132 338 -43 337 134 -1 81 -65
165 -138 179 -36 7 -41 20 -13 29 36 11 44 31 26 59 -10 14 -20 26 -24 26 -3
0 -31 -16 -61 -35z m54 -176 c60 -47 75 -131 30 -176 -20 -20 -31 -24 -57 -19
-84 17 -135 128 -86 190 26 33 75 35 113 5z"/>
<path d="M4775 5294 c-49 -75 -91 -139 -92 -143 -5 -11 89 -64 95 -54 4 5 22
33 41 61 19 31 38 49 45 45 6 -3 24 -15 40 -26 l29 -21 24 30 23 29 -22 15
c-65 44 -64 42 -29 93 l31 46 -44 30 c-25 17 -46 31 -48 31 -2 0 -43 -62 -93
-136z"/>
<path d="M4306 5315 c-9 -13 -16 -28 -16 -32 0 -4 74 -57 165 -117 100 -66
162 -113 158 -120 -4 -6 -23 -36 -44 -67 l-37 -55 42 -27 c24 -15 46 -27 49
-27 6 0 64 84 106 152 l22 37 -203 134 c-112 73 -208 136 -214 140 -7 4 -19
-4 -28 -18z"/>
<path d="M2935 5154 c-657 -100 -1200 -494 -1486 -1079 -135 -277 -199 -554
-199 -867 0 -528 200 -1010 574 -1383 359 -358 810 -554 1317 -572 555 -20
1065 180 1455 571 375 376 574 856 574 1384 0 233 -28 409 -100 626 -234 703
-853 1218 -1589 1320 -138 20 -420 20 -546 0z m456 -34 c240 -24 435 -79 657
-185 860 -412 1285 -1418 982 -2325 -95 -289 -251 -541 -465 -755 -648 -648
-1661 -747 -2421 -236 -1005 674 -1144 2092 -290 2947 406 405 974 610 1537
554z"/>
<path d="M2937 4799 c-58 -14 -134 -56 -176 -98 -90 -90 -121 -184 -121 -368
l0 -123 -272 -2 -273 -3 -111 -1050 c-61 -577 -110 -1052 -108 -1054 2 -2 308
-133 681 -292 l678 -289 673 287 c371 158 677 293 680 301 4 12 -198 1973
-214 2070 l-5 32 -224 0 -225 0 0 55 0 55 -85 0 -85 0 0 245 0 245 -387 -1
c-214 -1 -405 -5 -426 -10z m771 -276 l2 -243 85 0 85 0 0 -60 0 -60 225 0
225 0 4 -22 c13 -58 214 -2004 208 -2010 -7 -7 -1225 -529 -1284 -550 -23 -8
-109 26 -680 268 -359 153 -654 279 -656 280 -2 1 45 459 104 1018 l108 1016
273 0 273 0 0 129 c0 146 10 213 44 285 27 59 90 126 144 152 83 40 115 43
482 41 l355 -2 3 -242z"/>
<path d="M3063 4509 c-43 -12 -80 -60 -88 -112 -3 -23 -5 -85 -3 -137 l3 -95
98 -3 97 -3 0 181 0 180 -37 -1 c-21 0 -52 -5 -70 -10z m67 -169 l0 -130 -55
0 -55 0 0 105 c0 99 2 107 25 130 15 16 36 25 55 25 l30 0 0 -130z"/>
<path d="M2140 3448 c0 -7 -29 -294 -66 -637 -36 -342 -62 -627 -57 -631 8 -8
1171 -507 1204 -517 15 -4 1212 497 1231 516 4 4 -23 292 -60 641 l-67 635
-222 3 -223 2 0 -90 0 -90 -85 0 -84 0 -3 -132 -3 -133 -267 -3 -268 -2 0 225
0 225 -100 0 -100 0 0 -60 c0 -170 -137 -316 -341 -365 -35 -8 -85 -15 -111
-15 l-48 0 0 145 0 145 42 0 c49 0 123 33 143 64 8 12 18 36 21 54 l7 32 -272
0 c-210 0 -271 -3 -271 -12z m650 -953 l0 -205 -25 0 -25 0 0 145 0 145 -45 0
c-37 0 -45 3 -45 18 0 13 11 21 38 28 28 7 41 17 52 41 8 18 23 33 33 33 16 0
17 -16 17 -205z m275 189 c50 -24 65 -65 65 -181 0 -120 -11 -164 -51 -197
-59 -50 -158 -18 -159 52 0 17 6 22 24 22 18 0 25 -6 28 -22 2 -19 10 -24 41
-26 35 -3 39 -1 52 32 8 19 15 50 15 67 0 30 -1 31 -18 16 -21 -19 -73 -22
-103 -7 -72 39 -62 212 15 246 40 17 51 17 91 -2z m645 -119 c0 -128 1 -135
20 -135 13 0 20 -7 20 -20 0 -13 -7 -20 -20 -20 -17 0 -20 -7 -20 -50 0 -47
-2 -50 -25 -50 -23 0 -25 3 -25 50 l0 50 -70 0 c-54 0 -72 4 -76 15 -4 9 25
69 67 143 87 152 87 152 110 152 18 0 19 -10 19 -135z m-270 100 c0 -23 -3
-24 -67 -27 l-68 -3 -6 -45 c-4 -25 -6 -46 -5 -47 1 -2 16 3 33 9 111 42 180
-147 86 -241 -31 -31 -37 -33 -80 -28 -56 6 -93 41 -93 88 0 24 4 29 25 29 19
0 25 -5 25 -23 0 -32 18 -47 57 -47 36 0 50 17 54 65 4 54 -1 83 -17 99 -20
20 -68 21 -84 1 -18 -22 -63 -20 -56 3 2 9 8 53 12 97 3 44 8 83 11 88 2 4 42
7 89 7 83 0 84 0 84 -25z"/>
<path d="M2976 2628 c-24 -34 -21 -113 5 -139 20 -20 61 -20 82 0 12 12 20 77
13 105 -14 56 -72 75 -100 34z"/>
<path d="M3608 2523 c-24 -43 -44 -81 -46 -85 -2 -5 19 -8 47 -8 l51 0 0 85
c0 47 -2 85 -4 85 -3 0 -24 -35 -48 -77z"/>
<path d="M5458 4764 c-16 -8 -28 -20 -28 -27 0 -7 43 -88 95 -181 53 -93 94
-174 92 -179 -3 -9 -313 -187 -326 -187 -4 0 -14 13 -24 29 -20 34 -23 31 88
91 44 24 82 45 85 47 7 6 -42 93 -53 93 -5 0 -50 -23 -99 -51 -85 -47 -91 -49
-104 -32 -7 10 -14 23 -14 28 0 6 43 34 95 63 l95 54 -27 49 -26 49 -41 -24
c-23 -13 -67 -38 -98 -55 l-57 -32 -28 50 c-31 56 -37 59 -71 33 l-23 -18 157
-279 c86 -154 158 -281 160 -283 2 -4 25 8 53 26 11 8 10 14 -3 34 l-17 25
168 93 c186 103 213 123 213 157 0 16 -207 406 -234 440 0 1 -13 -5 -28 -13z"/>
<path d="M865 4704 c-15 -25 -25 -47 -23 -48 1 -2 83 -45 180 -95 l177 -92 25
49 25 49 -173 91 c-95 51 -176 92 -179 92 -3 0 -17 -21 -32 -46z"/>
<path d="M793 4485 c-112 -56 -157 -211 -86 -296 51 -60 107 -73 178 -40 78
36 125 111 125 198 0 66 -27 113 -80 141 -56 28 -75 28 -137 -3z m109 -102
c42 -38 28 -116 -25 -141 -54 -26 -117 12 -117 71 0 79 85 121 142 70z"/>
<path d="M1322 4428 c-22 -40 -65 -122 -97 -181 l-57 -108 -63 36 c-35 19 -67
35 -72 35 -9 0 -57 -90 -51 -95 15 -12 164 -85 174 -85 30 0 69 56 164 236 55
105 100 196 100 201 0 8 -41 33 -55 33 -2 0 -21 -33 -43 -72z"/>
<path d="M671 3337 c-47 -16 -74 -56 -74 -107 0 -53 28 -91 80 -109 36 -13 43
-12 79 5 26 13 45 32 58 58 17 36 18 43 5 79 -23 65 -84 96 -148 74z"/>
<path d="M5734 3339 c-51 -15 -79 -53 -79 -109 0 -40 5 -54 29 -79 74 -77 196
-27 196 79 0 77 -71 130 -146 109z"/>
<path d="M5416 2766 c-20 -66 -19 -93 0 -48 l14 33 75 -68 c41 -37 71 -70 67
-74 -6 -5 -172 -49 -187 -49 -3 0 -3 17 0 38 10 62 -11 16 -34 -75 -24 -93
-24 -96 -11 -88 6 3 10 14 10 24 0 15 22 24 123 49 l123 31 103 -27 102 -27
-6 -35 c-12 -63 11 -18 33 66 25 93 26 97 12 89 -5 -3 -10 -15 -10 -26 0 -25
-15 -24 -122 5 -106 30 -95 23 -194 113 -68 62 -80 78 -76 98 8 45 -6 26 -22
-29z"/>
<path d="M1007 2720 c3 -16 2 -30 -2 -30 -5 0 -95 -22 -201 -50 -106 -27 -197
-50 -202 -50 -6 0 -13 12 -16 26 -4 15 -10 24 -13 21 -6 -7 36 -187 44 -187 3
0 3 15 0 33 l-5 33 204 52 c113 29 209 50 214 47 6 -3 10 -15 10 -26 0 -10 5
-19 11 -19 6 0 9 6 6 13 -2 6 -12 47 -22 90 -10 42 -22 77 -27 77 -4 0 -5 -13
-1 -30z"/>
<path d="M1075 2470 l6 -36 -193 -86 -193 -86 -13 25 c-8 14 -16 22 -19 20 -7
-8 48 -127 59 -127 5 0 1 14 -7 31 -9 17 -15 32 -13 34 6 7 371 165 374 163 1
-2 -59 -103 -133 -226 -75 -123 -133 -226 -130 -229 4 -3 95 34 202 81 108 48
203 85 211 82 8 -3 14 -12 14 -21 0 -8 5 -15 11 -15 6 0 9 6 6 13 -37 89 -51
117 -58 117 -5 0 -3 -15 5 -33 l13 -33 -139 -63 c-77 -34 -142 -61 -143 -59
-2 2 44 79 100 172 l103 169 -30 66 c-35 79 -42 87 -33 41z"/>
<path d="M5242 2247 c-38 -73 -81 -155 -95 -183 l-26 -50 66 -33 c36 -17 68
-30 70 -27 3 3 -11 19 -30 36 -45 39 -54 76 -31 124 10 20 21 36 26 36 10 0
113 -51 265 -132 l113 -60 -16 -30 c-8 -16 -13 -32 -10 -35 6 -6 96 172 96
189 -1 7 -8 0 -17 -17 -8 -16 -17 -31 -18 -33 -2 -2 -89 40 -194 93 l-191 95
20 39 c24 48 67 66 120 51 42 -12 50 -12 50 -2 0 4 -29 22 -64 39 l-65 32 -69
-132z"/>
<path d="M1270 2031 c0 -5 7 -14 15 -21 8 -7 15 -18 14 -24 0 -6 -76 -68 -169
-138 l-169 -127 -20 27 c-11 15 -21 21 -21 14 0 -16 101 -151 114 -151 4 -1 1
10 -8 24 -9 13 -16 26 -16 28 0 4 133 106 157 120 10 6 31 -18 124 -139 6 -7
-19 -33 -71 -72 -45 -34 -85 -62 -89 -62 -5 0 -14 7 -21 15 -7 8 -17 15 -22
15 -5 0 17 -34 49 -75 31 -41 61 -75 65 -75 5 0 1 11 -8 25 -8 13 -13 28 -10
33 8 14 323 252 333 252 4 0 14 -9 21 -21 7 -12 16 -18 19 -15 3 3 -20 40 -51
82 -32 41 -60 73 -63 71 -2 -3 3 -17 12 -30 l16 -25 -79 -61 -80 -60 -56 74
c-31 41 -57 78 -58 84 -3 9 138 121 153 121 3 0 14 -10 23 -22 12 -16 16 -18
12 -6 -7 22 -98 147 -108 148 -5 0 -8 -4 -8 -9z"/>
<path d="M5016 1877 c-53 -70 -79 -120 -35 -68 25 30 8 39 214 -115 l155 -115
-16 -25 c-9 -13 -15 -27 -12 -29 2 -3 30 30 61 72 31 42 55 79 52 81 -2 3 -13
-5 -23 -18 l-18 -22 -160 117 c-203 151 -192 140 -169 165 10 11 16 23 12 26
-3 3 -30 -28 -61 -69z"/>
<path d="M4824 1648 c-34 -23 -57 -48 -73 -81 -21 -43 -22 -53 -12 -87 15 -50
62 -90 107 -90 18 0 67 14 109 30 96 38 136 39 164 4 12 -15 21 -39 21 -54 0
-42 -40 -93 -85 -108 -40 -13 -55 -11 -140 23 -11 5 1 -14 29 -43 l49 -51 31
16 c56 29 88 57 113 101 43 73 30 154 -32 192 -45 28 -94 25 -182 -10 -90 -36
-107 -37 -138 -5 -35 34 -32 70 9 111 38 38 81 45 128 20 15 -8 30 -11 33 -6
5 8 -60 70 -74 70 -5 0 -31 -15 -57 -32z"/>
<path d="M1517 1413 c-193 -111 -199 -114 -223 -98 -13 8 -24 12 -24 8 0 -11
100 -96 106 -91 2 3 -5 13 -16 23 -11 10 -20 21 -20 25 0 4 28 24 61 44 l61
37 44 -36 c24 -20 44 -40 44 -45 0 -20 -53 -130 -63 -130 -6 0 -19 7 -29 17
-10 9 -20 14 -23 11 -3 -2 29 -35 71 -72 42 -37 79 -64 83 -61 3 4 -4 14 -17
23 l-22 17 95 219 c52 120 95 221 95 222 0 13 -47 -11 -223 -113z m113 33 c0
-2 -15 -36 -33 -75 l-32 -72 -40 34 c-22 19 -38 37 -35 40 3 3 32 21 65 41 56
33 75 41 75 32z"/>
<path d="M4525 1383 c-29 -7 -225 -133 -225 -145 0 -6 11 -3 25 6 13 9 27 16
30 16 3 0 58 -79 122 -176 l117 -177 -23 -19 c-48 -38 -13 -25 63 23 43 28 76
52 73 55 -3 3 -15 0 -27 -6 -26 -14 -23 -17 -89 83 -29 42 -49 82 -45 88 11
18 84 47 105 42 10 -3 44 -34 75 -69 63 -72 79 -77 139 -38 38 24 38 25 10 19
-27 -6 -35 0 -91 60 -59 64 -64 67 -101 63 -21 -3 -47 -9 -58 -13 -18 -8 -18
-7 3 19 39 50 19 130 -40 162 -24 14 -31 15 -63 7z m17 -55 c23 -18 58 -79 58
-101 0 -20 -51 -77 -69 -77 -9 0 -111 141 -111 154 0 11 56 35 81 36 14 0 32
-6 41 -12z"/>
<path d="M2083 1244 c15 -8 27 -18 27 -23 0 -5 -29 -72 -64 -148 -83 -180 -89
-202 -68 -245 13 -25 36 -43 92 -71 161 -82 185 -69 290 163 40 88 74 160 76
160 1 0 14 -4 28 -10 52 -19 24 7 -31 31 -32 13 -61 26 -65 27 -4 2 -8 0 -8
-5 0 -5 13 -14 30 -20 l29 -11 -71 -157 c-88 -190 -103 -209 -163 -203 -56 7
-133 52 -146 85 -12 33 -11 38 73 225 l70 157 29 -15 c16 -8 29 -11 29 -6 0
11 -150 82 -170 82 -8 -1 -3 -8 13 -16z"/>
<path d="M4018 1117 c-86 -34 -160 -65 -164 -69 -11 -11 14 -10 36 2 16 9 26
-10 98 -193 l80 -202 -30 -13 c-17 -7 -28 -16 -25 -19 4 -3 87 27 186 67 l180
72 -26 73 c-28 79 -45 91 -36 25 7 -49 -11 -95 -46 -118 -26 -18 -132 -65
-136 -60 -7 10 -75 191 -73 193 15 12 51 25 72 25 23 0 58 -32 69 -63 2 -7 7
-9 11 -6 9 8 -68 192 -83 197 -10 3 -11 0 -2 -16 21 -39 13 -71 -21 -92 -18
-11 -39 -19 -47 -18 -12 2 -81 156 -81 179 0 9 124 49 154 49 21 0 39 -11 68
-42 21 -23 38 -36 38 -30 0 22 -45 122 -55 121 -5 0 -81 -28 -167 -62z"/>
<path d="M2570 1042 c0 -5 13 -12 28 -15 l29 -6 -41 -211 -40 -212 -28 6 c-15
3 -28 2 -28 -3 0 -10 128 -36 137 -28 3 3 -10 10 -28 15 -20 5 -33 14 -32 23
6 39 74 383 76 386 2 1 52 -108 112 -243 59 -134 111 -241 115 -237 4 4 22 85
39 178 54 286 47 265 84 259 22 -4 27 -2 17 4 -8 5 -33 13 -55 16 -22 4 -48 9
-57 12 -10 3 -18 1 -18 -5 0 -6 8 -11 18 -11 44 -1 45 -10 17 -151 -14 -74
-28 -141 -31 -149 -3 -8 -42 67 -86 167 l-81 182 -56 11 c-31 6 -64 14 -73 16
-10 3 -18 1 -18 -4z"/>
<path d="M3713 1021 c-50 -8 -73 -26 -25 -19 17 2 32 2 32 -1 1 -22 -55 -341
-60 -341 -3 0 -40 69 -82 154 l-77 155 30 6 c17 4 28 9 25 12 -8 8 -176 -19
-183 -30 -3 -5 8 -7 23 -5 27 3 32 -3 98 -127 156 -295 159 -300 166 -279 4
10 24 118 45 240 37 214 39 221 64 232 21 8 22 10 6 10 -11 0 -39 -4 -62 -7z"/>
<path d="M3115 950 c3 -5 19 -10 36 -10 l29 0 0 -214 0 -215 -32 -4 c-18 -2
12 -4 67 -4 55 0 85 2 68 4 l-33 4 0 215 0 214 30 0 c17 0 30 5 30 10 0 6 -40
10 -101 10 -64 0 -98 -4 -94 -10z"/>
</g>
</svg>
