<?xml version="1.0" standalone="no"?>
<!DOCTYPE svg PUBLIC "-//W3C//DTD SVG 20010904//EN"
 "http://www.w3.org/TR/2001/REC-SVG-20010904/DTD/svg10.dtd">
<svg version="1.0" xmlns="http://www.w3.org/2000/svg"
 width="300.000000pt" height="300.000000pt" viewBox="0 0 300.000000 300.000000"
 preserveAspectRatio="xMidYMid meet">

<g transform="translate(0.000000,300.000000) scale(0.100000,-0.100000)"
fill="#000000" stroke="none">
<path d="M1356 2990 c-249 -29 -479 -113 -687 -251 -112 -76 -303 -261 -378
-369 -251 -359 -337 -802 -236 -1217 24 -99 61 -211 75 -226 4 -5 22 12 40 37
l33 46 48 -100 c189 -394 543 -671 980 -766 119 -26 419 -26 538 0 181 39 339
104 485 199 205 134 388 342 491 559 24 51 42 95 39 99 -2 4 0 10 6 14 5 3 26
-17 46 -45 20 -27 40 -48 45 -45 14 9 75 213 95 315 26 141 24 391 -4 535 -61
311 -192 557 -416 781 -225 224 -484 361 -791 418 -105 19 -309 27 -409 16z
m56 -107 c22 -20 24 -66 2 -87 -34 -35 -85 -9 -86 43 -2 54 46 79 84 44z m118
7 c0 -5 -11 -10 -25 -10 -14 0 -25 -4 -25 -10 0 -5 9 -10 20 -10 11 0 20 -4
20 -10 0 -5 -9 -10 -20 -10 -15 0 -20 -7 -20 -25 0 -16 -6 -25 -15 -25 -12 0
-15 13 -15 55 l0 55 40 0 c22 0 40 -4 40 -10z m90 -29 c0 -44 -8 -71 -21 -71
-10 0 -12 70 -3 94 11 29 24 17 24 -23z m68 -8 l17 -38 3 33 c2 17 7 32 13 32
10 0 12 -53 3 -87 -9 -33 -23 -28 -41 15 l-17 37 -5 -29 c-9 -45 -26 -32 -22
17 5 70 23 77 49 20z m-433 5 c-5 -13 -8 -40 -9 -60 0 -24 -5 -38 -13 -38 -7
0 -13 8 -13 18 0 10 -11 29 -25 42 -14 13 -25 27 -25 32 0 15 29 8 39 -9 8
-16 11 -15 20 10 13 33 37 38 26 5z m569 6 c28 -11 17 -24 -14 -17 -34 6 -43
-15 -10 -24 11 -3 20 -10 20 -15 0 -6 -9 -8 -21 -5 -15 4 -22 -1 -30 -19 -15
-42 -27 -18 -16 36 8 43 13 50 33 50 12 0 29 -3 38 -6z m-677 -29 c-17 -12
-18 -18 -7 -50 9 -26 9 -40 1 -48 -7 -7 -14 3 -23 36 -10 39 -15 46 -31 41
-13 -4 -18 -2 -15 7 5 14 38 26 73 28 19 0 19 0 2 -14z m791 -7 c30 -30 1 -98
-41 -98 -25 0 -57 28 -57 49 0 48 66 81 98 49z m-868 -61 c11 -29 14 -49 8
-53 -12 -7 -11 -9 -31 46 -20 54 -21 63 -6 58 6 -2 19 -25 29 -51z m984 13
c18 -17 18 -18 -2 -38 -14 -14 -19 -28 -15 -43 4 -16 2 -20 -8 -17 -7 2 -16
15 -19 28 -7 31 -27 36 -35 10 -4 -14 -11 -18 -16 -13 -6 6 -2 28 11 57 17 41
23 47 42 41 13 -4 31 -15 42 -25z m-1046 2 c2 -7 -4 -11 -19 -10 -12 2 -24 -3
-26 -10 -3 -8 5 -12 27 -10 44 4 62 -22 36 -51 -23 -25 -49 -27 -67 -4 -13 15
-11 16 12 10 18 -5 31 -2 39 7 9 12 5 15 -27 18 -28 2 -39 8 -42 22 -6 35 56
61 67 28z m1117 -61 l-7 -36 26 24 c40 38 53 15 25 -43 -13 -25 -27 -46 -31
-46 -11 0 -10 18 3 43 l12 22 -25 -22 c-34 -32 -41 -29 -34 15 l6 37 -15 -28
c-9 -15 -20 -25 -26 -22 -15 10 41 105 58 98 11 -4 13 -15 8 -42z m-1210 -3
c-1 -16 4 -28 11 -28 6 0 18 -7 25 -17 13 -14 11 -16 -11 -11 -14 3 -34 9 -44
13 -17 7 -18 5 -12 -18 10 -42 -10 -32 -37 18 l-26 45 27 15 c41 22 67 16 67
-17z m-115 -24 c0 -3 -10 -14 -22 -24 -30 -24 -17 -36 16 -15 21 14 26 14 26
4 0 -8 -10 -20 -21 -27 -14 -9 -18 -17 -11 -24 7 -7 18 -4 36 7 37 24 32 1 -5
-26 -26 -18 -33 -19 -40 -8 -35 54 -51 80 -48 83 40 30 69 43 69 30z m662 -26
l27 -33 1 33 c0 17 5 32 10 32 6 0 10 -25 10 -55 0 -30 -3 -55 -7 -55 -5 0
-21 14 -36 32 l-28 33 6 -32 c5 -26 3 -33 -9 -33 -13 0 -16 12 -16 55 0 30 3
55 8 55 4 0 19 -14 34 -32z m153 -23 c18 -52 14 -88 -6 -52 -11 20 -40 22 -57
5 -6 -6 -15 -9 -19 -5 -9 10 38 107 52 107 7 0 20 -25 30 -55z m-232 -4 c25
-46 24 -79 -2 -47 -14 17 -51 9 -51 -10 0 -8 -5 -14 -11 -14 -8 0 -9 15 -4 46
13 91 27 96 68 25z m365 27 c16 -16 15 -28 -3 -28 -8 0 -15 5 -15 11 0 6 -10
9 -22 7 -18 -2 -23 -10 -23 -33 0 -23 5 -31 23 -33 23 -4 31 13 10 21 -7 2
-10 8 -6 12 14 15 39 -5 36 -27 -7 -49 -98 -25 -98 25 0 45 67 76 98 45z m515
4 c8 -11 -15 -112 -24 -112 -5 0 -9 8 -9 18 0 21 -36 46 -45 32 -4 -6 -11 -7
-17 -4 -7 5 4 20 28 41 39 32 58 40 67 25z m-984 -39 c6 -21 11 -44 11 -50 0
-23 -16 -14 -27 15 l-11 27 -1 -32 c-1 -43 -17 -50 -36 -16 l-16 28 6 -27 c9
-45 -13 -41 -25 4 -6 24 -13 48 -15 55 -3 10 24 29 30 21 1 -2 9 -14 18 -28
l17 -24 0 32 c0 25 4 32 20 32 14 0 22 -11 29 -37z m565 17 c14 -5 26 -14 26
-20 0 -6 -9 -6 -26 0 -33 13 -34 13 -34 -5 0 -8 8 -15 18 -15 22 0 34 -9 26
-21 -2 -5 -15 -4 -29 1 -17 6 -25 5 -29 -5 -3 -8 6 -17 25 -24 16 -5 29 -13
29 -17 0 -6 -68 4 -81 12 -11 7 24 104 37 104 7 0 24 -4 38 -10z m-1116 -58
c17 -45 18 -54 6 -59 -18 -7 -110 52 -95 61 6 4 24 -2 40 -13 39 -28 42 -27
25 14 -8 20 -12 40 -8 46 8 14 9 12 32 -49z m1616 27 c30 -24 34 -43 7 -34
-14 4 -25 -3 -41 -25 -21 -29 -40 -39 -40 -21 0 5 12 24 27 42 18 21 24 34 15
37 -14 4 -17 22 -3 22 4 0 20 -9 35 -21z m-414 -30 c5 -33 6 -33 18 -11 13 22
36 29 46 13 8 -12 -32 -101 -46 -101 -5 0 -7 7 -4 15 17 41 17 49 0 28 -27
-37 -47 -30 -40 15 l5 37 -15 -33 c-20 -46 -38 -31 -18 16 9 20 18 43 21 50 9
23 28 7 33 -29z m-852 -7 c2 -16 8 -22 18 -18 8 3 14 -1 14 -9 0 -8 5 -15 10
-15 20 0 9 -15 -24 -32 -28 -14 -37 -14 -52 -4 -11 9 -15 19 -10 31 3 10 1 24
-5 31 -9 11 -8 18 1 29 18 22 44 14 48 -13z m-395 -96 c-4 -5 -24 10 -45 33
-21 24 -35 48 -31 54 4 6 22 -7 44 -33 21 -24 35 -48 32 -54z m1409 46 c-6 -2
-20 1 -30 7 -32 17 -35 -1 -5 -26 28 -23 17 -31 -17 -13 -13 7 -21 7 -26 -2
-4 -6 -3 -13 3 -15 6 -2 19 -10 29 -18 33 -23 7 -28 -30 -5 l-36 21 25 49 25
49 37 -21 c20 -12 31 -24 25 -26z m311 42 c8 -9 -55 -84 -70 -84 -20 0 -16 9
20 50 33 40 40 44 50 34z m-1784 -68 c34 -35 34 -61 0 -51 -10 3 -29 8 -41 11
l-23 6 24 -26 c14 -14 21 -29 18 -33 -9 -9 -77 57 -77 74 0 15 5 16 48 4 34
-10 42 -2 17 19 -16 13 -20 30 -7 30 4 0 23 -15 41 -34z m323 19 c-1 -5 -8
-10 -15 -11 -33 -3 -37 -5 -37 -23 0 -37 57 -56 68 -22 3 10 0 12 -11 8 -25
-10 -30 11 -6 24 17 9 23 8 30 -2 16 -26 9 -49 -22 -64 -28 -15 -33 -15 -55 0
-30 19 -34 78 -6 94 21 13 58 10 54 -4z m1526 -7 c30 -30 1 -98 -41 -98 -27 0
-57 28 -57 53 0 45 67 76 98 45z m-746 -28 c194 -42 377 -146 518 -296 374
-400 365 -1025 -22 -1413 -130 -130 -287 -220 -468 -269 -83 -22 -115 -25
-250 -25 -135 0 -167 3 -250 25 -551 148 -874 703 -730 1253 45 168 134 320
264 451 250 250 586 348 938 274z m423 -13 c0 -21 2 -37 3 -37 2 0 12 10 22
23 30 37 34 12 4 -32 -34 -52 -54 -53 -54 -3 l0 37 -20 -25 c-31 -41 -34 -14
-4 35 34 52 49 53 49 2z m-1288 -40 c37 -48 28 -63 -24 -42 -37 16 -41 11 -16
-17 9 -10 13 -21 9 -26 -10 -9 -77 69 -69 81 5 8 30 5 70 -10 17 -6 17 -6 1
14 -18 20 -24 43 -10 43 4 -1 21 -20 39 -43z m-330 -9 c18 -18 33 -39 33 -48
0 -21 -20 -40 -42 -40 -24 0 -78 40 -78 57 0 20 14 16 40 -12 25 -27 45 -32
56 -13 4 6 -6 23 -24 39 -30 27 -41 49 -25 49 4 0 22 -14 40 -32z m1757 -30
c-3 -5 -11 -5 -19 2 -9 8 -19 2 -39 -25 -15 -19 -32 -33 -37 -29 -6 3 1 21 16
40 20 26 24 38 16 48 -6 7 -8 16 -5 19 9 9 75 -44 68 -55z m246 43 c0 -11 -4
-31 -10 -45 -11 -31 0 -34 25 -6 10 11 22 17 28 13 6 -4 -8 -23 -33 -44 -48
-41 -67 -39 -50 5 16 43 12 51 -13 28 -40 -37 -40 -11 0 30 42 43 53 47 53 19z
m-1762 -71 c34 -41 38 -50 22 -50 -14 0 -69 62 -70 78 0 21 14 13 48 -28z
m-53 -28 c5 -11 20 -23 32 -27 38 -9 28 -28 -12 -22 -39 6 -53 -4 -30 -23 16
-13 20 -30 8 -30 -5 0 -25 17 -46 36 l-39 36 28 29 c31 33 44 33 59 1z m1659
-21 c10 -11 15 -25 11 -30 -10 -18 -25 -12 -25 9 0 11 -7 20 -15 20 -14 0 -14
-3 -1 -29 12 -23 13 -31 2 -46 -26 -36 -89 14 -67 53 11 19 8 22 26 -35 4 -11
9 -13 16 -6 8 8 7 17 -1 33 -24 45 19 70 54 31z m274 -17 c24 -37 23 -56 -1
-36 -10 9 -22 5 -50 -13 -47 -33 -57 -15 -11 20 26 20 33 32 29 46 -10 31 8
22 33 -17z m-2217 1 c46 -35 44 -51 -6 -47 l-40 2 23 -20 c13 -11 22 -24 20
-30 -4 -12 -88 46 -88 61 0 5 19 9 43 10 41 0 41 0 20 16 -23 15 -30 33 -15
33 4 0 24 -11 43 -25z m189 -22 c0 -5 -7 -17 -15 -27 -8 -10 -12 -23 -8 -29 3
-5 14 1 24 14 23 31 36 18 14 -14 -22 -34 -1 -47 24 -15 28 34 37 15 10 -21
-13 -17 -25 -31 -28 -31 -3 0 -24 15 -45 33 l-39 33 23 32 c22 30 40 41 40 25z
m1822 -40 c18 -17 25 -53 9 -53 -5 0 -11 9 -14 20 -6 22 -36 27 -55 8 -19 -19
-14 -38 16 -50 26 -11 27 -12 4 -16 -53 -9 -71 52 -26 87 32 25 42 26 66 4z
m261 -22 c25 -42 20 -61 -6 -28 -27 32 -44 25 -22 -9 8 -13 11 -25 5 -29 -5
-3 -14 4 -20 15 -6 11 -17 20 -25 20 -19 0 -19 -5 1 -34 9 -14 11 -27 6 -30
-6 -3 -20 11 -32 31 -17 29 -19 38 -8 44 7 5 27 17 43 28 39 26 38 26 58 -8z
m-2298 -31 c17 -6 16 -8 -10 -21 -24 -12 -29 -20 -27 -42 1 -15 -1 -27 -5 -27
-14 1 -75 89 -68 100 6 10 69 4 110 -10z m145 2 c0 -4 -7 -17 -15 -29 -9 -13
-11 -24 -6 -28 5 -3 17 5 25 17 19 26 32 18 17 -10 -14 -26 -14 -32 0 -32 6 0
19 10 29 23 27 33 36 13 10 -22 -12 -17 -24 -31 -28 -31 -4 0 -26 13 -49 28
l-42 28 21 32 c19 30 38 42 38 24z m1950 -30 c0 -8 -71 -54 -82 -53 -16 2 -8
14 24 37 33 23 58 30 58 16z m-2223 -31 c-3 -15 5 -23 34 -37 57 -25 52 -49
-5 -24 -38 16 -45 17 -50 4 -3 -9 -10 -12 -16 -9 -6 4 -2 21 10 46 22 41 36
52 27 20z m2262 -27 c25 -43 18 -60 -9 -24 -22 29 -37 22 -20 -10 17 -31 2
-39 -19 -11 -24 31 -48 19 -26 -12 8 -12 15 -25 15 -29 0 -18 -16 -6 -37 26
l-22 35 47 30 c26 16 48 30 49 30 0 1 11 -15 22 -35z m215 17 c20 -22 18 -52
-3 -59 -9 -3 -11 1 -7 15 9 29 -16 48 -43 33 -24 -12 -28 -50 -6 -50 8 0 15
-7 15 -15 0 -18 -11 -19 -32 -2 -28 22 -29 47 -3 73 29 29 56 31 79 5z m-2226
-43 c23 -13 41 -27 39 -33 -2 -5 -21 -12 -43 -16 l-39 -5 28 -14 c27 -13 36
-30 16 -30 -20 0 -100 53 -92 61 4 4 26 9 48 11 l40 3 -27 14 c-16 8 -28 18
-28 23 0 13 12 10 58 -14z m-278 -44 c0 -4 -8 -13 -17 -20 -10 -7 -15 -16 -10
-20 4 -4 18 3 32 16 25 24 51 22 61 -5 8 -19 -22 -65 -41 -65 -21 0 -18 17 5
30 11 6 20 15 20 20 0 17 -23 11 -47 -12 -22 -20 -25 -21 -40 -5 -14 13 -14
21 -5 42 10 22 42 36 42 19z m2310 -49 l-23 -37 31 16 c18 10 33 12 37 6 3 -5
-17 -21 -44 -35 -59 -29 -72 -20 -40 31 l22 36 -31 -16 c-18 -9 -33 -12 -37
-6 -8 12 87 61 99 50 5 -5 -1 -24 -14 -45z m240 45 c0 -5 -3 -10 -7 -10 -19
-1 -33 -18 -27 -33 4 -12 13 -15 31 -11 44 11 21 -17 -30 -37 -47 -19 -76 -10
-37 11 31 16 22 46 -13 42 -41 -5 -32 12 16 30 50 20 67 22 67 8z m-2307 -57
c26 -13 37 -33 17 -33 -20 0 -99 44 -94 52 6 10 35 3 77 -19z m-210 -53 c4 0
7 -4 7 -10 0 -13 -24 -13 -71 2 -22 6 -39 17 -39 24 0 10 9 10 48 -1 26 -8 50
-15 55 -15z m147 23 c0 -3 -8 -15 -17 -25 -22 -24 -6 -53 28 -53 18 0 25 6 27
25 4 21 2 22 -12 11 -21 -18 -31 -8 -17 17 17 32 51 17 51 -22 0 -39 -15 -56
-51 -56 -34 0 -59 24 -59 55 0 13 7 31 16 39 16 16 34 21 34 9z m2410 -20 c0
-3 -11 -21 -25 -39 l-26 -34 26 10 c33 12 45 13 45 1 0 -8 -82 -41 -102 -41
-15 0 -8 27 12 45 28 25 25 36 -6 25 -33 -13 -37 -13 -32 2 7 20 108 50 108
31z m-205 -57 c0 -14 -4 -26 -10 -26 -5 0 -10 10 -10 23 0 28 -36 35 -55 11
-12 -14 -12 -18 3 -29 18 -13 23 -35 8 -35 -18 0 -41 32 -41 56 0 19 8 29 33
39 41 17 72 1 72 -39z m-2409 23 c26 -7 44 -17 44 -25 0 -10 -7 -13 -24 -8
-18 4 -25 1 -28 -14 -4 -16 0 -22 20 -27 47 -12 8 -24 -40 -13 -48 11 -69 40
-26 35 30 -3 37 29 8 38 -11 3 -18 11 -15 16 8 11 7 11 61 -2z m190 -70 c51
-13 59 -37 14 -46 -42 -8 -46 -19 -8 -27 19 -4 28 -10 22 -15 -13 -13 -104 9
-104 25 0 7 17 18 38 25 l37 13 -32 9 c-18 6 -33 14 -33 18 0 12 12 11 66 -2z
m2253 -46 c7 -24 7 -41 1 -47 -6 -6 -12 2 -16 22 -8 41 -24 42 -24 1 0 -17 -4
-28 -10 -24 -5 3 -10 15 -10 26 0 11 -7 19 -16 19 -13 0 -15 -7 -11 -30 4 -16
2 -32 -3 -35 -7 -5 -26 57 -22 75 1 4 71 26 94 29 4 1 12 -16 17 -36z m195 21
c29 -29 13 -77 -29 -88 -53 -13 -90 35 -61 79 19 29 66 34 90 9z m-2694 -22
c0 -4 -5 -13 -11 -19 -20 -20 -2 -43 32 -43 30 0 31 2 25 31 -4 22 -2 29 7 26
6 -2 12 -19 12 -38 0 -27 -5 -35 -27 -43 -52 -18 -103 45 -66 82 14 14 28 16
28 4z m177 -82 c-4 -16 -2 -32 3 -35 6 -4 13 7 16 24 4 17 11 28 16 25 6 -4 8
-17 5 -30 -6 -33 21 -32 29 1 10 40 26 29 18 -12 -4 -21 -8 -39 -9 -41 -2 -2
-26 0 -54 4 -54 7 -60 16 -45 72 9 33 28 27 21 -8z m2331 -2 c17 -17 15 -53
-4 -69 -15 -12 -16 -10 -10 19 5 21 4 32 -3 32 -6 0 -11 -9 -11 -19 0 -31 -28
-53 -51 -40 -15 7 -19 19 -17 41 2 17 9 33 15 36 9 2 11 -5 7 -27 -8 -36 11
-43 22 -8 7 25 23 47 33 47 4 0 12 -5 19 -12z m212 -12 c0 -10 -14 -16 -42
-18 -40 -3 -43 -5 -41 -31 1 -18 -2 -27 -10 -24 -7 2 -13 20 -15 40 -3 39 -10
36 91 45 9 1 17 -4 17 -12z m-2680 -26 c24 -24 25 -47 3 -72 -33 -36 -103 -10
-103 39 0 20 38 53 60 53 11 0 29 -9 40 -20z m2671 -70 c23 -13 26 -62 3 -84
-34 -34 -94 -9 -94 39 0 46 46 68 91 45z m-2661 -70 l0 -40 -55 0 c-30 0 -55
5 -55 10 0 6 20 10 45 10 43 0 45 1 45 30 0 17 5 30 10 30 6 0 10 -18 10 -40z
m2668 -62 c16 -14 15 -63 -2 -77 -11 -9 -16 -9 -21 0 -4 6 -2 15 5 19 6 4 10
16 8 26 -5 29 -62 26 -66 -3 -2 -13 1 -23 7 -23 6 0 11 5 11 10 0 6 5 10 11
10 6 0 9 -10 7 -22 -2 -17 -10 -23 -28 -23 -22 0 -25 5 -28 37 -5 57 49 83 96
46z m-2668 -7 c0 -6 -4 -13 -10 -16 -16 -10 -12 -43 7 -54 10 -5 15 -13 11
-16 -9 -9 -106 14 -114 26 -3 5 16 22 42 39 50 32 64 36 64 21z m2664 -128
c-5 -2 -16 -8 -24 -13 -13 -9 -13 -12 3 -21 9 -5 17 -17 17 -26 0 -12 -7 -10
-33 10 -18 13 -41 26 -52 28 -33 7 -22 23 15 24 20 1 45 7 55 13 15 8 21 8 24
-1 2 -6 0 -12 -5 -14z m-2649 -5 c13 -61 12 -62 -35 -70 -62 -11 -72 -5 -68
39 3 32 7 38 26 37 12 0 22 3 22 8 0 4 11 8 25 8 17 0 26 -7 30 -22z m1435
-1052 c0 -2 -8 -10 -17 -17 -16 -13 -17 -12 -4 4 13 16 21 21 21 13z"/>
<path d="M1362 2868 c-28 -28 3 -83 33 -58 8 7 15 20 15 29 0 17 -18 41 -30
41 -3 0 -11 -5 -18 -12z"/>
<path d="M1874 2806 c-9 -24 0 -51 18 -54 19 -4 42 33 34 54 -7 18 -45 18 -52
0z"/>
<path d="M2002 2768 c3 -7 13 -15 22 -16 12 -3 17 1 14 10 -3 7 -13 15 -22 16
-12 3 -17 -1 -14 -10z"/>
<path d="M867 2723 c-4 -3 -7 -12 -7 -20 0 -11 5 -11 20 -3 11 6 20 15 20 20
0 11 -23 13 -33 3z"/>
<path d="M1576 2651 c-4 -7 -5 -15 -2 -18 9 -9 19 4 14 18 -4 11 -6 11 -12 0z"/>
<path d="M1340 2636 c0 -9 5 -16 10 -16 6 0 10 4 10 9 0 6 -4 13 -10 16 -5 3
-10 -1 -10 -9z"/>
<path d="M2226 2641 c-4 -7 -5 -15 -2 -18 9 -9 19 4 14 18 -4 11 -6 11 -12 0z"/>
<path d="M1045 2580 c3 -5 8 -10 11 -10 2 0 4 5 4 10 0 6 -5 10 -11 10 -5 0
-7 -4 -4 -10z"/>
<path d="M1052 2529 c2 -6 8 -10 13 -10 5 0 11 4 13 10 2 6 -4 11 -13 11 -9 0
-15 -5 -13 -11z"/>
<path d="M2399 2489 c-13 -26 8 -53 34 -43 18 7 31 39 22 54 -11 17 -44 11
-56 -11z"/>
<path d="M1467 2494 c-4 -4 -7 -18 -7 -31 0 -64 -64 -151 -135 -184 -49 -23
-133 -24 -183 -4 -20 9 -56 34 -78 56 -38 37 -44 40 -65 29 -13 -7 -25 -14
-27 -15 -1 -1 5 -19 14 -41 25 -60 16 -153 -22 -206 -65 -93 -177 -132 -268
-94 -47 20 -41 21 -61 -10 -17 -26 -17 -26 20 -57 21 -17 48 -53 61 -81 64
-137 -20 -299 -168 -324 -39 -7 -43 -10 -43 -37 0 -27 4 -30 43 -37 111 -19
192 -115 192 -228 0 -66 -21 -115 -71 -166 -37 -38 -40 -44 -29 -65 7 -13 14
-25 15 -27 1 -1 19 5 41 14 60 25 153 16 206 -22 93 -65 132 -177 94 -268 -20
-47 -21 -41 10 -61 26 -17 26 -17 57 20 17 21 53 48 81 61 137 64 299 -20 324
-168 7 -39 10 -43 37 -43 27 0 30 4 37 42 19 113 113 193 228 193 66 0 115
-21 166 -71 38 -37 44 -40 65 -29 13 7 25 14 27 15 1 1 -5 19 -14 41 -25 60
-16 153 22 206 65 93 177 132 268 94 47 -20 41 -21 61 10 17 26 17 26 -20 57
-21 17 -48 53 -61 81 -64 137 20 299 168 324 39 7 43 10 43 37 0 27 -4 30 -43
37 -111 19 -192 115 -192 228 0 66 21 115 71 166 37 38 40 44 29 65 -7 13 -14
25 -15 27 -1 1 -19 -5 -41 -14 -60 -25 -153 -16 -206 22 -93 65 -132 177 -94
268 20 47 21 41 -10 61 -26 17 -26 17 -57 -20 -17 -21 -53 -48 -81 -61 -137
-64 -299 20 -324 168 -6 36 -11 43 -33 46 -13 2 -28 0 -32 -4z m-52 -274 c15
-17 17 -34 13 -134 -2 -64 -7 -118 -11 -122 -21 -21 -177 86 -211 145 -28 48
-10 77 69 107 75 29 116 30 140 4z m285 5 c101 -21 112 -53 54 -150 -40 -67
-92 -135 -102 -135 -12 0 -58 82 -81 143 -25 69 -27 114 -4 139 19 21 46 22
133 3z m310 -176 c34 -28 66 -62 72 -75 18 -39 -15 -72 -126 -128 -80 -40
-100 -46 -108 -35 -10 16 -2 143 14 207 10 42 47 82 74 82 7 0 40 -23 74 -51z
m-927 21 c14 -11 47 -63 73 -116 39 -79 45 -97 33 -105 -17 -12 -153 -2 -211
14 -48 14 -83 55 -74 84 9 29 119 143 137 143 9 0 28 -9 42 -20z m463 -15 c7
-19 14 -48 14 -65 0 -29 -1 -30 -50 -30 l-50 0 0 35 c0 86 58 126 86 60z
m-264 -72 c21 -20 38 -40 38 -44 0 -4 -20 -19 -45 -32 l-45 -26 -15 29 c-15
30 -20 91 -8 103 14 15 39 5 75 -30z m535 10 c7 -17 -12 -102 -26 -116 -9 -9
-91 41 -91 56 0 5 15 24 34 43 37 37 73 44 83 17z m-191 -89 c148 -40 267
-180 293 -342 44 -275 -205 -524 -481 -481 -342 53 -481 475 -238 719 112 111
265 149 426 104z m-545 -95 c19 -7 38 -15 42 -19 9 -8 -42 -90 -56 -90 -5 0
-24 15 -43 34 -32 32 -43 64 -27 79 10 10 46 8 84 -4z m1097 -16 c23 -21 62
-121 62 -160 0 -50 -24 -63 -119 -63 -118 0 -161 8 -161 30 0 26 100 161 139
187 41 28 53 28 79 6z m-160 -17 c4 -17 -62 -96 -79 -96 -4 0 -19 20 -32 45
l-26 45 27 15 c38 21 106 16 110 -9z m-1112 -12 c60 -31 154 -101 154 -114 0
-16 -166 -92 -214 -97 -36 -4 -51 -2 -66 12 -23 21 -24 47 -5 135 20 95 47
109 131 64z m134 -254 l0 -50 -35 0 c-48 0 -95 25 -95 51 0 24 49 48 98 49 32
0 32 0 32 -50z m1020 15 c42 -22 40 -52 -5 -71 -19 -7 -48 -14 -65 -14 -29 0
-30 1 -30 50 l0 50 35 0 c20 0 49 -7 65 -15z m165 -95 c17 -19 18 -26 6 -98
-7 -42 -17 -85 -22 -94 -16 -29 -54 -32 -104 -8 -53 26 -165 106 -165 119 0
10 102 65 157 86 57 21 107 19 128 -5z m-1189 -13 c22 -22 -88 -179 -147 -211
-34 -18 -39 -19 -61 -4 -25 16 -68 123 -68 167 0 14 8 33 18 44 15 17 28 19
134 15 65 -2 120 -7 124 -11z m57 -142 l26 -45 -30 -16 c-41 -21 -103 -15
-107 10 -4 17 62 96 79 96 4 0 19 -20 32 -45z m883 -9 c37 -37 44 -73 17 -83
-17 -7 -102 12 -116 26 -9 9 41 91 56 91 5 0 24 -15 43 -34z m-820 -92 c7 -29
-10 -176 -25 -216 -13 -34 -54 -62 -79 -54 -29 10 -142 119 -142 138 0 31 44
68 135 113 50 25 93 45 97 45 4 0 11 -12 14 -26z m866 -37 c48 -14 83 -55 74
-84 -9 -29 -119 -143 -137 -143 -33 0 -68 42 -115 136 -39 79 -45 97 -33 105
17 12 153 2 211 -14z m-759 -36 c20 -12 37 -27 37 -33 0 -22 -70 -79 -92 -76
-20 3 -23 9 -22 43 2 44 20 99 32 93 4 -2 24 -14 45 -27z m522 -12 c21 -41 16
-103 -9 -107 -17 -4 -96 62 -96 79 0 6 63 47 87 58 1 1 10 -13 18 -30z m-404
-72 c36 -59 69 -151 69 -191 0 -20 -8 -40 -20 -51 -19 -17 -26 -18 -98 -6 -42
7 -85 17 -94 22 -31 17 -33 58 -7 108 29 55 106 161 117 161 4 0 19 -19 33
-43z m159 -12 c0 -48 -25 -95 -51 -95 -23 0 -49 52 -49 100 0 29 1 30 50 30
l50 0 0 -35z m136 -6 c161 -112 173 -171 43 -217 -125 -44 -149 -28 -149 97 0
117 8 161 30 161 9 0 43 -18 76 -41z"/>
<path d="M1316 1725 c-93 -36 -171 -66 -173 -68 -2 -3 46 -17 107 -33 l110
-29 0 -47 c0 -44 3 -50 28 -60 40 -16 171 -22 218 -9 l41 11 12 78 c16 110 -2
154 -82 192 -71 35 -82 33 -261 -35z"/>
<path d="M1584 1777 c104 -64 124 -139 79 -300 -19 -66 -10 -100 32 -119 50
-23 74 46 40 112 -9 17 -20 63 -25 102 -20 154 -56 219 -122 217 -22 0 -22 -1
-4 -12z"/>
<path d="M1690 1733 c0 -12 26 -82 32 -88 3 -3 35 6 72 21 36 15 63 30 60 33
-5 5 -138 40 -156 41 -5 0 -8 -3 -8 -7z"/>
<path d="M1312 1328 c-7 -7 -12 -16 -12 -20 0 -13 28 -9 33 5 3 9 7 9 17 0 10
-9 6 -19 -19 -50 -17 -20 -31 -41 -31 -45 0 -5 18 -8 40 -8 22 0 40 5 40 10 0
6 -9 10 -20 10 -11 0 -20 3 -20 8 0 4 9 15 20 25 33 28 20 77 -20 77 -9 0 -21
-5 -28 -12z"/>
<path d="M1421 1326 c-7 -8 -11 -36 -9 -63 3 -44 5 -48 30 -51 34 -4 52 27 44
76 -8 49 -40 68 -65 38z m44 -35 c7 -32 -10 -75 -26 -66 -5 4 -9 26 -9 51 0
52 24 62 35 15z"/>
<path d="M1526 1324 c-17 -16 -21 -80 -7 -102 5 -8 21 -12 37 -10 27 3 29 6
32 51 4 69 -25 98 -62 61z m42 -49 c4 -43 -13 -69 -28 -45 -11 17 -13 74 -3
84 15 14 28 -2 31 -39z"/>
<path d="M1633 1333 c-15 -6 -17 -33 -3 -33 6 0 10 5 10 10 0 6 7 10 15 10 22
0 18 -34 -6 -56 -11 -10 -25 -27 -30 -36 -9 -16 -5 -18 36 -18 25 0 45 5 45
10 0 6 -12 10 -26 10 l-26 0 26 31 c30 36 31 42 10 63 -16 16 -29 19 -51 9z"/>
<path d="M671 2327 c-6 -8 -8 -17 -4 -20 7 -8 33 11 33 24 0 13 -16 11 -29 -4z"/>
<path d="M330 2170 c0 -5 4 -10 9 -10 6 0 13 5 16 10 3 6 -1 10 -9 10 -9 0
-16 -4 -16 -10z"/>
<path d="M2796 1775 c-20 -20 -10 -45 19 -45 32 0 51 25 35 45 -16 19 -35 19
-54 0z"/>
<path d="M136 1625 c-6 -16 18 -45 38 -45 20 0 39 27 32 45 -7 20 -62 20 -70
0z"/>
<path d="M2825 1556 c-27 -19 -12 -48 22 -44 33 4 42 32 15 47 -14 7 -24 7
-37 -3z"/>
<path d="M155 1390 c3 -5 10 -10 16 -10 5 0 9 5 9 10 0 6 -7 10 -16 10 -8 0
-12 -4 -9 -10z"/>
<path d="M192 1289 c1 -13 8 -23 13 -21 15 3 12 35 -3 40 -9 3 -13 -3 -10 -19z"/>
<path d="M150 1281 c0 -12 5 -21 10 -21 6 0 10 6 10 14 0 8 -4 18 -10 21 -5 3
-10 -3 -10 -14z"/>
</g>
</svg>
