<svg version="1.2" xmlns="http://www.w3.org/2000/svg" viewBox="0 0 500 500" width="500" height="500"><style>.a{fill:#fff}.b{fill:#00306c}.c{fill:#007bc7}.d{fill:#1eb9ee}</style><path class="a" d="m250 491c-133.3 0-241-107.7-241-241 0-133.3 107.7-241 241-241 133.3 0 241 107.7 241 241 0 133.3-107.7 241-241 241z"/><path fill-rule="evenodd" class="b" d="m266.7 0.7c21.1 1.8 35.1 4.2 53 9.3 46.2 13.3 89.1 41 120.2 77.6 4.3 5.1 4.9 5.7 8.1 9.9 13.3 17.2 24.6 36.7 32.6 55.9 1.9 4.7 5.9 15.2 7 18.8 2.7 8.3 5.8 20.2 7.2 27.4 4.9 24.4 6.3 48.9 4.1 73.1-4.4 48.3-22.3 93.2-52.4 131.6-20.9 26.8-47.4 49.1-77.6 65.5-32.9 17.8-68.5 27.7-107.2 29.7-6.1 0.4-23.2 0.2-28.4-0.2-20.3-1.6-35.1-4.2-52.1-9.1-31.8-9.1-61.2-24.2-87.2-45-11.1-8.8-22.7-19.9-31.8-30.3-26.9-30.8-45.1-65.6-55-105.2-6.2-25-8.5-53.8-6.3-79.8 1.7-20.7 5.5-39.8 11.9-58.9 9.3-28 23.8-54.4 42.2-77.4 23.1-28.7 52.6-52.3 85.3-68.1 16.6-8.1 31.6-13.5 49.6-18 14.5-3.7 30-6 46.9-7 4.6-0.3 25.8-0.1 29.9 0.2zm-43.1 12.5h-1.7c-5.2 0-7.7 3.2-7 8.9l0.2 1.6-1.4 0.1c-2 0.2-2.1 0.3-1.8 1.8 0.1 0.7 0.2 1.3 0.3 1.4 0 0 0.8-0.1 1.6-0.2 0.8-0.1 1.6-0.2 1.7-0.1 0.1 0 0.6 4.1 1.3 9 0.7 4.9 1.3 9 1.4 9.2 0 0.3 0.4 0.3 1.8 0.1 1 0 1.9-0.2 1.9-0.2 0 0-0.5-4.1-1.2-9-0.7-4.8-1.3-9-1.3-9.3 0-0.4 0.2-0.5 2.1-0.8 1.2-0.1 2.2-0.3 2.3-0.4 0.2-0.2-0.2-2.8-0.4-2.8-0.1 0-1.1 0.1-2.3 0.3-1.2 0.2-2.2 0.2-2.2 0.1-0.1 0-0.2-0.9-0.3-1.9-0.1-1.5 0-2 0.3-2.7 0.7-1.2 1.6-1.7 3.3-1.9 1.3-0.1 1.6-0.2 1.5-0.6 0-0.2 0-0.9 0-1.5zm31.2 0.3l-3.8-0.1-0.2 2.5c-0.1 1.4-0.3 6.7-0.5 11.8-0.2 5.1-0.4 10.6-0.5 12.1l-0.1 2.9h0.8c0.4 0 4.4 0.2 8.8 0.4 4.5 0.2 8.3 0.4 8.7 0.4 0.5 0 0.5-0.1 0.5-1.6 0-0.9 0-1.6 0-1.6-0.1 0-3.3-0.2-7.3-0.4-3.9-0.2-7.2-0.4-7.2-0.4-0.1-0.1-0.1-2.4 0-5.1l0.2-5 3.8 0.1c2.1 0.1 4.9 0.2 6.4 0.2h2.5l0.2-3-2.3-0.2c-1.3-0.1-4.1-0.2-6.4-0.3l-4.1-0.1 0.2-4.6c0.1-2.5 0.2-4.6 0.2-4.6 0.1-0.1 3.3 0 7.2 0.2 3.9 0.1 7.2 0.2 7.2 0.2 0-0.1 0.1-0.8 0.2-1.6l0.1-1.5-1.2-0.1c-0.7-0.1-3.1-0.2-5.4-0.3-2.3-0.1-5.9-0.2-8-0.3zm27.7 9.8l-1.6-0.3c-1.2-0.1-1.7-0.1-1.8 0-0.1 0.4-3.5 20.8-3.5 21.1 0 0.3 3.4 0.9 3.6 0.6 0.1 0 0.8-3.5 1.5-7.7 1.1-7.1 1.2-7.6 1.9-8.2 2.2-2.4 6.3-2.4 7.9-0.2 0.9 1.2 0.8 2.6-0.5 10.3-0.7 4.1-1.1 7.4-1 7.5 0.2 0.3 3.3 0.7 3.5 0.5 0.1-0.1 0.7-3.6 1.4-7.8 1.4-8.4 1.5-9.9 0.5-11.7-0.2-0.5-0.9-1.3-1.4-1.7-1.4-1.3-2.4-1.6-5.1-1.6-2.3-0.1-2.5 0-3.8 0.7-0.7 0.4-1.4 0.7-1.5 0.8-0.1 0-0.1-0.5-0.1-1.1zm-86.4 3.7c-6.2 2-8.4 8.9-5.1 16.1 2.5 5.6 8.5 7.5 14.1 4.5 3.3-1.8 5.1-6 4.5-10.2-0.8-5.8-3.6-9.6-7.9-10.7-2-0.5-3.3-0.5-5.6 0.3zm114.6 3.1q-4.4 1.2-6.6 5.9c-3.5 7.3-1.3 13.9 5.4 16 2.9 0.9 6.5 0.4 8.4-1.1 0.8-0.7 0.8-0.9-0.3-2.3l-0.5-0.7-1.5 0.7c-3.5 1.6-7.6 0.2-9-3.2-0.4-1-0.5-4.3-0.2-4.7 0.2-0.2 8.1 2 13.8 3.8 0.4 0.1 0.5-0.2 0.9-1.8 0.8-2.7 0.9-4.2 0.6-5.9-0.7-3.6-3-6-6.8-6.8-1.7-0.3-2.5-0.3-4.2 0.1zm23.1 7.1c-0.1 0.1-1.2 2.9-2.6 6.2-1.3 3.3-3.1 7.7-4 9.7-0.9 2.1-1.5 3.9-1.4 4 0.2 0.2 3.3 1.5 3.3 1.4 0.1-0.2 2-4.7 3.8-9.1 2.2-5.3 2.6-6 4.4-6.5 1.2-0.3 2.4-0.2 4 0.6l1.2 0.6 0.3-0.8c0.2-0.4 0.5-1.2 0.7-1.7 0.4-1 0.3-1.1-1.2-1.7-1.4-0.6-3.5-0.6-4.7 0.1l-1.1 0.5 0.4-0.9c0.2-0.5 0.4-1 0.4-1.1 0-0.2-0.5-0.5-1.1-0.7-1.5-0.6-2.2-0.8-2.4-0.6zm-175.4 3.3c-6.1 0-10.3 5.5-9 11.8 0.8 4.2 3.4 8 6.4 9.5 5.1 2.5 12-0.4 13.8-5.6 0.2-0.9 0.4-1.7 0.4-1.7-0.1-0.1-0.7-0.3-1.4-0.5l-1.2-0.3-0.6 1.3c-1.3 2.8-3.4 4.3-6.2 4.3-1.8 0-2.8-0.4-4.2-1.6-0.9-0.9-2.1-2.5-1.9-2.7 0 0 1.7-0.8 3.7-1.7 2.1-0.9 5-2.3 6.7-3.1l3-1.4-1-2c-1.4-2.6-3.3-4.6-5.2-5.6-1.3-0.6-1.7-0.7-3.3-0.7zm193.4 6.2c-5.8 1.9-10.5 10.8-8.6 16.4 1.2 3.3 5.4 5.9 8.8 5.3 0.7-0.2 1.2-0.2 1.2 0 0 0.4-1.2 2.2-2 3-1.1 1-1.9 1.3-3.5 1.3-2.5 0-5.2-2-6.1-4.5-0.3-0.7-0.5-1.3-0.6-1.4-0.1-0.1-0.7 0-1.4 0.3-1.2 0.4-1.2 0.5-1.2 1.3 0.1 1.2 1 2.7 2.4 4.3 1.5 1.5 2.8 2.3 4.8 3 4.2 1.2 7.9-0.2 10.3-4.2 2.1-3.6 10.2-18.9 10.1-19.1-0.3-0.4-2.6-1.5-3-1.3-0.2 0-0.4 0.4-0.6 0.7-0.1 0.4-0.3 0.6-0.4 0.6-0.1 0-0.4-0.6-0.7-1.3-0.7-1.6-2.3-3.1-4.1-4-1.7-0.7-4-0.9-5.4-0.4zm-219.1 0.4c-0.1 0-2.9 1.6-3.1 1.8-0.1 0 0.5 1 1.1 2.2 0.7 1.1 1.3 2.2 1.3 2.3 0 0.1-0.8 0.6-1.6 1.1-1.8 1-1.8 1-0.7 2.6 0.6 0.9 0.6 1 1.1 0.6 0.3-0.1 1.1-0.6 1.7-1l1.1-0.6 2.6 4.3c1.4 2.4 3 5.2 3.6 6.1 1.8 3.2 3.3 4.5 5.4 4.5 0.9 0 2.8-0.9 4.1-1.9l0.8-0.7-0.7-1.1c-0.8-1.5-1-1.6-1.5-1.1-0.2 0.2-0.8 0.5-1.3 0.8-1.8 0.7-1.9 0.6-6.9-8.2-1.4-2.4-2.6-4.5-2.6-4.6 0-0.1 0.7-0.5 1.5-1 0.8-0.4 1.5-0.9 1.6-1 0.2-0.4-0.9-2.4-1.4-2.4-0.1 0-0.9 0.3-1.7 0.8-0.8 0.5-1.6 0.8-1.7 0.7-0.1 0-0.8-1-1.4-2.2-0.6-1.1-1.2-2-1.3-2zm241 10.3c0 0.1-1.3 5-3 10.8-2.9 10.7-2.9 10.7-3.8 11.5-0.5 0.5-1.5 1.1-2.2 1.4-1.6 0.9-3 0.8-4.5-0.2l-1-0.7-0.7 0.8c-1 1.3-1.1 1.7-0.3 2.5 1.2 1.2 2.6 1.7 4.6 1.6 2.6-0.2 1.9 0.3 16.6-10.3 3-2.1 6.3-4.5 7.4-5.3 1.1-0.8 2-1.6 2-1.7 0-0.1-0.7-0.7-1.5-1.2-1.3-0.9-1.5-1-2-0.7-0.4 0.2-6.7 5-11.4 8.7-0.7 0.5-1.3 1-1.4 0.9 0 0 0.5-2.1 1.3-4.6 2.3-7.6 3.3-11.1 3.3-11.3 0-0.1-0.7-0.7-1.5-1.3-1.4-0.9-1.9-1.2-1.9-0.9zm-136 1.4c-21 1.5-38.8 5.5-56.8 12.5-27.9 10.8-52.1 27.4-72.5 49.5-3.6 4-8.2 9.4-11.3 13.5-19.6 25.9-32.4 56.7-36.9 88.4-5.4 38.8 0.8 77.6 17.9 112.1 5.1 10 9.5 17.6 15.6 26.1 14.9 20.8 34.1 38.9 55.4 52 26.1 16 54.3 25.3 85.4 28 4.9 0.4 21 0.6 26.6 0.2 14.1-0.8 26-2.8 39.6-6.5 22-6 44.5-16.9 63-30.6 19.8-14.7 36.5-32.9 49.7-54.2 14.1-22.9 23.5-49.7 26.7-76.5 1-8.8 1.3-13.4 1.3-23.4 0-19.9-2.4-36-8-55.1-6.8-23.1-18.6-45.5-34.1-64.8-17.6-21.8-39-39-64.2-51.5-22-11-44.2-17.2-69.7-19.5-3.7-0.3-24-0.5-27.7-0.2zm-115.7 1.8l-0.4-0.6-1.6 1.1c-0.8 0.6-1.4 1.2-1.4 1.3 0 0 0.3 0.5 0.7 1 0.4 0.5 2.5 3.4 4.7 6.5q4.1 5.5 4.1 6.1c0 1.9-1.8 4.5-3.5 5.3-2 0.9-3.6 0.4-5.4-1.9-0.9-1.1-7.8-10.5-8.3-11.2-0.1-0.2-0.9 0.2-2.6 1.5l-0.6 0.5 0.8 1.2c4 5.6 8.2 11.1 9.1 12 1.5 1.6 2.7 2.1 4.6 2.1 2 0 3.8-0.8 5.6-2.6 1.4-1.4 2.1-2.5 2.3-3.8l0.2-0.8 0.7 0.8 0.6 0.8 1.4-1.1c0.8-0.6 1.4-1.1 1.4-1.1 0-0.1-1-1.5-2.2-3.2-1.3-1.8-4-5.5-6.1-8.3-2-2.8-3.9-5.3-4.1-5.6zm-28.3 14.8c-0.1 0-0.8 0.5-1.5 1.2l-1.3 1.2 0.6 0.7c0.3 0.4 1.1 1.2 1.7 1.9l1.2 1.3-1.4 1.3c-0.8 0.7-1.5 1.3-1.5 1.4-0.1 0 0.3 0.5 0.9 1.1l1.1 1.1 1.4-1.3 1.5-1.2 1.3 1.3c0.6 0.8 2.8 3.1 4.7 5.2 2 2.2 3.9 4.2 4.4 4.6 1.5 1.2 3.5 1.4 5.2 0.6 0.6-0.4 2.9-2.7 2.9-3 0-0.1-0.4-0.7-1-1.3l-0.9-1.1-0.8 0.9q-1.4 1.4-2.7 1.1c-0.2-0.1-2.7-2.6-5.4-5.6l-4.9-5.4 1.6-1.4 1.5-1.4-2-2.1-1.5 1.3-1.6 1.3-1.7-1.8c-0.9-1.1-1.8-1.9-1.8-1.9zm318.6 2.4c-0.4 0-2.3 1.8-2.2 2 0.1 0.1 1.4 1.7 3.1 3.4 1.7 1.8 3.1 3.3 3.1 3.4 0 0.1-4.2 4.2-9.4 9.1l-9.3 9.1 2.8 2.8 2.2-2.1c1.2-1.2 5.4-5.3 9.4-9.1l7.2-6.9 6.6 6.6 1-1c0.6-0.5 1.1-1.1 1.1-1.2 0-0.2-1.9-2.2-4.2-4.6-2.3-2.3-5.8-5.9-7.7-7.9-2-2-3.6-3.6-3.7-3.6zm-333.1 8c-1.4 0.7-1.6 2.6-0.4 3.6 1 0.8 1.7 0.8 2.8-0.1 1.3-1.2 1.1-2.8-0.4-3.5-0.9-0.5-1.1-0.5-2 0zm6.4 4.7c-0.1 0-0.7 0.6-1.4 1.3l-1.3 1.3 6.3 6c3.4 3.3 7 6.7 7.9 7.5l1.7 1.6 1.2-1.2c0.7-0.7 1.2-1.3 1.2-1.5 0-0.1-3.4-3.6-7.7-7.6-4.2-4.1-7.7-7.4-7.9-7.4zm-15.7 9.5c-0.1 0-0.6 0.7-1.3 1.4l-1.2 1.4 1.2 1c0.7 0.6 1.6 1.3 2.1 1.7l0.8 0.8-1.3 1.4-1.2 1.5 1 0.9c0.6 0.5 1.1 0.9 1.2 0.9 0.1 0 0.7-0.6 1.3-1.3 0.6-0.7 1.3-1.4 1.4-1.4 0.2 0 3.7 2.9 8.3 6.7 3.1 2.7 4.6 3.5 6.4 3.3 1.7-0.1 2.8-0.9 4-2.8l0.9-1.4-1.2-1-1.1-1-0.8 1c-1 1.3-1.7 1.6-2.6 1.3-0.5-0.2-4.7-3.5-10.8-8.7l-0.7-0.6 0.9-1.1c1.8-2.1 1.7-1.9 0.8-2.7-1.6-1.3-1.3-1.4-3.3 1l-0.8 0.9-1.9-1.6c-1.1-0.8-2-1.6-2.1-1.6zm349.6 5.2c-3.4 1.2-6.9 4.3-8.3 7.2-0.7 1.5-0.8 1.9-0.8 3.9 0 1.9 0.1 2.3 0.8 3.8 1.1 2.4 3.6 4.8 5.5 5.6 0.8 0.2 2.1 0.5 2.9 0.6l1.4 0.2v-3.3h-0.8c-2.2 0-4.6-1.5-5.7-3.8-1.1-2.2-0.5-5.5 1.5-7.3l0.8-0.9 4.5 5.7c2.5 3.1 4.6 5.7 4.6 5.8 0.3 0.1 3.2-2.4 4.2-3.6 1-1.4 2-3.5 2.1-5 0.3-3.3-1.9-7-5.3-8.6-2-1-5.1-1.1-7.4-0.3zm-361 18.4c-1.8 3.6-1 7.4 1.9 9.1 2.4 1.4 5.1 0.6 9-2.9 2.6-2.4 3.7-3 4.9-2.8 2.4 0.4 3 2.9 1.4 5.7-1.3 2.2-3.4 3.3-5.4 2.7-0.6-0.1-1.1-0.2-1.2-0.2-0.3 0.4-1.8 2.8-1.8 3 0 0.2 1.3 0.7 2.4 0.9 3.5 0.6 7.1-1.7 9.2-5.8 0.8-1.5 1-2.1 1-3.6 0.2-2.2-0.2-3.3-1.4-4.6-1-1.2-2.4-1.8-3.9-1.9-2.1 0-4 1-7 3.8-2.3 2.1-3.1 2.6-4.3 2.6-0.7 0-1.1-0.2-1.7-0.7-0.5-0.6-0.7-0.9-0.7-2 0-1.6 0.7-2.8 2-4 1.4-1.2 2.7-1.4 4.2-0.8 0.3 0.2 0.6-0.2 1.4-1.3 0.5-0.8 1-1.5 1-1.7 0-0.1-0.4-0.4-0.9-0.6-3.9-1.5-7.9 0.5-10.1 5.1zm378.4 3.4c-1.3 0.3-3.6 1.2-5.2 2.2-6.1 3.6-7.8 9.3-4.4 14.5 1.4 2.1 3.5 3.5 5.9 3.9 2.1 0.4 5-0.3 4.5-1-0.1-0.2-0.5-0.8-0.8-1.4l-0.7-1.1h-1.9c-2.2 0-3.1-0.4-4.2-2-2.6-3.7-0.8-7.5 5-10.4 4-2.1 7.6-1.2 9.1 2.3 0.7 1.8 0.2 4.2-1.3 5.5l-0.6 0.6 0.9 1.5c0.5 0.8 1 1.4 1.2 1.4 0.4 0 2.3-2.1 2.8-3.3 0.8-1.7 0.8-4.1 0.2-5.9-0.9-2.9-2.6-4.8-5-6-1.5-0.7-4-1-5.5-0.8zm-391 17.8c-1.1 2-1.2 4.6-0.5 6.6 0.3 0.5 0.1 0.5-1.1-0.1-0.6-0.3-1-0.5-1.1-0.4-0.2 0.2-1.6 3.1-1.5 3.2 0 0 4.4 2.3 9.7 5l9.7 4.9 0.8-1.5c0.4-0.7 0.7-1.5 0.7-1.7 0-0.2-2.8-1.8-6.2-3.5-3.5-1.8-6.6-3.4-7-3.6-1.8-1.1-2.2-4.9-0.8-7 1-1.5 2.2-2.1 3.7-1.9 0.7 0.1 3.6 1.5 7.8 3.6 3.6 1.9 6.8 3.4 6.9 3.4 0.3 0 1.9-3.1 1.7-3.3-0.4-0.4-14.5-7.2-15.3-7.4-3.4-0.8-5.8 0.4-7.5 3.7zm417.6-0.4c0-0.1-3.1 1.2-6.7 2.9-3.6 1.6-9.8 4.4-13.8 6.2-3.9 1.8-7.3 3.4-7.4 3.5-0.2 0.1 1 3.3 1.3 3.3 0.3 0 1.9-0.6 8.5-3.7l5.9-2.6 1.3 0.3c1.7 0.5 3 1.7 3.7 3.2 1 2.1 0.7 3.7-0.9 4.9-0.4 0.3-3 1.6-5.7 2.8-5.6 2.5-8.7 4-8.8 4-0.1 0.1 0.3 0.9 0.7 1.8l0.8 1.7 7.3-3.3c4-1.8 7.8-3.7 8.4-4.2 0.7-0.5 1.4-1.3 1.8-2.2 0.7-1.2 0.7-1.5 0.6-2.9-0.2-3-2.1-5.8-4.7-7.1l-1.2-0.6 0.7-0.3c1.3-0.5 9.5-4.2 9.7-4.3 0-0.1-0.2-0.9-0.6-1.7-0.4-0.9-0.8-1.7-0.9-1.7zm-433.7 18.9c-0.3 0-1.4 3.4-1.2 3.6 0.2 0.2 6.7 2.7 15.6 6.1 4.2 1.6 9.8 3.7 11.3 4.4 0.2 0.1 1.7-3.5 1.5-3.7 0-0.1-2.8-1.1-6.2-2.4-3.3-1.3-9.4-3.6-13.5-5.2-4.1-1.6-7.4-2.8-7.5-2.8zm436.8 13c-0.3 0-2.1 0.5-4.1 1-1.9 0.6-6.3 1.9-9.8 3-3.4 1-6.3 1.9-6.5 2q-0.2 0.2 0.3 1.9c0.3 0.9 0.5 1.7 0.5 1.7 0.1 0.1 3.4-0.9 7.4-2.1 3.9-1.2 7.5-2.2 7.8-2.2 0.8 0 3 1.2 3.6 2 1.6 2.1 1.7 4.6 0.3 6-0.8 0.9-1.4 1.1-9 3.4-3.9 1.1-7.2 2.1-7.2 2.1-0.2 0.2 1 3.6 1.3 3.6 0.2 0 1.2-0.3 2.2-0.6 1.1-0.4 4.4-1.3 7.3-2.2 5.8-1.8 6.8-2.2 8.2-3.5 1.9-1.7 2.2-4.7 0.8-7.8-0.6-1.6-2.4-3.5-3.4-3.8-0.8-0.3-0.7-0.5 0.5-0.9 1.1-0.3 1.1-0.4 1-1.1-0.1-0.4-0.3-1.1-0.5-1.6-0.2-0.5-0.5-0.9-0.7-0.9zm-436.7 22.4c-3.5 1-5.7 5.1-5.3 9.7 0.3 2.9 2.1 5.7 4.2 6.4 0.3 0.1 0.7 0.1 0.7 0 0.1-0.1 0.3-0.9 0.4-1.8 0.2-1.2 0.3-1.8 0.1-1.8-0.2-0.1-0.6-0.3-0.9-0.6-2.5-2-1.4-7.6 1.7-8.3 0.8-0.2 3.2 0.1 3.5 0.4 0 0.1-0.1 1.1-0.3 2.3-1.2 6-0.4 9.5 2.5 11.3 2.3 1.4 5 1.4 7.2-0.1 3-1.9 4.1-6.8 2.3-10.2-0.2-0.5-0.4-1-0.4-1.1 0 0 0.4-0.1 1-0.2h1l0.3-1.5c0.5-2.6 0.6-2.4-1.5-2.5-1.2 0-4.2-0.4-7.9-1.1-5.7-1.1-7.4-1.3-8.6-0.9zm435.9 4.6c-1.6 0.2-3.4 0.5-4.3 0.7-2.9 0.9-5.6 3-6.9 5.4-0.7 1.3-0.7 1.6-0.7 4.2 0 2.6 0 2.9 0.8 4.4 2 4.3 6.3 6.2 11.9 5.2 3-0.5 5.1-1.4 6.8-3.1 2.3-2.1 3.3-5 2.8-8.2-0.6-4.5-3.9-7.7-8.5-8.3-0.9-0.2-1.7-0.3-1.9-0.3zm-431.6 20.3h-2.8c-3.2 0-4.2 0.2-5.8 1.1-1.6 0.8-2.9 2.2-3.7 3.8-0.5 1.1-0.6 1.6-0.6 3.7 0 2.1 0.1 2.7 0.5 3.7 1.2 2.5 3.4 4.5 6.3 5.5 1.2 0.5 2 0.6 5 0.6 3.5 0 3.6 0 5.2-0.8 2.1-1 4.1-3.1 4.8-5.1 0.7-1.9 0.9-4.7 0.4-6.7-0.4-1.6-1.8-3.9-2.8-4.6-0.5-0.3-0.6-0.3-1.5 0.7l-1 1 0.6 0.8c0.4 0.4 1 1.3 1.3 2 1.5 3.3-0.2 7.4-3.5 8.5-1.7 0.6-3.2 0.8-3.4 0.5 0-0.2 0-1.6 0.1-3.3 0.5-5.5 0.5-5.9 0.7-8.7zm453.2 6.6h-1.2c-0.7 0.1-6.6 0.5-13.1 1-6.5 0.5-12.9 1-14.3 1.1l-2.4 0.2 0.2 1.8c0.1 1 0.2 1.9 0.2 1.9 0 0.1 2.7-0.1 6-0.4 3.3-0.2 10.2-0.7 15.3-1.1 5.1-0.4 9.3-0.7 9.4-0.8 0.1-0.1 0.1-1 0-1.9zm-23.2 14.9c-1.5 0.3-3.3 1.4-4.7 2.7-4.2 3.9-3.6 11.6 1.2 14.8 2.3 1.5 3.6 1.8 7.4 1.8 2.9 0 3.6 0 4.8-0.5 2.9-1.2 4.8-3 5.8-5.6 0.7-1.8 0.8-5.2 0.1-6.9-1-2.9-3.5-5.1-6.6-6.1-1.7-0.5-6.2-0.7-8-0.2zm-440.1 2.6h-1.7c-0.9 0-1.7 0.1-1.8 0.2-0.1 0.1-0.2 0.8-0.2 1.5 0 1.7 0.7 3.2 1.9 4.3l0.9 0.9h-2.3v3.7l10.8-0.2c6-0.1 10.9-0.2 11-0.3 0.1-0.1 0.2-1 0.1-2l-0.2-1.6-15.8 0.2-1.1-1.1c-1.2-1.2-1.6-2.3-1.6-4.3zm6.1 19c-5.6 1.3-8.9 5.8-8.1 11 0.4 2.4 1 3.8 2.5 5.3 2.2 2.3 4.4 3.1 8 3.1 3.9 0 6.9-1 9.2-3.3 1.8-1.7 2.6-3.4 2.8-6.1 0.2-4.8-2.2-8.5-6.5-9.9-1.9-0.6-5.7-0.7-7.9-0.1zm421.9 3.9l-0.7-0.7-1 0.7c-4.8 3.6-5.3 12.2-0.7 15.5 1.8 1.3 3.2 1.6 14 3.1 5.8 0.8 10.8 1.6 11.1 1.6 0.6 0.1 0.7 0.1 0.9-1.5 0.1-0.9 0.2-1.7 0.2-1.8-0.1-0.1-0.6-0.3-1.1-0.4l-1-0.1 1-0.9c0.5-0.4 1.2-1.4 1.6-2.2 0.6-1.3 0.7-1.7 0.7-3.8 0-2.1-0.1-2.7-0.6-3.7-1.7-3.3-6.3-5.5-11.8-5.5q-5.1 0-7.8 2.7c-1.4 1.5-2 2.9-2.1 5.5-0.1 2 0 2.3 0.7 3.6 0.4 0.8 0.7 1.5 0.7 1.5-0.3 0.3-3.2-0.5-4.1-1-3.2-1.9-3.3-6.7 0-9.8 1-1 1.2-1.3 1-1.7-0.1-0.2-0.6-0.7-1-1.1zm-406.8 15.4c-0.1 0-2 2.4-4.4 5.2-6.8 8.4-8.6 10.5-8.7 10.4-0.5-0.2-8-4.2-11.3-6-2-1.1-3.7-2-3.8-1.9 0 0 0.2 1.1 0.5 2.3l0.5 2.2 1.9 1c1.1 0.6 4.4 2.4 7.3 4 2.9 1.5 5.7 3.1 6.4 3.4 0.6 0.3 1.1 0.6 1.1 0.7 0 0.1-3 0.9-6.7 1.8-3.8 0.9-6.8 1.7-6.9 1.7-0.1 0.1 0.7 3.4 0.9 3.6 0.2 0.2 4.3-0.7 14.8-3.3 2.5-0.6 6.6-1.6 9.1-2.2 2.5-0.6 4.6-1.2 4.6-1.2 0.1-0.1-0.8-3.6-0.9-3.7-0.1 0-2.1 0.4-4.5 1-2.4 0.6-4.6 1.1-4.8 1.1-0.5 0-4.6-2.2-4.6-2.5 0 0 2-2.5 4.4-5.5 2.4-2.9 4.8-5.9 5.4-6.6l0.9-1.2-0.5-2.1c-0.3-1.2-0.6-2.2-0.7-2.2zm400.4 5.8l-1.2-0.4-0.5 1.2c-1.1 2.5-0.5 5 1.7 7.2 0.6 0.6 6.2 4.4 12.4 8.6 10.7 7 11.3 7.4 11.5 6.9 0.3-0.8 0.9-3.4 0.8-3.5-0.2-0.1-11.6-7.1-12.8-7.8-0.6-0.4-1.1-0.7-1.1-0.8 0-0.1 3.7-0.5 8.3-0.8l8.4-0.6 0.4-1.9c0.3-1.1 0.5-2 0.4-2-0.1-0.1-3.8 0.2-16.4 1.4l-6.3 0.7-1.4-1c-2.2-1.5-2.8-2.2-2.9-3.8-0.1-0.7 0-1.6 0.1-2.1q0.3-0.7 0.1-0.9c-0.2 0-0.8-0.3-1.5-0.4zm-10.7 54.3c-0.1 0-1.3 1.8-2.6 4.1-1.4 2.2-4.2 6.9-6.3 10.4l-3.8 6.3 1 0.6c0.6 0.3 1.3 0.8 1.6 1 0.5 0.3 0.6 0.3 1.1-0.6 0.3-0.5 2.5-4.1 4.8-7.9 2.3-3.8 4.4-7.2 4.6-7.6l0.4-0.7 8.1 4.9c4.4 2.7 8.1 4.9 8.2 4.9 0.1 0 0.7-0.8 1.3-1.9l1.1-1.8-1-0.6c-0.6-0.4-1.8-1.2-2.8-1.7-1-0.6-4.9-3-8.6-5.3-3.8-2.2-6.9-4.1-7.1-4.1zm-370.2 0.8c-0.4 0-2.7 1.6-2.8 1.9-0.1 0.1 0.2 0.7 0.6 1.3l0.8 1.1-1.5 0.1c-1.7 0.2-4.1 1.4-5.1 2.5-3.8 4.3-2.1 11.3 3.4 14 1.2 0.5 1.6 0.6 3.4 0.6 1.8 0 2.3-0.1 3.4-0.6 1.6-0.9 3-2.3 3.6-3.6 0.2-0.6 0.5-1 0.6-1 0.1 0 0.5 0.5 0.8 1.1 0.4 0.6 0.8 1.1 0.9 1.1 0.5 0 3-1.8 2.9-2-0.1-0.2-1-1.7-2.1-3.4l-2-3 1.7-1.1 1.7-1.2-1.2-1.8-1.2-1.9-1.7 1.1c-1 0.6-1.8 1.1-1.8 1.1-0.1-0.1-1-1.5-2.1-3.3-1.1-1.7-2.2-3.1-2.3-3zm392.7 9.9c-0.1 0-1.4 2-2.8 4.4-1.5 2.5-2.7 4.4-2.8 4.4 0 0-2.4-1.4-5.3-3.2-2.9-1.7-5.4-3.1-5.4-3.1-0.5 0.6-2.1 3.5-2 3.7 0.1 0.2 2.4 1.7 5.3 3.4l5.1 3.2-1 1.6c-0.6 0.9-1.1 1.7-1.2 1.8-0.1 0.2-2.5-1.2-5.4-3l-5.3-3.1-0.8 1.2c-0.9 1.5-1.4 2.3-1.4 2.5 0 0.1 2.4 1.6 5.2 3.4 5.1 3.1 5.3 3.2 5 3.7-1 1.5-2.4 4.1-2.4 4.1 0.1 0.1 0.8 0.5 1.6 1 1.1 0.8 1.5 0.9 1.7 0.6 0.1-0.2 2.2-3.7 4.7-7.8 2.5-4.1 5.6-9.1 6.8-11.1 1.2-2 2.5-4.1 2.9-4.8l0.6-1.1-1.4-0.9c-0.8-0.5-1.6-0.9-1.7-0.9zm-406.7 5.9c-0.3 0-8.5 5.5-8.6 5.7-0.1 0.2 1.9 3.3 8.7 13.6l3.6 5.6 1.4-0.9c0.7-0.5 1.4-1 1.5-1.1 0.1-0.1-0.2-0.7-0.6-1.5-2.2-3.3-7.7-11.6-8.4-12.8l-0.9-1.3 2.8-1.7c1.6-1 2.8-1.9 2.8-2 0-0.1-0.5-1-1.1-1.9-0.6-0.9-1.2-1.7-1.2-1.7zm27.5 3c-0.1 0-0.8 0.4-1.6 0.9-0.8 0.6-5 3.3-9.3 6.2-7.6 4.9-7.9 5.1-7.6 5.6 0.2 0.3 0.7 1.1 1.1 1.8 0.5 0.7 0.9 1.3 1 1.3 0.2 0 2.3-1.3 4.8-2.9 2.5-1.6 4.6-3 4.7-3 0.1 0 0.7 0.9 1.4 2 0.7 1.1 1.3 1.9 1.4 1.9 0.1 0 0.9-0.4 1.7-0.9l1.4-1-1.4-2.1c-0.8-1.3-1.3-2.2-1.1-2.3 0.1 0 1.5-1 3.1-2 1.5-1 2.8-1.9 2.8-2 0-0.2-0.5-1-1.1-1.9-0.6-0.9-1.2-1.7-1.3-1.6zm328.6 17.5c-0.1 0-0.8 0.7-1.7 1.5l-1.5 1.6 6.7 6.5c3.6 3.6 6.7 6.5 6.9 6.5 0.1 0 0.9-0.6 1.7-1.5l1.5-1.5-2.7-2.5c-1.4-1.4-2.6-2.6-2.6-2.7 0-0.2 0.7-1 1.6-2l1.6-1.7-1.3-1.3c-0.7-0.6-1.3-1.2-1.3-1.2 0 0-0.8 0.8-1.8 1.8l-1.7 1.8-2.6-2.7c-1.5-1.4-2.7-2.6-2.8-2.6zm-311.3 4.9c-0.2 0-2.4 2.3-2.4 2.6 0 0.1 3.1 3.3 7 7.1l7 6.8-2 2.1c-1.1 1.1-2 2.1-2 2.3 0 0.1 0.7 0.9 1.5 1.6l1.6 1.4 3.4-3.4c1.8-1.9 3.3-3.5 3.2-3.6 0-0.1-3.9-3.9-8.6-8.6-4.8-4.5-8.7-8.3-8.7-8.3zm307 1c-0.1 0-1.4 1.2-2.9 2.7l-2.7 2.6-1.4-1.4-1.4-1.3-1.6 1.5-1.6 1.6 3 2.9-5.5 5.5 2.6 2.7 1.1-1c0.5-0.6 1.1-1 1.1-0.9 0.1 0 0.3 0.7 0.5 1.5 0.5 1.7 2.2 3.6 3.9 4.4 4.7 2.3 10.6-0.5 12.2-5.8 1.4-4.5-1.1-8.9-5.7-10.1l-1-0.3 1-1.1 1.1-1.1-1.2-1.2c-0.7-0.7-1.3-1.2-1.5-1.2zm-314.8 7.6l-2.1-2-2.6 2.7 4.4 4.3 4.5 4.3-2.9 2.9-3.6-3.4c-2-1.9-3.6-3.5-3.7-3.5-0.1 0-0.8 0.6-1.4 1.3l-1.2 1.2 7.2 7 7.2 7.1-0.9 0.9c-0.5 0.5-1.7 1.8-2.8 2.9-1.1 1.2-1.9 2.2-1.8 2.4 0.1 0.2 0.8 0.9 1.6 1.6l1.4 1.2 2.7-2.7c1.5-1.5 3.3-3.4 4.1-4.3l1.5-1.5-7.1-7.1 1.4-1.3c0.7-0.8 1.4-1.3 1.6-1.3 0.2 0 2.2 1.9 4.5 4.1 2.3 2.3 4.2 4.1 4.3 4.1 0.1 0 0.8-0.5 1.4-1.2l1.2-1.2-3.1-3.1c-1.8-1.7-5.6-5.4-8.5-8.2-2.8-2.8-6.1-6-7.3-7.2zm334.4 1.2c-0.2 0-3.8 3.6-8.2 8l-7.9 8.1 2.6 2.7 13-13.2 5.4 5.3 3.1-3.1-3.9-3.9c-2.1-2.2-4-3.9-4.1-3.9zm-48.7 15.9c-0.1 0-0.7 0.3-1.4 0.8-0.6 0.5-1.3 1-1.5 1.1-0.3 0.1 0.2 1.1 2.3 4.4 2.2 3.3 2.8 4.2 2.5 4.4-0.2 0.1-0.7 0.4-1.1 0.6-0.9 0.5-0.7 0.7-3.8-4.2-1.3-1.9-2.4-3.5-2.5-3.5-0.3 0-3.1 1.9-3.1 2.2 0 0.1 2.6 4.1 5.6 8.8 3.1 4.7 5.6 8.6 5.6 8.7 0 0.1-0.3 0.4-0.7 0.7-0.5 0.2-2.6 1.6-4.9 3.1-2.2 1.4-4 2.5-4.1 2.4-0.1-0.1-2.2-3.2-4.6-6.9l-4.4-6.7 3.4-2.2c1.8-1.2 3.6-2.3 3.8-2.4 0.4-0.3 0.3-0.4-0.5-1.8-0.6-0.8-1.1-1.5-1.2-1.5-0.1 0-2 1.2-4.1 2.6-6.2 4-7.1 4.6-7.1 4.8 0 0.1 3 4.6 6.5 10 4.1 6.3 6.6 9.9 6.8 9.8 0.2-0.1 3.1-2 6.6-4.3 3.4-2.3 6.4-4.2 6.6-4.2 0.1-0.1 1.1 1.2 2.2 2.9 1.1 1.7 2.1 3 2.2 3 0.5 0 3.1-2 3-2.3-0.2-0.4-4.4-7-7.5-11.6-2.7-4.1-2.7-3.7-1-4.7l0.7-0.4 2.3 3.5c6.3 9.7 7.8 11.9 8.2 11.8 0.7-0.3 3-1.9 2.9-2.1 0-0.1-4-6.2-8.8-13.5-4.8-7.4-8.8-13.4-8.9-13.3zm-244 6.5c-4.7 1.2-7.9 6-7 10.7 0.7 4 3.6 6.9 7.6 7.7 2.7 0.4 5.5-0.4 7.8-2.2l0.8-0.8 1.2 0.7c0.6 0.3 1.1 0.7 1.1 0.8 0 0.2-2.3 4.4-8.4 14.8-2.1 3.7-2.1 3.4 0.2 4.7l1.3 0.7 3-5.2c1.7-2.8 4.4-7.5 6-10.3 2.3-4 5.5-9.5 7.1-12.4 0.1-0.1-3.3-2.2-3.4-2.1 0 0.1-0.9 1.5-1.8 3.2-1 1.8-1.9 3.1-1.9 3.1-0.1 0-0.7-0.2-1.4-0.6-1-0.6-1.1-0.7-1-1.2 0.6-2.4 0.3-4.7-1-7-0.9-1.7-2.2-2.9-4.2-3.9-1.7-0.8-4.3-1.1-6-0.7zm23.2 10.5c-0.2 0-0.4 0.3-4.1 6.7-1.8 3.1-4.6 7.9-6.2 10.8-6.3 10.8-6.1 10.3-5.7 10.7 0.8 0.5 3.1 1.7 3.2 1.6 0-0.1 1.5-2.6 3.3-5.6 1.7-3 5.1-8.9 7.6-13.1 4.3-7.5 5.1-9 5.1-9.2 0-0.1-0.7-0.5-1.5-1-0.9-0.5-1.7-0.9-1.7-0.9zm177.4 7.9c-0.3 0-3.8 1.1-3.9 1.2-0.1 0.1 1.6 5 3.6 11.1 2 6 3.6 11 3.6 11.1 0 0.2-11.2 4-11.3 3.8-0.1 0-0.8-2.2-1.7-4.9-0.9-2.7-1.8-5-1.9-5.1-0.1-0.2-4.1 0.9-4.1 1.1 0 0 0.7 2.4 1.7 5.2 0.9 2.8 1.6 5.2 1.5 5.3-0.1 0.1-1.5 0.5-3 1-1.6 0.5-3 1-3 1.1-0.2 0.3 0.8 3.5 1 3.5 0.1 0 5.1-1.6 10.9-3.6 5.9-1.9 10.9-3.5 11-3.5 0.2 0 0.6 1 1 2.2 0.4 1.2 0.8 2.2 0.9 2.3 0.2 0.1 4.1-1.1 4.1-1.3 0-0.1-1.3-4.1-2.9-8.9l-2.9-8.7 2-0.7c1.1-0.3 2-0.7 2-0.7 0.2-0.1-1-3.5-1.1-3.5-0.1 0-1 0.3-2 0.6-1 0.3-1.9 0.6-2 0.6-0.1 0-0.8-2.1-1.7-4.6-0.8-2.6-1.6-4.7-1.8-4.6zm-157.4 3.3c-0.4 0.6-6.3 20.8-6.2 21 0.3 0.2 17.9 5.4 18 5.2 0.1-0.1 0.4-0.9 0.7-1.7l0.5-1.6-1.8-0.6c-0.9-0.3-4-1.2-6.8-2-2.9-0.8-5.2-1.6-5.2-1.6-0.1 0 4-14.4 4.8-16.8 0.1-0.4 0.2-0.7 0.2-0.8-0.3-0.2-4.1-1.2-4.2-1.1zm150.3-0.2c-0.2 0.1-16.6 5.6-17.4 5.9-0.3 0.1-0.1 0.8 0.8 3.3 0.1 0.2 2.2-0.4 6.7-1.9 3.6-1.2 6.6-2.2 6.8-2.2 0.1 0 1.4 3.6 2.9 8 1.4 4.3 2.7 7.9 2.8 7.9 0.5 0 3.9-1.3 3.9-1.5 0-0.2-1.4-4.7-3.2-9.9-1.7-5.3-3.3-9.6-3.3-9.6zm-128.9 5.5c-0.4-0.2-0.4-0.2-1.5 3.5-0.6 1.8-1 3.3-1.1 3.4-0.1 0.1-1.9-0.3-3.9-0.9-2-0.6-3.9-1.1-4.1-1.1-0.3 0-1.2 2.1-1.2 3 0 0.3 1.1 0.7 4 1.6 2.2 0.7 4.1 1.2 4.1 1.3 0 0.1-3.5 11.9-4.8 16.3-0.6 2-1 3.7-1 3.8 0.1 0.2 4 1.3 4.1 1.2 0.1-0.1 0.7-1.9 1.3-4 0.6-2.2 2.5-8.5 4.1-14.1 1.7-5.5 3.2-10.6 3.3-11.1 0.2-0.6 0.4-1.2 0.4-1.4 0.1-0.3-0.3-0.5-1.6-0.9-1-0.3-1.9-0.6-2.1-0.6zm92.8 5.8c-0.2 0-5.6 0.6-12.1 1.3-6.5 0.8-11.9 1.4-12 1.5-0.1 0.2 0.2 3.5 0.4 3.7 0 0 1.3-0.1 2.7-0.3 8.2-1 16.8-1.9 16.9-1.8 0.1 0.1 0.4 1.8 0.6 3.8 0.2 2 0.4 3.6 0.4 3.7 0.1 0.1 4.1-0.3 4.3-0.5 0.1-0.1-0.1-2.6-0.5-5.6-0.3-2.9-0.6-5.5-0.6-5.6 0-0.1 0-0.2-0.1-0.2zm-69.5 0.8c-0.5-0.1-0.9-0.1-1 0-0.1 0.2-0.1 1-0.2 1.9l-0.1 1.7 3.5 0.3c1.9 0.2 3.6 0.4 3.6 0.4 0.1 0.1-1.1 2.5-2.6 5.4-5.5 10.3-6.6 12.4-6.4 12.6 0.4 0.4 3.5 1.7 3.6 1.5 0-0.1 0.8-1.4 1.6-3.1 0.9-1.6 2.5-4.7 3.7-6.9l2.1-3.9 2.5 7.5c1.4 4.1 2.5 7.5 2.5 7.5 0.1 0.1 1-0.2 2-0.5 1.3-0.4 2-0.7 1.9-0.9 0-0.2-1.4-4.5-3.1-9.6-1.7-5.1-3-9.3-3-9.3 0.1 0 1.6 0.1 3.5 0.3 1.9 0.1 3.4 0.2 3.5 0.2 0 0 0.1-0.9 0.2-1.9 0.2-1.7 0.1-1.9-0.3-1.9-0.3 0-4.1-0.2-8.6-0.6-4.4-0.3-8.4-0.6-8.9-0.7zm22.8 0.9l-1.5-0.1-0.1 1c-0.1 0.6-0.3 4.1-0.6 7.8-0.3 3.7-0.8 10.5-1.2 15-0.3 4.9-0.5 8.3-0.4 8.4 0.1 0.2 1.1 0.3 2.2 0.4l2 0.1 0.2-2.2c0.2-3.5 2-26.5 2.2-28.5l0.1-1.7h-0.7c-0.4 0-1.4-0.1-2.2-0.2zm37.1 8.8c-0.1 0-1.1 0.1-2.2 0.2l-2 0.3 0.1 1.6c0.1 0.9 0.3 1.8 0.3 2.1 0.1 0.2 0 0.4-0.2 0.5-0.2 0.1-10.8 1.3-11.3 1.3-0.2 0 0.1 3.5 0.3 3.6 0.1 0.2 7.5-0.6 8.6-0.8l0.6-0.2-0.7 0.9c-0.3 0.4-0.9 1.3-1.3 2-0.6 1.1-0.7 1.5-0.7 3.8 0 2.5 0.1 2.6 0.9 4.1 2.9 5.5 9.9 6.5 14.2 2.1 3.2-3.3 3.5-8.3 0.6-11.7-0.5-0.7-1.3-1.5-1.7-1.7-0.3-0.3-0.6-0.5-0.6-0.5 0.1-0.1 2.1-0.3 4.6-0.6 2.5-0.3 4.5-0.6 4.5-0.6 0.1 0-0.4-3.4-0.4-3.5-0.1 0-3 0.3-6.5 0.6l-6.3 0.7-0.1-0.5c-0.1-0.3-0.2-1.2-0.3-2.1-0.1-0.9-0.3-1.6-0.4-1.6z"/><path class="b" d="m198.1 29.8c-3.2 0.6-5 3.2-4.7 7.2 0.4 5.7 3.5 9.2 7.5 8.8 2-0.2 3.4-1.1 4.3-3 0.7-1.2 0.7-1.6 0.7-3.5 0-6-3.5-10.2-7.8-9.5z"/><path class="b" d="m311.2 33.4c-0.6 0.3-1.2 0.8-1.6 1.1-0.6 0.6-2.1 2.8-2 3 0.1 0 2.1 0.6 4.5 1.3 2.5 0.7 4.7 1.4 5.1 1.5 0.9 0.3 1-0.1 1-2.2 0-1.3-0.1-1.8-0.6-2.7-1.3-2.1-4.2-3-6.4-2z"/><path class="b" d="m156.4 44.1c-1.4 0.5-2.1 1.1-2.8 2.3-0.5 0.9-0.6 1.4-0.6 3.1 0 1.2 0.1 2.1 0.2 2.3 0.3 0.2 1.1-0.1 4-1.4 6-2.8 5.9-2.7 5.6-3.3-0.5-1-2.1-2.5-3-2.9-1.2-0.6-2.1-0.6-3.4-0.1z"/><path class="b" d="m353 50.4q-2.7 0.9-4.8 4.8c-1.9 3.4-2 6.8-0.2 8.7 1.4 1.6 4.5 2.2 6.3 1.3 1-0.5 1.2-0.9 3.4-4.9 2.3-4.2 2.4-4.5 2.3-5.5-0.4-2-1.8-3.7-4-4.5-1.1-0.3-1.9-0.3-3 0.1z"/><path class="b" d="m350 226c-7.3 1.2-13.7 5.8-17.2 12.4-3.9 7.2-3.9 16 0 23.2 2.5 4.7 6.3 8.3 11.3 10.6 3.6 1.7 5.3 2 10.1 2 3.6 0 4.6 0 6.2-0.5 4.2-1.1 7.9-3.2 11-6.1 0.9-0.9 1.6-1.6 1.6-1.7 0-0.1-1.4-1.6-3.1-3.4l-3.1-3.2-1.8 1.4c-2.3 1.9-3.8 2.8-5.9 3.4-5.4 1.7-10.7 0.4-14.3-3.5-2.9-3.1-4.1-6.2-4.1-10.8 0-2.5 0.1-3.1 0.7-4.8 1.9-5.4 5.9-8.9 11-9.6 4.5-0.7 8.8 0.7 12.9 4.1l1.1 1 2.9-3.3c1.6-1.8 2.9-3.4 3-3.6 0.1-0.4-0.6-1.1-2.8-2.7-5.8-4.3-12.7-6.1-19.5-4.9z"/><path class="b" d="m78.6 250v23.2h5.1 5.2v-7.2-7.1l2.7-2.7c1.6-1.6 2.7-2.6 2.8-2.4 0.2 0.1 1.4 1.8 2.8 3.8 6.8 9.4 10.6 14.5 11 15 0.5 0.6 0.6 0.6 6.5 0.6 3.2 0 5.9-0.1 5.9-0.2 0-0.1-4.3-6.1-11.5-15.7-2-2.7-4.7-6.3-5.9-7.9l-2.1-2.9 2.1-2.2c1.2-1.3 4.8-5 8-8.3 3.2-3.4 6.5-6.8 7.3-7.7l1.5-1.5h-6.2-6.1l-9.2 9.5c-5.1 5.3-9.3 9.5-9.4 9.5-0.2 0-0.2-4.2-0.2-9.5v-9.5h-5.2-5.1z"/><path class="b" d="m187.3 250v23.2l5-0.1h5.1l0.1-14.6 0.1-14.5 4.1 5.4c2.3 2.9 7.2 9.5 11 14.5l7 9.2h4.3l4.3 0.1v-23.2-23.2h-5-5v14.2c0 7.8-0.1 14.1-0.2 14-0.2 0-5-6.4-10.8-14.1l-10.6-14.1h-4.7-4.7z"/><path class="b" d="m233.9 231.5l0.1 4.7 7.9 0.1h8l0.1 18.5v18.4l5.1-0.1h5l0.2-18.4 0.1-18.4h7.8l7.8-0.1 0.1-4.7v-4.7h-21.1-21.1z"/><path class="b" d="m285.9 231.6v4.7h21.1l21-0.1 0.1-4.7v-4.7h-21.1-21.1z"/><path class="b" d="m379.4 250v23.2h5.1 5.1v-9.3-9.3h10.8 10.7v9.3 9.3h5.2 5.1v-23.2-23.2h-5.1-5.2v9.2 9.1h-10.7-10.8v-9.1-9.2h-5.1-5.1z"/><path class="c" d="m132.3 250v4.6h21 21v-4.6-4.6h-21-21z"/><path class="d" d="m140.3 231v4.6h21 21v-4.6-4.6h-21-21z"/><path class="d" d="m272.3 268v4.6h21 21v-4.6-4.6h-21-21z"/><path class="c" d="m278.8 250v4.6h21 21v-4.6-4.6h-21-21z"/><path class="b" d="m125.1 264c-0.1 0.2-0.1 2.3-0.1 4.7l0.1 4.4h21.1l21 0.1v-4.7l-0.1-4.7-20.9-0.1c-17 0-21 0-21.1 0.3z"/><path class="b" d="m210 294.2c-4.1 0.7-7.6 4.2-8 8.2l-0.2 1.3h3 2.9l0.2-1.1c0.5-3.9 5.5-5.2 7.4-2 0.7 1 0.7 3.3 0.1 4.7-0.7 1.4-2.9 4.1-6.4 7.8-1.7 1.7-3.9 4-4.8 5.1l-1.8 1.9v2.1 2h10.2l10.2-0.1v-2.3-2.3l-6.3-0.2-6.3-0.1 3.7-3.9c5.6-5.8 7.2-8.3 7.8-11.4 0.3-1.7 0-4.1-0.8-5.5-1.1-2.2-3.5-3.8-6.4-4.2-2-0.3-2.7-0.3-4.5 0z"/><path fill-rule="evenodd" class="b" d="m242.9 294.7c1.7 0.7 3.6 2.5 4.5 4.4 1.1 2.4 1.4 4.2 1.4 10.3 0 4.6-0.1 5.7-0.5 7.3-0.9 3.6-2.5 5.8-5.1 7-1.3 0.6-1.6 0.6-4.3 0.6-2.8 0-3 0-4.6-0.8-2.9-1.4-4.5-3.9-5.2-8.1-0.3-1.8-0.4-3.3-0.3-7.3 0.2-5.4 0.4-6.7 1.4-8.9 1.3-2.7 3.6-4.5 6.4-5 1.8-0.3 4.7-0.1 6.3 0.5zm-6 4.6c-1.9 1.1-2.4 3.8-2.2 11.1 0.1 6 0.4 7.2 1.8 8.4 2 1.8 4.8 1 5.9-1.6 0.3-1 0.4-2 0.4-8v-6.8l-0.7-1.4c-0.5-1-0.9-1.5-1.5-1.8-1.1-0.5-2.8-0.5-3.7 0.1z"/><path class="b" d="m262.9 294.2c-4.4 0.8-7.5 4-8.1 8.5l-0.2 1h3.1 3l0.1-1.1c0.3-2.3 1.9-3.8 4.3-3.8 3.2 0 4.7 3.4 3 6.8-0.9 1.7-1.4 2.3-7.8 9.1l-4.9 5.3v2.1 2.1h10.1 10.1v-2.4-2.5h-6.2l-6.3-0.1 3.1-3.3c6-6.3 7.4-8.1 8.1-10.8 1.3-4.8-0.7-9.1-4.8-10.4-1.8-0.6-4.9-0.8-6.6-0.5z"/><path class="b" d="m286.7 296.6l-5.8 2.2-0.1 2.3c0 1.3 0 2.4 0.2 2.4 0.1 0 1.6-0.5 3.3-1 1.6-0.5 3.1-1 3.3-1 0.2 0 0.2 3.2 0.2 11.4v11.3h2.9l2.9-0.1 0.1-14.8v-14.9l-0.5 0.1c-0.4 0-3.2 0.9-6.5 2.1z"/><path class="b" d="m421.1 108.6c-0.7 0.3-1.3 0.5-1.3 0.5-0.1 0-0.1 0.2-0.1 0.3 0 0.3 6 7.9 6.4 8.2 0.4 0.2 1.6-1.2 2.3-2.5 0.7-1.5 0.7-2.6 0.1-3.9-1.3-2.7-4.2-3.7-7.4-2.6z"/><path class="b" d="m37.2 203.5c-0.3 1.1-0.8 4.3-0.8 5.6 0 2.2 0.6 3.4 2.1 4.1 2.8 1.2 5.2-0.8 5.2-4.3 0-1.6-0.7-3.6-1.7-4.4-0.6-0.6-4.6-1.4-4.8-1z"/><path class="b" d="m463.5 207.6c-3 0.7-4.6 1.7-5.8 3.5-0.5 1-0.7 1.4-0.7 2.7 0 3.8 2.5 5.9 6.8 5.9q5.3 0 8-2.9c1.8-2.1 2-4.8 0.4-7-1.5-2.1-5.2-3-8.7-2.2z"/><path class="b" d="m27.8 227.7c-3.5 1-4.5 5.5-2 8.2 0.7 0.7 3.3 2.1 3.9 2.1 0.2 0 0.4-0.2 0.4-0.5 0.2-0.7 0.7-8 0.7-9.3 0-0.9-0.1-0.9-0.9-0.9-0.6 0-1.5 0.2-2.1 0.4z"/><path class="b" d="m465.3 248.9c-1.8 0.4-2.5 0.7-3.5 1.6-1.9 1.7-2.4 4.4-1.2 6.8 1.1 2.2 3.8 3.5 7.7 3.5 3 0 4.6-0.5 6.2-2.1 1.1-1.1 1.3-1.5 1.6-2.6 0.8-3.7-1.7-6.7-6.3-7.3-2.1-0.3-2.8-0.3-4.5 0.1z"/><path class="b" d="m32.2 270.3q-4.6 0.7-6.2 3.6c-1.4 2.3-0.7 5.6 1.7 7.3 2.7 1.8 8 1.6 11.2-0.5 3.6-2.4 3.5-7.8-0.3-9.7-1.7-0.8-4.1-1.1-6.4-0.7z"/><path class="b" d="m462.9 274.9c-2.9 0.5-4.5 2-4.9 4.6-0.3 1.9 0.6 4.3 2 5.1 0.3 0.2 2.7 0.7 5.4 1l4.9 0.8 1.1-0.7c2.7-1.6 3.5-5.5 1.5-7.9-1.7-2.1-6.7-3.5-10-2.9z"/><path class="b" d="m61.4 355.8c-1.4 0.6-2.8 2.7-2.8 4.2 0 1.5 1.5 3.6 2.9 4.2 2.1 0.9 4.7-0.1 5.8-2.3 0.5-0.8 0.5-2.9 0.1-3.7-1.2-2.3-3.8-3.3-6-2.4z"/><path class="b" d="m400.3 398.1c-2 0.7-3.3 3-3 5 0.4 2.1 2.3 3.6 4.6 3.6 2.2 0 4-1.5 4.5-3.8 0.4-1.9-1.2-4.4-3.2-4.9-1.2-0.4-1.7-0.3-2.9 0.1z"/><path class="b" d="m130 424.8c-1.2 0.5-2.7 2.1-3 3.3-0.2 0.5-0.3 1.6-0.2 2.3 0 1.2 0.2 1.7 0.8 2.4 1.9 2.4 5 2.6 7.2 0.6 1.3-1.1 1.9-2.5 1.9-4.1 0-1.6-0.3-2.4-1.3-3.5-1.4-1.5-3.5-1.9-5.4-1z"/><path class="b" d="m275.8 474.4c-2 1.1-3.1 3.5-2.6 5.5 0.6 2.5 2.3 4 4.5 4 1.2 0 2.6-0.6 3.4-1.4 1.1-1.2 1.5-3.9 0.8-5.5-0.4-0.9-1.6-2.1-2.5-2.6-0.7-0.4-3-0.4-3.6 0z"/></svg>