<?xml version="1.0" standalone="no"?>
<!DOCTYPE svg PUBLIC "-//W3C//DTD SVG 20010904//EN"
 "http://www.w3.org/TR/2001/REC-SVG-20010904/DTD/svg10.dtd">
<svg version="1.0" xmlns="http://www.w3.org/2000/svg"
 width="1200.000000pt" height="1200.000000pt" viewBox="0 0 1200.000000 1200.000000"
 preserveAspectRatio="xMidYMid meet">

<g transform="translate(0.000000,1200.000000) scale(0.100000,-0.100000)"
fill="#000000" stroke="none">
<path d="M5655 11989 c-1248 -74 -2429 -526 -3395 -1298 -913 -731 -1590
-1701 -1956 -2806 -552 -1666 -342 -3509 569 -5000 874 -1431 2287 -2425 3927
-2764 393 -81 747 -115 1200 -115 370 0 547 12 880 60 898 129 1774 476 2531
1001 619 428 1139 954 1565 1583 1035 1526 1303 3475 720 5235 -450 1358
-1373 2513 -2599 3254 -1028 621 -2244 921 -3442 850z m905 -103 c847 -86
1603 -322 2330 -728 847 -474 1592 -1182 2112 -2008 497 -788 784 -1634 885
-2600 24 -233 24 -867 0 -1100 -105 -1006 -412 -1880 -944 -2690 -247 -374
-478 -655 -804 -975 -304 -298 -557 -503 -900 -727 -819 -537 -1681 -839
-2693 -945 -227 -24 -865 -24 -1092 0 -1245 130 -2306 573 -3254 1360 -163
135 -472 436 -623 607 -768 868 -1263 1931 -1426 3065 -46 314 -55 455 -55
850 -1 489 27 774 115 1205 357 1738 1495 3236 3084 4056 743 384 1506 591
2380 648 139 9 737 -4 885 -18z"/>
<path d="M5720 11692 c0 -44 -42 -52 -145 -27 -261 63 -513 -104 -557 -369
-29 -176 64 -363 216 -435 177 -85 402 -52 530 77 43 44 47 53 41 81 l-7 31
-33 -40 c-42 -50 -80 -82 -125 -105 -39 -20 -149 -31 -205 -21 -44 9 -118 73
-146 129 -55 107 -76 315 -44 425 47 156 209 234 350 168 59 -27 116 -83 141
-137 32 -72 41 -49 27 74 -6 61 -12 124 -13 140 0 30 -30 39 -30 9z"/>
<path d="M6239 11666 c-153 -59 -246 -165 -278 -314 -33 -157 14 -309 129
-416 92 -84 236 -124 379 -105 221 31 376 231 358 464 -12 167 -114 305 -267
361 -61 23 -271 29 -321 10z m244 -40 c47 -20 85 -65 107 -129 36 -103 23
-369 -25 -482 -41 -100 -118 -152 -207 -142 -129 16 -188 121 -188 335 0 165
43 323 102 379 56 52 143 68 211 39z"/>
<path d="M4618 11522 c-109 -26 -198 -50 -198 -54 0 -4 22 -8 50 -8 41 0 52
-4 65 -24 8 -13 49 -171 91 -351 l76 -328 -20 -26 c-10 -14 -33 -30 -51 -35
-35 -10 -43 -31 -8 -23 12 3 106 24 210 48 103 23 187 47 187 52 0 5 -17 6
-39 2 -32 -5 -43 -2 -64 17 -23 20 -35 62 -103 356 l-77 333 20 27 c11 15 34
31 52 36 30 9 44 27 19 25 -7 0 -102 -21 -210 -47z"/>
<path d="M7340 11531 c0 -5 13 -14 29 -19 16 -6 37 -22 47 -37 17 -25 15 -32
-87 -347 -57 -177 -112 -332 -123 -346 -17 -22 -25 -24 -68 -19 -26 3 -48 3
-48 -2 0 -4 96 -39 213 -77 195 -63 220 -69 312 -72 127 -5 190 16 270 89 170
156 192 434 46 592 -58 63 -134 99 -369 178 -219 73 -222 74 -222 60z m368
-162 c84 -42 114 -91 120 -198 10 -179 -96 -424 -208 -481 -65 -33 -190 -19
-206 24 -8 20 208 686 222 686 6 0 39 -14 72 -31z"/>
<path d="M4133 11392 c-61 -26 -115 -50 -118 -54 -4 -4 19 -6 50 -5 53 2 60 0
79 -26 23 -30 169 -378 161 -385 -2 -2 -128 66 -280 152 -152 86 -279 156
-284 156 -4 0 -63 -23 -131 -50 -135 -54 -170 -76 -108 -67 26 4 49 -1 79 -16
l43 -22 119 -298 c87 -218 117 -304 113 -323 -7 -26 -32 -55 -62 -72 -10 -6
-16 -13 -13 -17 8 -7 269 96 269 106 0 4 -24 5 -52 2 -47 -5 -56 -2 -78 20
-23 23 -238 533 -229 541 2 2 177 -93 388 -210 212 -118 388 -211 392 -207 4
5 -55 163 -132 353 -76 189 -139 357 -139 371 0 18 11 37 35 58 64 56 46 54
-102 -7z"/>
<path d="M8250 11213 c1 -4 15 -17 33 -28 64 -41 64 -42 -91 -375 -78 -167
-149 -311 -158 -322 -19 -20 -59 -23 -99 -8 -19 7 -26 7 -23 -1 5 -14 380
-190 388 -182 3 3 -4 10 -14 17 -47 27 -68 56 -61 84 3 15 68 159 143 321 155
333 164 345 232 318 28 -11 40 -12 40 -4 0 7 -84 50 -185 97 -209 96 -205 95
-205 83z"/>
<path d="M3279 11015 c-1 -6 0 -22 1 -36 2 -36 -16 -47 -109 -69 -45 -11 -104
-32 -133 -46 -74 -38 -158 -126 -199 -209 -33 -68 -34 -73 -34 -190 0 -114 2
-123 32 -188 62 -131 195 -229 329 -243 203 -21 436 131 485 317 11 42 11 50
-6 75 l-19 29 -12 -58 c-18 -76 -44 -124 -96 -174 -113 -110 -245 -110 -364
-1 -96 88 -172 220 -194 334 -22 114 32 228 131 278 96 47 213 32 297 -39 60
-50 53 -14 -17 98 -70 111 -90 138 -92 122z"/>
<path d="M9198 10578 c-64 -81 -79 -116 -35 -83 40 29 92 48 133 48 32 0 54
-9 97 -39 31 -21 56 -42 54 -46 -3 -9 -395 -494 -429 -530 -31 -34 -74 -37
-111 -8 -14 11 -28 17 -31 12 -6 -11 322 -277 331 -268 4 3 -6 19 -20 34 -36
38 -34 73 6 125 94 123 410 507 416 507 4 0 31 -22 59 -49 63 -61 74 -108 44
-189 -12 -31 -16 -54 -10 -58 5 -3 10 -4 12 -3 1 2 31 39 66 83 45 55 61 82
54 92 -12 17 -554 454 -563 454 -4 0 -37 -37 -73 -82z"/>
<path d="M6092 10590 c-70 -43 -77 -136 -16 -190 68 -59 169 -29 195 59 21 71
-40 151 -116 151 -16 0 -45 -9 -63 -20z"/>
<path d="M6453 10578 c-70 -18 -105 -107 -68 -177 15 -30 69 -61 105 -61 34 0
79 28 100 63 58 95 -27 203 -137 175z"/>
<path d="M6774 10526 c-95 -42 -100 -177 -8 -221 40 -19 56 -19 99 -1 40 17
75 68 75 111 0 43 -35 94 -75 111 -42 17 -51 17 -91 0z"/>
<path d="M5675 10479 c-44 -22 -94 -51 -110 -64 -17 -12 -108 -72 -202 -133
-209 -134 -309 -209 -397 -299 -127 -128 -204 -273 -248 -467 -30 -131 -29
-351 1 -496 63 -299 206 -593 482 -992 138 -200 136 -193 148 -454 5 -100 11
-187 15 -193 13 -21 71 -12 119 19 59 37 119 128 150 225 19 60 22 92 21 215
-1 152 -10 212 -59 370 -39 125 -50 199 -33 216 11 10 25 7 85 -21 59 -27 73
-38 79 -62 3 -15 12 -42 20 -60 8 -17 14 -59 14 -92 0 -70 19 -124 49 -143 20
-12 21 -21 21 -194 0 -204 2 -198 -88 -243 -61 -31 -82 -55 -82 -95 0 -29 8
-42 51 -79 64 -56 198 -127 314 -166 170 -57 336 -60 471 -10 107 40 134 64
134 119 0 44 -20 73 -60 90 -46 19 -62 60 -70 180 -11 140 -3 153 101 165 76
9 118 24 129 45 6 10 10 48 10 84 0 53 4 69 24 93 13 15 26 42 30 59 8 37 35
64 93 93 60 30 73 54 62 116 -19 108 -39 256 -39 287 0 18 8 48 18 67 16 33
19 34 84 37 68 2 133 25 188 64 17 12 30 26 30 31 0 6 -40 51 -89 102 -92 96
-111 122 -111 156 0 12 -103 136 -261 313 -144 161 -279 317 -300 346 -47 63
-91 92 -210 139 -49 20 -113 50 -141 67 -85 51 -101 84 -148 301 -59 270 -56
263 -93 285 -52 32 -110 26 -202 -21z m140 -95 c34 -22 54 -82 69 -214 8 -63
19 -128 25 -144 6 -16 10 -30 8 -32 -1 -2 -45 -17 -97 -34 -319 -106 -536
-274 -654 -507 -83 -164 -74 -391 23 -599 39 -83 114 -205 157 -257 15 -17 24
-41 24 -62 0 -48 22 -102 85 -211 31 -53 64 -122 75 -153 46 -138 52 -391 11
-506 -27 -75 -80 -155 -103 -155 -16 0 -18 11 -18 93 0 202 -75 380 -286 682
-225 323 -268 408 -316 630 -39 185 -50 449 -23 590 32 171 100 298 240 444
160 167 338 287 605 407 104 47 138 52 175 28z m270 -529 c87 -18 216 -81 278
-135 25 -22 119 -123 209 -223 90 -100 205 -226 256 -281 50 -54 92 -103 92
-107 0 -29 -104 34 -120 73 -7 14 -22 36 -35 48 -45 42 -105 5 -105 -65 0 -27
57 -64 226 -147 149 -74 244 -151 244 -198 0 -59 -160 -67 -300 -15 -69 25
-83 27 -190 23 -97 -4 -125 -9 -180 -32 -36 -15 -77 -32 -91 -38 -52 -22 -132
25 -144 85 -11 51 -46 107 -67 107 -11 0 -45 -12 -76 -27 -44 -20 -91 -61
-212 -182 -85 -86 -174 -166 -196 -178 l-42 -23 -60 41 c-78 51 -182 163 -234
251 -22 38 -54 108 -71 156 -27 76 -31 101 -31 197 -1 109 -1 111 41 198 53
109 90 165 167 246 109 114 209 169 406 220 91 24 143 25 235 6z m33 -1035
c40 -25 65 -79 83 -177 22 -130 -6 -175 -190 -307 -64 -47 -123 -92 -130 -100
-35 -42 -61 -2 -80 121 -16 97 -4 144 58 240 35 55 206 243 220 243 3 0 21 -9
39 -20z m698 -106 l51 -24 7 -192 c4 -106 9 -209 9 -228 2 -33 1 -34 -43 -42
-41 -7 -72 -29 -82 -60 -2 -6 -24 -11 -48 -12 -24 -1 -45 -5 -47 -11 -1 -5 13
-21 33 -34 28 -20 32 -26 20 -33 -21 -12 -37 -75 -30 -119 5 -31 2 -42 -19
-63 -30 -30 -54 -32 -143 -10 -49 13 -71 14 -89 6 -23 -11 -23 -12 -9 -58 8
-26 14 -90 14 -143 1 -151 25 -222 92 -267 38 -25 36 -55 -6 -92 -43 -37 -107
-52 -230 -52 -115 0 -219 25 -327 79 -109 55 -132 73 -160 126 l-24 46 37 32
c75 66 86 102 98 307 13 234 17 242 190 380 177 141 219 196 244 321 5 22 22
33 103 70 54 24 112 56 128 71 49 42 144 43 231 2z"/>
<path d="M6534 9380 c-15 -6 -25 -24 -34 -61 -24 -97 -10 -176 28 -162 28 10
95 59 126 91 l29 31 -19 32 c-33 55 -89 85 -130 69z"/>
<path d="M6650 8635 c-41 -19 -80 -35 -87 -35 -51 -1 32 -58 139 -96 l39 -13
21 44 c25 50 20 64 -17 47 -35 -16 -95 -15 -95 1 0 19 85 57 128 57 35 1 36 2
18 15 -30 23 -64 18 -146 -20z"/>
<path d="M4969 10487 c-99 -67 -58 -217 61 -219 129 -2 172 179 53 228 -46 20
-75 17 -114 -9z"/>
<path d="M7079 10445 c-29 -16 -59 -70 -59 -108 0 -31 38 -88 70 -104 33 -17
75 -16 110 2 43 22 60 53 60 108 0 42 -5 54 -34 83 -28 28 -41 34 -77 34 -24
-1 -56 -7 -70 -15z"/>
<path d="M2213 10227 c-133 -117 -248 -218 -255 -225 -22 -22 1 -25 28 -3 27
21 69 27 90 13 11 -7 354 -397 420 -478 41 -49 43 -82 8 -124 -66 -78 5 -25
242 181 141 123 261 231 267 239 7 12 -8 42 -61 123 -70 109 -95 125 -67 47
21 -59 19 -146 -5 -198 -22 -49 -132 -160 -168 -169 -28 -7 -50 13 -165 146
l-81 94 29 23 c47 37 110 33 175 -11 50 -33 70 -42 70 -29 0 12 -273 319 -286
322 -19 5 -18 3 16 -59 42 -76 41 -127 -3 -175 l-33 -36 -111 128 -111 129 36
32 c21 18 61 49 91 70 49 35 59 38 120 38 56 0 72 -4 106 -27 43 -30 55 -34
55 -17 0 14 -140 173 -154 176 -6 1 -120 -93 -253 -210z"/>
<path d="M4642 10404 c-76 -53 -66 -166 18 -209 37 -19 64 -19 104 0 41 20 66
63 66 115 0 34 -6 48 -34 76 -29 29 -41 34 -83 34 -28 0 -58 -7 -71 -16z"/>
<path d="M7413 10355 c-39 -17 -73 -68 -73 -110 0 -43 35 -94 75 -111 43 -18
59 -18 99 1 93 44 87 181 -10 221 -41 17 -50 17 -91 -1z"/>
<path d="M4340 10302 c-73 -36 -89 -132 -30 -190 39 -39 81 -47 134 -23 97 43
97 176 0 217 -44 18 -62 18 -104 -4z"/>
<path d="M7730 10237 c-41 -14 -80 -68 -80 -111 0 -44 34 -95 75 -112 44 -18
59 -18 101 2 66 32 86 126 39 183 -23 27 -38 35 -85 46 -8 2 -31 -2 -50 -8z"/>
<path d="M4034 10174 c-65 -32 -86 -127 -39 -183 35 -41 81 -55 131 -39 45 15
84 66 84 112 0 44 -34 95 -75 112 -43 18 -62 17 -101 -2z"/>
<path d="M7996 10069 c-81 -71 -42 -194 66 -206 118 -13 178 134 87 211 -45
38 -107 36 -153 -5z"/>
<path d="M3763 10030 c-40 -9 -60 -24 -79 -61 -29 -58 -12 -118 45 -156 81
-55 181 4 181 106 0 73 -72 127 -147 111z"/>
<path d="M9782 9932 c-114 -41 -209 -127 -265 -242 -30 -60 -32 -72 -32 -170
0 -97 2 -110 31 -170 34 -73 95 -148 160 -197 168 -128 407 -104 564 58 136
140 158 346 55 509 -45 72 -144 163 -210 195 -80 38 -221 46 -303 17z m368
-124 c135 -69 144 -207 24 -353 -144 -173 -348 -288 -456 -256 -87 26 -147
118 -134 204 20 133 236 349 410 409 68 23 103 22 156 -4z"/>
<path d="M8310 9922 c-73 -36 -89 -132 -30 -190 37 -38 80 -46 130 -26 96 39
99 181 3 220 -43 18 -61 18 -103 -4z"/>
<path d="M3443 9841 c-40 -25 -54 -51 -55 -103 -2 -126 174 -164 228 -50 50
106 -74 215 -173 153z"/>
<path d="M1587 9570 c-125 -154 -227 -284 -227 -288 0 -7 95 -88 151 -130 30
-21 29 2 -1 46 -54 81 -46 154 25 235 l26 29 42 -34 c23 -19 141 -114 262
-212 121 -98 228 -187 238 -198 23 -27 22 -63 -3 -98 -30 -43 -9 -44 26 -2
146 177 235 294 230 299 -3 4 -19 -6 -34 -20 -54 -51 -62 -47 -359 194 -150
121 -273 224 -273 228 0 5 21 31 48 59 60 64 101 74 185 45 32 -11 60 -17 63
-12 5 9 -139 132 -160 137 -7 2 -115 -123 -239 -278z"/>
<path d="M8578 9734 c-54 -29 -74 -109 -42 -164 63 -105 224 -62 224 60 0 92
-99 149 -182 104z"/>
<path d="M3203 9663 c-13 -2 -36 -17 -52 -33 -49 -50 -49 -120 0 -170 95 -94
247 9 196 133 -23 53 -82 82 -144 70z"/>
<path d="M8875 9543 c-39 -10 -75 -44 -86 -83 -15 -48 -6 -85 30 -121 77 -77
203 -22 203 88 0 72 -78 134 -147 116z"/>
<path d="M2918 9434 c-52 -27 -74 -109 -44 -162 44 -80 170 -81 211 -2 57 110
-58 223 -167 164z"/>
<path d="M10550 9390 c1 -8 7 -26 15 -40 24 -41 18 -66 -22 -98 -108 -84 -549
-372 -571 -372 -14 0 -36 13 -53 31 -64 69 -37 11 71 -148 134 -198 119 -178
126 -170 4 3 -1 22 -10 41 -30 63 -27 66 139 181 l110 76 18 -22 c9 -12 17
-29 17 -38 -1 -51 -43 -208 -78 -286 -65 -149 -65 -153 13 -274 44 -70 75 -89
54 -35 -8 23 -3 36 36 97 52 81 80 162 90 260 4 37 10 66 14 64 110 -60 190
-67 264 -24 26 16 60 47 75 69 23 35 27 52 27 112 0 58 -5 82 -29 130 -27 55
-262 414 -292 446 -12 13 -14 13 -14 0z m212 -387 c24 -55 18 -99 -20 -144
-73 -87 -181 -115 -248 -64 -43 33 -99 114 -87 126 5 5 72 51 148 103 l140 94
23 -35 c13 -19 33 -55 44 -80z"/>
<path d="M9088 9304 c-77 -41 -75 -169 2 -209 60 -31 137 -10 165 45 57 110
-58 223 -167 164z"/>
<path d="M2695 9210 c-34 -13 -65 -55 -72 -93 -12 -78 41 -137 122 -137 40 0
52 5 81 34 28 28 34 42 34 75 0 56 -22 95 -64 115 -37 17 -69 20 -101 6z"/>
<path d="M1272 9148 c-26 -34 -212 -339 -212 -350 0 -7 15 5 34 25 21 24 43
37 59 37 24 0 548 -319 595 -363 26 -24 28 -56 7 -97 -8 -16 -11 -31 -6 -34
10 -7 235 354 226 362 -3 4 -17 -8 -31 -26 -44 -56 -59 -50 -352 132 -144 91
-276 174 -292 186 -34 25 -40 63 -15 110 15 30 7 41 -13 18z"/>
<path d="M9322 9064 c-41 -21 -62 -60 -62 -115 0 -33 6 -47 34 -75 33 -33 51
-39 106 -34 61 4 106 66 97 133 -11 82 -101 129 -175 91z"/>
<path d="M2990 8962 c0 -38 12 -145 26 -238 14 -93 27 -192 28 -220 1 -28 6
-58 12 -65 7 -8 15 -36 19 -63 12 -86 93 -251 158 -323 31 -35 57 -68 57 -73
0 -17 -51 -11 -127 15 -52 18 -84 24 -108 19 -19 -3 -35 -10 -35 -14 0 -12
134 -195 205 -280 86 -103 237 -247 313 -299 134 -91 263 -137 412 -148 113
-9 75 -19 -120 -33 -80 -6 -163 -13 -185 -16 l-40 -7 48 -43 c67 -61 180 -129
282 -171 102 -41 287 -90 380 -99 36 -4 65 -10 65 -13 0 -4 -18 -18 -40 -31
-22 -14 -38 -29 -36 -35 6 -23 106 -87 176 -114 95 -37 212 -58 413 -73 184
-14 190 -18 102 -82 l-20 -15 20 -15 c33 -26 119 -66 176 -83 37 -10 119 -17
254 -20 195 -5 203 -5 300 22 106 29 151 29 220 2 23 -9 70 -16 110 -16 62 0
74 3 109 29 51 38 80 38 174 -4 72 -31 83 -33 177 -31 98 2 99 2 126 34 l27
33 33 -18 c20 -10 65 -19 112 -22 l78 -5 39 42 c38 40 58 94 46 126 -7 20 39
20 89 -1 32 -13 40 -13 59 -1 14 10 38 13 73 10 45 -5 58 -1 117 32 52 29 84
39 141 46 78 8 116 24 230 95 84 51 143 74 196 74 33 0 47 7 88 48 33 31 55
64 67 99 13 37 24 53 39 55 17 3 20 10 19 57 l-2 53 32 -7 c84 -18 90 -17 156
17 l65 33 0 59 c1 70 14 84 109 116 62 20 92 43 115 87 16 32 15 36 -29 83
l-39 42 35 46 c23 31 34 55 32 72 -6 61 64 114 197 151 97 26 127 41 154 75
22 28 28 78 11 89 -16 10 -12 40 8 58 10 9 38 19 62 23 49 7 70 19 70 39 0 10
-8 10 -37 -1 -21 -7 -47 -13 -58 -14 -11 0 -35 -9 -53 -20 -33 -20 -34 -23
-30 -77 3 -56 3 -57 -40 -90 -46 -34 -172 -79 -197 -69 -28 10 -17 52 24 89
21 19 48 38 60 42 20 6 20 8 6 36 -14 26 -14 32 -1 57 15 29 78 91 111 110 17
9 17 12 -9 34 -40 34 -28 68 50 141 88 84 111 154 30 92 -41 -31 -71 -32 -81
-2 -5 16 -10 5 -19 -48 -22 -117 -75 -195 -84 -124 -7 51 -20 38 -27 -27 -10
-86 -48 -163 -92 -184 -25 -12 -31 -20 -27 -37 3 -11 0 -31 -6 -43 l-12 -22
-30 28 c-55 53 -120 213 -97 241 17 20 32 16 64 -17 16 -16 35 -30 42 -30 17
0 53 58 53 86 0 12 -25 59 -55 104 -42 63 -55 92 -55 119 0 64 38 78 107 41
52 -28 70 -25 93 13 28 45 25 74 -15 171 -19 47 -35 94 -35 106 0 33 48 90 77
90 38 0 63 -17 128 -86 85 -89 113 -86 130 17 3 20 14 44 24 53 18 16 21 16
55 -15 67 -59 79 -103 50 -198 -18 -63 -13 -93 22 -124 38 -32 48 -65 29 -93
-8 -13 -48 -46 -89 -73 -136 -92 -149 -144 -37 -149 52 -3 64 -7 77 -27 22
-33 34 -31 34 3 0 35 -25 60 -68 68 -28 6 -30 9 -20 22 7 8 36 30 63 48 28 17
60 43 73 57 48 51 37 174 -19 205 -33 19 -35 37 -18 125 11 54 11 59 -16 99
-38 58 -65 87 -98 105 -26 13 -31 13 -49 -4 -11 -10 -29 -35 -40 -56 -10 -21
-25 -40 -33 -43 -8 -4 -36 13 -66 39 -57 50 -102 63 -162 46 -74 -20 -98 -114
-57 -229 11 -30 19 -63 20 -73 0 -21 -37 -37 -88 -37 -20 0 -52 -9 -69 -20
-31 -18 -33 -23 -33 -75 0 -62 15 -98 67 -163 34 -42 38 -72 9 -72 -7 0 -21
11 -30 25 -26 40 -50 31 -93 -32 -23 -34 -54 -65 -78 -79 -53 -29 -101 -93
-110 -146 -11 -61 -102 -182 -150 -198 -20 -6 -42 -9 -50 -6 -21 8 -85 -71
-85 -106 0 -37 -24 -37 -46 1 -33 56 -130 44 -178 -22 -17 -23 -20 -45 -22
-138 -1 -61 -5 -113 -8 -116 -3 -4 -16 3 -29 15 -23 21 -23 21 -54 2 -40 -24
-49 -41 -73 -137 -11 -42 -22 -78 -24 -80 -2 -3 -21 15 -42 39 -102 112 -131
122 -199 68 -43 -35 -85 -87 -85 -108 0 -34 -42 -71 -110 -97 -80 -31 -88 -28
-121 37 -11 21 -21 38 -24 38 -27 0 -129 -52 -177 -91 -48 -39 -64 -46 -79
-39 -55 30 -101 0 -154 -102 -43 -82 -73 -128 -84 -128 -4 0 -15 16 -24 35
-30 62 -78 47 -174 -53 l-51 -54 -30 16 c-33 17 -98 20 -176 7 l-50 -8 -91 72
c-233 186 -459 301 -629 321 l-58 7 17 -34 c37 -72 83 -129 212 -260 73 -74
133 -138 133 -142 0 -4 -10 -7 -21 -7 -43 0 -102 46 -166 128 -186 239 -460
456 -781 620 -79 41 -146 71 -149 68 -9 -9 16 -143 43 -234 14 -46 23 -86 20
-89 -8 -8 -36 17 -36 32 0 20 -98 213 -147 289 -112 174 -309 384 -482 514
-66 50 -86 60 -97 51 -23 -19 -35 -84 -28 -154 5 -46 3 -69 -6 -80 -24 -29
-30 -15 -30 65 0 252 -68 557 -170 762 -49 97 -147 248 -161 248 -26 0 -50
-25 -80 -81 -18 -34 -39 -63 -46 -66 -7 -3 -45 25 -85 62 -108 99 -108 99
-108 17z m379 -101 c105 -159 208 -502 186 -618 -13 -71 -36 -37 -115 168 -80
204 -120 286 -176 356 -38 47 -38 44 -23 96 11 41 40 77 63 77 7 0 37 -35 65
-79z m-158 -145 c78 -103 91 -129 155 -323 49 -147 55 -171 52 -236 -3 -82
-10 -87 -84 -67 -36 10 -53 24 -91 74 -103 137 -147 293 -179 646 l-6 75 47
-45 c26 -25 73 -80 106 -124z m5216 -598 c12 -13 14 -29 8 -73 -6 -50 -9 -55
-31 -55 -13 0 -42 7 -65 17 l-41 16 5 56 c4 41 12 61 28 73 20 17 23 17 51 0
16 -9 36 -25 45 -34z m-4572 -88 c142 -108 277 -255 353 -385 39 -67 82 -194
82 -243 0 -22 -3 -24 -37 -17 -59 11 -138 43 -181 75 -74 53 -267 330 -301
432 -27 80 -40 208 -21 208 8 0 55 -31 105 -70z m-515 -185 c116 -24 167 -56
184 -111 9 -29 75 -74 109 -74 27 0 27 0 27 -76 0 -78 8 -103 43 -141 28 -32
73 -29 155 7 108 49 154 33 176 -61 7 -32 -10 -39 -94 -39 -123 0 -255 46
-382 131 -114 77 -381 369 -364 398 4 6 19 5 41 -5 19 -8 67 -21 105 -29z
m4767 -66 c25 -7 57 -22 72 -35 l27 -22 79 35 c95 42 151 47 192 17 41 -31 40
-58 -2 -120 -21 -31 -35 -60 -31 -69 3 -8 21 -23 41 -32 19 -9 35 -22 35 -29
0 -29 -68 -64 -161 -84 -109 -23 -144 -44 -144 -86 0 -28 2 -29 53 -32 50 -3
52 -4 52 -31 0 -33 -38 -78 -74 -87 -17 -4 -44 3 -82 20 -75 34 -116 34 -144
-1 l-21 -26 27 -28 c23 -24 25 -31 14 -44 -7 -8 -24 -15 -39 -15 -34 0 -171
80 -171 101 0 35 95 99 148 99 15 0 37 6 47 14 30 22 3 46 -50 46 -38 0 -42 2
-38 19 11 43 41 56 140 62 79 5 98 10 116 28 l22 22 -24 18 -24 19 29 15 c46
24 80 65 66 79 -9 9 -24 7 -64 -11 -29 -13 -70 -26 -90 -28 -25 -4 -39 -11
-43 -24 -7 -21 -82 -69 -108 -69 -9 0 -28 12 -42 26 -30 30 -46 28 -56 -7 -39
-132 -73 -201 -105 -213 -8 -3 -26 2 -40 11 -32 20 -42 10 -46 -47 l-3 -45
-42 -3 -43 -3 0 60 c0 77 18 161 36 168 8 3 32 -6 53 -20 54 -36 84 -42 105
-22 27 27 29 59 7 137 -27 97 -27 157 0 192 31 39 67 35 114 -15 59 -60 71
-64 99 -36 21 21 23 29 16 73 -5 28 -4 57 2 67 9 17 11 16 29 -8 12 -15 39
-30 66 -36z m-3569 -283 c135 -48 298 -153 413 -267 83 -83 179 -211 179 -240
0 -26 -31 -39 -74 -32 l-36 6 0 64 c0 78 -21 128 -64 154 -53 32 -94 25 -153
-26 -28 -25 -60 -45 -71 -45 -51 0 -217 240 -250 363 -12 43 -7 45 56 23z
m2850 -143 c3 -21 -1 -23 -37 -23 -45 0 -49 5 -24 32 22 25 57 19 61 -9z
m-442 -197 c42 -79 55 -85 103 -46 50 41 87 38 118 -9 43 -63 27 -104 -67
-172 -38 -28 -70 -57 -70 -63 0 -7 22 -33 49 -60 59 -56 68 -78 47 -111 -21
-32 -74 -33 -146 -5 -61 24 -108 26 -138 4 -37 -25 -28 -57 30 -107 l51 -44
-27 -18 c-26 -17 -30 -17 -80 -2 -29 10 -62 17 -74 17 -11 0 -41 18 -66 39
-81 71 -101 66 -147 -36 -23 -52 -32 -63 -52 -63 -27 0 -140 88 -131 102 3 4
28 8 55 8 59 0 73 19 39 55 l-22 23 26 18 c21 13 39 15 88 10 34 -3 69 -13 78
-21 19 -17 56 -20 65 -6 3 6 -9 26 -26 46 l-32 36 20 21 c16 16 38 22 95 25
80 6 118 23 118 53 0 15 19 30 75 57 47 24 75 43 75 54 0 26 -10 28 -52 13
-51 -18 -48 -18 -48 10 0 44 -18 38 -87 -32 -70 -71 -135 -102 -181 -88 -15 5
-26 -1 -42 -24 -41 -58 -80 -26 -67 57 5 30 81 163 93 163 3 0 22 -11 44 -25
l39 -25 30 25 c16 14 48 54 70 89 42 67 76 98 101 94 8 -2 29 -30 46 -62z
m472 44 c12 -11 19 -27 16 -35 -5 -13 -10 -13 -35 1 -17 8 -29 23 -29 34 0 26
20 25 48 0z m-3097 -36 c77 -17 166 -57 209 -93 21 -17 23 -22 10 -31 -37 -25
-123 -43 -231 -47 -96 -4 -130 -2 -200 16 -114 28 -327 136 -307 156 2 2 53 9
114 14 142 12 312 6 405 -15z m1065 -20 c206 -83 349 -177 429 -281 29 -39 35
-54 31 -78 -9 -43 -19 -49 -63 -35 -154 49 -503 339 -503 417 0 18 6 17 106
-23z m2562 -63 c28 -20 32 -28 32 -70 0 -38 -5 -52 -25 -71 -20 -19 -32 -22
-74 -18 -27 3 -61 12 -75 22 -23 14 -26 23 -26 73 0 78 18 96 86 91 31 -3 63
-13 82 -27z m-271 -93 c6 -35 14 -71 18 -80 5 -13 2 -18 -9 -18 -10 0 -27 22
-43 54 -25 52 -26 55 -9 80 9 14 20 26 24 26 4 0 13 -28 19 -62z m-367 16 c19
-48 14 -57 -27 -49 -21 4 -40 8 -42 10 -5 6 40 65 50 65 5 0 14 -12 19 -26z
m254 -74 c44 -49 46 -83 9 -122 -23 -24 -35 -28 -80 -28 -44 0 -55 4 -68 23
-13 20 -13 30 -1 75 26 101 78 121 140 52z m-2566 -40 c103 -13 211 -46 219
-67 14 -35 -107 -99 -218 -116 -51 -8 -96 -8 -167 1 -176 21 -392 78 -392 103
0 5 36 19 79 33 159 50 320 66 479 46z m2281 -17 c5 -10 10 -47 12 -83 l4 -65
-40 -3 c-40 -3 -41 -3 -53 43 -18 68 -15 88 16 107 35 22 49 22 61 1z m-881
-42 c12 -21 22 -43 22 -49 0 -15 -32 -24 -44 -12 -5 5 -29 10 -53 10 -24 0
-43 3 -43 8 0 13 69 82 83 82 7 0 23 -17 35 -39z m-928 -111 c0 -5 -18 -10
-40 -10 -22 0 -40 5 -40 10 0 6 18 10 40 10 22 0 40 -4 40 -10z m306 -106 c47
-7 62 -29 38 -56 -51 -56 -203 -84 -409 -75 -123 6 -301 29 -313 41 -8 9 96
53 168 72 36 9 103 20 150 24 85 6 308 3 366 -6z"/>
<path d="M2464 8954 c-79 -39 -85 -158 -10 -208 32 -20 105 -21 134 0 73 51
67 170 -12 208 -42 20 -72 20 -112 0z"/>
<path d="M9533 8806 c-39 -18 -63 -62 -63 -117 0 -33 6 -47 34 -75 28 -28 42
-34 75 -34 85 0 138 56 128 133 -11 80 -98 127 -174 93z"/>
<path d="M2234 8666 c-28 -28 -34 -42 -34 -75 0 -56 22 -95 64 -115 46 -22 77
-20 117 7 57 39 74 98 44 157 -22 43 -53 60 -108 60 -42 0 -54 -5 -83 -34z"/>
<path d="M9743 8539 c-82 -23 -110 -127 -52 -193 69 -79 192 -43 206 61 12 89
-67 156 -154 132z"/>
<path d="M2104 8418 c-84 -22 -115 -133 -55 -197 38 -40 93 -50 141 -25 129
69 56 259 -86 222z"/>
<path d="M11155 8414 c15 -35 16 -79 3 -96 -7 -10 -151 -77 -320 -148 -347
-148 -357 -150 -398 -87 -13 21 -26 34 -28 29 -5 -16 154 -386 169 -391 8 -2
10 2 4 15 -18 42 -17 82 2 101 26 26 610 274 647 275 28 1 67 -30 79 -64 2 -7
7 -10 11 -7 10 9 -150 383 -165 388 -8 2 -10 -2 -4 -15z"/>
<path d="M1470 8408 c0 -8 18 -32 41 -53 106 -104 119 -184 52 -327 -51 -108
-62 -112 -161 -69 -195 86 -539 253 -549 268 -17 22 -16 46 2 89 10 26 11 34
2 31 -16 -5 -192 -385 -182 -394 4 -5 10 -1 13 7 3 8 18 28 34 43 23 23 34 28
56 22 42 -10 604 -273 625 -293 19 -17 20 -64 3 -104 -5 -10 -4 -18 1 -18 9 0
313 640 313 657 -1 7 -214 140 -242 151 -4 2 -8 -3 -8 -10z"/>
<path d="M9892 8244 c-41 -21 -62 -60 -62 -115 0 -33 6 -47 34 -75 30 -30 40
-34 86 -34 43 0 56 4 80 29 99 99 -13 258 -138 195z"/>
<path d="M1901 8104 c-91 -77 -31 -224 87 -211 108 12 147 135 66 206 -46 41
-108 43 -153 5z"/>
<path d="M10029 7937 c-66 -44 -70 -139 -8 -191 57 -48 152 -27 184 40 21 44
19 75 -8 115 -42 62 -108 76 -168 36z"/>
<path d="M11377 7854 c-4 -4 -7 -22 -7 -41 0 -18 -10 -48 -21 -66 -21 -32 -29
-35 -318 -112 -162 -43 -310 -79 -328 -79 -38 0 -78 33 -88 71 -4 16 -10 22
-15 17 -11 -11 59 -284 73 -284 5 0 7 13 3 31 -9 47 17 97 59 115 49 20 526
146 532 141 2 -3 -111 -163 -251 -357 -234 -321 -267 -370 -250 -370 3 0 166
43 362 95 197 52 368 95 380 95 23 0 57 -28 78 -66 7 -10 14 -16 18 -13 5 5
-3 39 -50 207 -16 58 -36 71 -27 18 6 -38 -8 -69 -40 -91 -22 -14 -396 -119
-403 -113 -2 2 83 120 188 262 l192 259 -29 111 c-36 142 -49 179 -58 170z"/>
<path d="M1778 7815 c-36 -20 -58 -64 -58 -116 0 -33 6 -47 34 -75 28 -28 41
-34 77 -34 85 0 140 64 125 144 -14 73 -113 118 -178 81z"/>
<path d="M765 7706 c-197 -63 -315 -250 -303 -481 16 -298 358 -478 637 -336
97 50 186 175 211 298 20 93 9 217 -25 288 -54 112 -176 207 -303 234 -69 14
-166 13 -217 -3z m190 -215 c247 -66 358 -188 299 -329 -39 -93 -118 -128
-269 -119 -171 11 -351 81 -425 165 -85 96 -59 235 54 289 47 22 60 24 156 20
61 -3 138 -14 185 -26z"/>
<path d="M10145 7618 c-106 -98 7 -259 135 -193 41 21 60 53 60 103 0 73 -50
122 -125 122 -26 0 -44 -8 -70 -32z"/>
<path d="M1673 7505 c-39 -17 -73 -68 -73 -111 0 -68 82 -136 146 -120 15 4
42 22 61 41 27 27 33 40 33 78 0 53 -27 93 -76 113 -41 17 -50 17 -91 -1z"/>
<path d="M10260 7313 c-55 -37 -71 -88 -46 -146 29 -71 113 -97 177 -54 68 46
71 138 8 192 -37 30 -102 34 -139 8z"/>
<path d="M2987 7260 c-3 -8 -8 -26 -11 -40 -3 -14 -162 -243 -354 -510 -297
-415 -353 -488 -389 -508 -24 -13 -43 -28 -43 -32 0 -5 14 -26 32 -46 29 -32
31 -39 21 -65 -9 -23 -8 -64 4 -172 23 -214 5 -325 -60 -391 -25 -25 -25 -25
-5 -43 45 -40 50 -66 52 -271 1 -170 0 -198 -15 -213 -11 -11 -43 -18 -109
-22 -51 -4 -96 -10 -99 -13 -3 -3 6 -16 22 -28 32 -26 37 -66 8 -66 -22 0 -31
-19 -31 -66 0 -43 15 -74 36 -74 8 0 31 12 51 27 27 21 39 24 51 16 15 -9 17
-35 20 -184 3 -229 -4 -285 -41 -313 -24 -18 -29 -19 -37 -6 -5 8 -10 38 -10
66 0 57 -17 88 -46 82 -16 -3 -20 -13 -22 -63 -2 -33 -1 -83 3 -111 l6 -52
517 -6 c284 -4 713 -11 952 -15 359 -7 437 -7 449 5 24 22 -3 44 -45 37 -43
-7 -81 11 -101 50 -13 26 -13 36 2 98 10 38 15 83 13 99 -3 18 1 35 9 41 16
14 17 65 2 124 -8 32 -8 48 1 65 11 20 10 21 -12 15 -41 -13 -43 -11 -40 38 4
47 -14 68 -20 25 -2 -15 -24 -36 -61 -61 l-58 -38 -49 16 c-28 9 -54 23 -58
32 -7 12 -13 8 -31 -21 -17 -26 -20 -40 -13 -49 18 -22 34 -216 22 -277 -14
-73 -34 -104 -60 -90 -22 12 -23 24 -11 88 8 38 6 46 -20 79 -18 22 -29 48
-29 67 0 50 -19 105 -40 116 -41 22 -14 70 39 70 11 0 23 5 27 11 11 18 -18
37 -71 46 -37 6 -51 13 -53 28 -5 23 23 45 59 45 14 0 32 6 39 14 9 12 5 16
-27 21 -60 10 -78 21 -95 55 -14 29 -16 31 -22 12 -10 -31 -53 -72 -75 -72
-36 0 -64 71 -69 178 -2 50 -5 92 -6 92 -1 0 -16 4 -34 9 -28 8 -36 7 -53 -10
-18 -18 -20 -28 -14 -84 8 -70 -6 -130 -33 -144 -19 -10 -191 3 -264 20 -63
15 -75 42 -57 138 16 90 5 121 -41 121 -17 0 -45 -7 -61 -16 -45 -23 -37 -61
19 -92 23 -13 42 -27 42 -32 0 -5 -17 -10 -37 -12 -33 -3 -39 -7 -49 -38 -11
-34 -13 -35 -67 -38 -61 -3 -92 15 -82 49 4 11 1 53 -5 94 -9 59 -9 80 2 102
16 33 28 37 53 19 17 -12 20 -25 17 -94 -2 -58 1 -82 11 -91 12 -9 15 -5 21
26 3 21 6 67 6 103 l0 66 -62 60 c-35 34 -71 64 -81 68 -14 4 -17 14 -15 38
l3 33 380 -3 c209 -1 408 -5 442 -8 61 -6 62 -7 79 -48 12 -30 18 -81 22 -186
7 -219 21 -205 22 21 0 210 2 219 51 219 36 0 59 -24 59 -63 0 -17 5 -46 12
-64 9 -26 9 -52 0 -117 -13 -87 -9 -116 14 -116 9 0 14 12 14 35 0 24 5 38 16
42 16 6 22 1 51 -44 11 -17 13 -17 31 5 l18 23 13 -25 c11 -20 19 -24 42 -19
25 5 28 2 41 -43 10 -36 19 -50 34 -52 18 -3 20 1 16 30 -3 19 4 59 18 99 26
73 22 99 -13 99 -13 0 -59 9 -103 21 -51 13 -93 19 -118 15 l-39 -7 6 41 c8
59 21 70 82 70 58 0 154 -41 194 -84 19 -20 26 -22 50 -13 71 26 79 -23 20
-113 l-42 -62 54 -54 53 -54 13 44 c13 45 33 70 33 42 0 -8 13 -43 30 -78 16
-34 30 -74 30 -87 0 -20 2 -22 16 -10 12 10 14 23 10 54 -6 35 -3 44 18 64
l25 24 7 -29 c9 -39 32 -74 48 -74 7 0 19 14 26 31 l13 30 29 -28 c28 -27 28
-27 59 -9 36 21 46 14 51 -34 3 -30 7 -35 28 -35 20 0 26 6 30 30 7 41 40 41
61 -2 19 -38 32 -32 54 25 12 30 25 44 43 49 34 8 52 -18 52 -79 0 -50 15 -63
40 -33 18 21 30 9 30 -29 0 -21 -11 -49 -31 -76 -41 -56 -61 -107 -54 -131 5
-15 1 -19 -18 -19 -48 0 -69 30 -76 108 -4 39 -10 75 -15 79 -11 11 -46 -34
-46 -59 0 -11 7 -35 16 -54 13 -27 14 -37 4 -49 -16 -19 -49 -19 -56 0 -9 23
-35 18 -66 -12 -26 -25 -29 -26 -45 -10 -16 15 -15 18 2 37 19 21 19 21 -13
46 -18 14 -32 34 -32 45 0 10 -4 19 -10 19 -5 0 -10 -10 -10 -23 0 -27 -17
-47 -41 -47 -19 0 -29 20 -29 56 0 27 -12 31 -29 10 -8 -9 -10 -32 -5 -65 5
-39 3 -57 -10 -76 -28 -43 -66 -28 -66 26 0 23 -32 26 -50 4 -16 -19 -8 -66
23 -138 24 -58 37 -59 37 -3 0 22 17 46 32 46 4 0 20 -18 34 -40 35 -52 59
-53 67 -2 4 21 13 46 21 57 14 20 15 20 51 1 20 -11 52 -37 71 -59 45 -49 64
-44 64 18 0 56 20 68 56 35 28 -27 30 -60 9 -140 -17 -62 -19 -99 -6 -119 7
-11 15 -11 43 -1 30 11 39 11 59 -3 45 -32 208 -10 223 30 3 6 -6 26 -20 44
-30 40 -30 72 -3 134 27 61 27 110 0 139 l-21 22 30 35 c34 40 39 63 11 54
-26 -8 -44 17 -32 46 5 13 13 45 16 71 3 26 15 58 26 72 l20 26 38 -30 c44
-36 81 -97 81 -134 0 -24 -59 -96 -80 -96 -5 0 -5 -12 1 -28 7 -20 5 -40 -6
-71 -20 -59 -20 -65 16 -101 41 -40 36 -70 -26 -185 l-47 -85 -128 0 c-125 0
-129 -1 -160 -27 l-32 -27 23 -9 c13 -5 288 -13 612 -17 563 -7 589 -7 624 11
31 16 50 18 120 12 82 -6 82 -6 111 24 l28 31 32 -29 c37 -33 94 -39 140 -15
24 12 30 12 47 0 12 -9 46 -14 99 -14 55 0 91 -5 111 -16 25 -13 90 -17 375
-25 523 -12 859 -11 895 5 l30 13 -37 16 c-46 19 -159 37 -240 37 -35 0 -73 3
-85 6 -20 6 -20 7 -5 34 16 27 15 33 -12 115 l-29 86 34 35 c18 19 38 34 45
34 6 0 22 -35 36 -77 21 -65 23 -80 12 -89 -20 -16 -17 -78 4 -97 23 -21 52
-21 139 -1 37 8 83 14 101 12 l32 -4 0 83 c0 45 5 105 11 133 9 42 14 50 34
50 24 0 35 -22 35 -71 0 -39 11 -42 44 -11 44 41 109 80 124 74 42 -14 59
-167 23 -206 -11 -12 -21 -30 -23 -40 -7 -43 109 -64 149 -27 15 14 23 17 32
8 19 -19 12 -45 -20 -78 -45 -46 -28 -56 111 -64 133 -7 155 1 210 76 29 40
42 109 21 109 -11 0 -21 -25 -21 -49 0 -19 -30 -51 -47 -51 -5 0 -15 11 -21
24 -9 20 -8 32 5 56 19 39 13 73 -27 152 -17 32 -30 64 -30 72 0 20 48 38 70
26 10 -5 31 -10 47 -10 16 0 39 -7 51 -16 21 -14 23 -14 32 11 6 14 10 41 10
60 0 31 -2 34 -42 40 -51 8 -121 46 -143 78 l-16 22 -24 -27 c-31 -36 -60 -35
-96 3 -29 31 -49 31 -49 0 0 -21 30 -51 52 -51 30 0 40 -27 36 -97 -2 -37 1
-125 6 -195 7 -111 6 -131 -8 -153 -18 -27 -45 -32 -77 -14 -20 10 -20 11 5
34 31 28 35 79 9 107 -26 29 -28 113 -4 186 16 47 19 67 11 82 -15 28 -46 25
-66 -5 -17 -26 -17 -34 2 -177 7 -50 -13 -98 -40 -98 -24 0 -46 79 -36 131 15
78 15 270 -1 279 -19 13 -29 2 -29 -30 0 -27 -2 -28 -42 -28 -34 1 -57 -8
-107 -41 -36 -23 -76 -41 -92 -41 -33 0 -63 26 -54 49 17 41 17 78 0 94 -27
28 -35 20 -35 -38 0 -42 -5 -60 -21 -76 -11 -11 -26 -19 -32 -17 -7 2 -27 34
-44 71 -18 37 -37 67 -42 67 -6 0 -2 15 9 33 10 17 22 56 26 85 4 29 15 63 25
75 l19 22 25 -30 c14 -16 31 -49 37 -72 7 -24 16 -43 21 -43 5 0 7 7 3 15 -8
23 46 80 68 72 15 -6 17 -15 11 -56 -10 -74 10 -72 44 4 31 69 44 78 61 45 18
-33 48 -26 52 13 2 27 7 32 28 32 23 0 25 -4 30 -60 l5 -60 32 66 c36 76 49
88 70 66 13 -13 14 -21 4 -45 -17 -40 -11 -86 12 -90 11 -2 17 3 17 16 0 29
66 150 78 143 6 -3 14 -19 17 -34 4 -15 10 -27 14 -27 4 0 29 22 56 50 45 46
48 51 37 75 -14 30 -16 72 -3 79 23 15 71 -81 71 -144 0 -46 16 -53 30 -12 6
15 14 34 19 42 9 17 101 32 116 19 14 -14 22 -11 28 12 5 18 12 20 49 17 l43
-3 7 50 c3 28 7 79 7 115 2 107 10 138 38 145 14 3 34 3 44 0 18 -6 19 -13 14
-59 -5 -35 0 -93 15 -177 25 -144 21 -187 -20 -253 -27 -42 -33 -46 -71 -46
-22 0 -83 -14 -135 -32 -93 -31 -94 -32 -94 -65 0 -18 3 -33 6 -33 4 0 23 15
44 33 31 29 47 35 103 41 74 7 107 -3 107 -34 0 -27 -35 -43 -80 -35 -61 10
-66 -30 -7 -56 36 -16 47 -49 22 -69 -13 -11 -21 -11 -49 3 -19 9 -37 13 -40
10 -14 -14 -4 -42 17 -49 30 -9 57 -34 57 -53 0 -9 -18 -43 -41 -76 -38 -57
-40 -63 -34 -113 5 -42 4 -53 -9 -58 -24 -9 -47 15 -44 44 2 14 -2 27 -9 29
-21 7 -45 -45 -52 -111 l-7 -63 201 -7 c110 -3 447 -7 749 -7 509 -1 550 0
562 16 9 12 12 56 11 148 -2 124 -3 132 -22 135 -17 2 -23 -7 -34 -50 -8 -29
-15 -81 -15 -115 -3 -104 -41 -109 -71 -10 -19 65 -22 416 -3 435 17 17 42 15
69 -7 22 -18 24 -26 21 -96 -3 -96 3 -117 31 -113 21 3 22 9 26 113 8 198 6
238 -13 278 -20 40 -40 46 -105 27 -79 -22 -94 17 -89 242 3 168 4 174 31 220
15 26 34 51 43 56 13 7 9 15 -24 43 l-40 34 -7 155 c-5 123 -4 170 9 229 8 40
20 79 26 86 7 9 6 16 -5 25 -22 18 -19 32 15 75 17 21 30 42 30 46 0 5 -15 15
-32 22 -53 22 -170 165 -252 307 -26 47 -113 184 -191 305 -78 121 -155 243
-171 270 -16 28 -37 57 -48 66 -14 12 -21 34 -25 85 -3 38 -10 68 -16 67 -5
-1 -16 -21 -23 -45 -11 -36 -23 -49 -71 -80 -75 -48 -88 -53 -106 -38 -19 15
-17 17 -40 -45 -24 -66 -92 -202 -120 -240 -12 -16 -58 -97 -101 -180 -69
-132 -88 -160 -161 -234 -64 -65 -83 -90 -83 -112 0 -37 -15 -75 -33 -82 -11
-4 -60 61 -175 232 -88 130 -171 260 -186 289 -14 29 -29 52 -33 52 -3 0 -29
-20 -57 -44 -28 -23 -66 -51 -85 -60 -29 -15 -43 -39 -107 -174 -81 -171 -135
-276 -171 -334 -20 -32 -29 -38 -58 -38 -38 0 -43 -10 -20 -50 23 -40 19 -77
-10 -96 -27 -18 -22 -18 -840 2 l-259 7 -21 25 c-11 14 -25 33 -32 41 -10 14
-14 12 -33 -12 -36 -45 -54 -50 -105 -28 -37 16 -49 29 -65 66 -11 25 -25 45
-32 45 -7 0 -26 -16 -41 -35 -30 -37 -93 -75 -126 -75 -11 0 -29 12 -40 28
-38 50 -43 54 -53 44 -6 -6 -13 -25 -17 -43 -6 -29 -12 -34 -46 -42 -37 -8
-357 -4 -868 12 -241 7 -237 5 -237 100 l0 54 -24 -22 c-21 -19 -24 -20 -30
-6 -3 9 -6 30 -6 45 0 22 -7 32 -27 42 -32 15 -86 116 -103 191 -5 27 -32 99
-59 160 -27 62 -52 126 -56 144 -6 29 -9 32 -36 26 -38 -7 -73 23 -104 89 -16
36 -25 44 -33 36 -7 -7 -12 -20 -12 -31 0 -41 -371 -573 -402 -576 -11 -2 -28
61 -28 108 0 43 -4 51 -51 96 -65 65 -137 172 -243 367 -47 86 -103 186 -125
221 -33 51 -41 74 -41 110 0 54 -10 64 -45 41 -46 -30 -101 7 -148 101 -16 32
-27 45 -30 35z m25 -217 c9 -10 39 -88 68 -173 72 -216 151 -413 225 -562 l63
-128 -451 1 c-249 1 -477 4 -507 8 l-55 7 42 41 c53 52 84 60 135 34 40 -19
40 -19 86 0 26 11 48 21 49 23 7 6 -40 113 -55 124 -8 6 -37 12 -64 12 -53 0
-57 6 -29 41 l19 24 24 -22 c50 -47 79 -21 58 52 -10 37 -10 48 1 64 11 15
141 171 170 205 5 5 26 -7 49 -27 23 -21 50 -37 64 -37 32 0 56 35 56 82 0 48
-23 71 -67 66 -38 -5 -39 0 -17 45 19 36 102 137 114 137 4 0 14 -8 22 -17z
m99 -3 c5 0 28 -17 51 -37 59 -54 108 -162 106 -236 -2 -66 18 -102 61 -112
36 -8 49 -23 93 -107 l35 -67 -27 -19 c-15 -11 -34 -40 -44 -65 -18 -49 -16
-60 31 -126 l18 -24 -30 7 c-39 9 -51 27 -65 90 -6 28 -19 58 -29 66 -9 8 -37
59 -60 114 -38 88 -42 104 -36 150 3 28 7 78 8 111 l2 60 -42 3 c-54 4 -76 31
-92 113 -7 33 -15 68 -18 77 -5 12 -2 14 11 9 10 -4 22 -7 27 -7z m5996 -177
c130 -182 273 -409 273 -436 0 -3 -16 -15 -35 -27 l-36 -22 21 -35 c26 -44 26
-43 -10 -43 -80 0 -123 -61 -77 -107 33 -34 89 -42 197 -30 l89 10 40 -33 c23
-17 41 -35 41 -38 0 -13 -740 -6 -856 7 -61 7 -117 16 -123 20 -8 5 4 30 34
77 54 82 141 256 220 444 78 185 137 310 145 310 3 0 38 -44 77 -97z m-149 36
c-6 -17 -25 -51 -43 -77 -26 -37 -38 -46 -58 -44 -18 2 -33 -7 -55 -32 -29
-33 -30 -36 -17 -73 19 -51 18 -112 -1 -170 -13 -41 -160 -303 -170 -303 -1 0
-2 36 -1 79 2 65 -1 83 -17 100 -25 27 -17 79 22 140 23 38 33 46 55 43 39 -4
75 56 69 119 -4 53 19 107 76 178 37 46 79 70 124 71 26 0 26 -1 16 -31z
m-4734 -442 c76 -146 89 -178 87 -214 -2 -37 1 -45 24 -55 15 -7 39 -36 58
-74 l33 -62 -157 -7 c-86 -4 -226 -4 -312 0 -151 7 -155 7 -185 -15 l-31 -23
-58 35 c-32 19 -66 38 -76 41 -9 4 -43 26 -74 49 -49 37 -54 43 -35 46 14 2
51 -15 95 -43 99 -63 114 -66 147 -27 24 29 32 32 80 32 49 0 56 3 92 40 21
23 38 49 38 58 0 9 -14 29 -32 43 l-32 27 31 63 c18 35 46 77 62 93 l31 30 24
-23 c32 -30 70 -25 74 9 2 19 -5 30 -28 43 -30 18 -30 18 -14 50 46 90 55 84
158 -116z m3761 -2 c32 -44 73 -111 92 -149 l35 -69 -56 -50 c-31 -27 -56 -56
-56 -65 0 -38 67 -71 86 -41 4 6 20 8 39 5 29 -6 34 -3 45 24 16 40 38 28 70
-39 27 -58 48 -69 84 -46 31 21 50 12 36 -16 -26 -48 -179 -82 -209 -46 -8 10
-62 16 -208 20 -109 4 -244 10 -300 13 l-103 7 0 31 c0 53 11 78 29 70 36 -16
72 -16 96 0 24 16 26 15 53 -15 24 -27 33 -30 59 -25 18 4 50 21 73 37 39 28
40 31 26 51 -9 12 -13 31 -10 43 4 16 -2 26 -20 38 -38 25 -54 21 -76 -22 -19
-39 -37 -57 -46 -48 -3 2 30 78 72 168 42 90 83 179 91 198 17 40 16 41 98
-74z m-3715 32 c0 -26 -6 -20 -25 29 l-16 39 21 -24 c11 -13 20 -32 20 -44z
m3558 16 c-12 -48 -98 -229 -130 -277 -23 -33 -27 -35 -39 -20 -11 13 -10 23
4 64 9 26 17 55 17 63 0 9 9 19 21 22 19 6 69 93 69 121 0 18 40 64 55 64 11
0 11 -8 3 -37z m-3478 -121 c0 -4 -3 -18 -7 -31 -6 -22 -8 -21 -29 20 -31 58
-30 64 6 39 17 -12 30 -24 30 -28z m5118 -25 c2 -12 -3 -17 -17 -17 -12 0 -21
6 -21 13 0 31 32 34 38 4z m-5021 -209 c6 -7 13 -22 15 -33 3 -11 9 -28 13
-38 12 -28 -18 -11 -38 22 -26 45 -18 84 10 49z m4073 -43 c0 -17 -50 -45 -80
-45 -20 0 -19 2 7 24 44 36 73 45 73 21z m-5371 -62 c70 -12 85 -46 91 -207
l5 -129 35 -12 c27 -9 36 -18 38 -38 4 -32 28 -36 37 -6 4 12 4 46 0 75 -5 45
-3 61 14 90 12 20 21 53 21 75 0 28 4 39 15 39 23 0 35 -34 35 -97 0 -72 8
-103 26 -103 8 0 19 12 25 28 34 86 45 73 41 -51 -3 -79 0 -106 12 -122 18
-24 19 -20 35 80 14 91 26 133 51 173 27 45 44 31 21 -16 -11 -20 -22 -65 -26
-100 -6 -65 9 -172 25 -172 17 0 30 39 30 92 0 58 30 118 84 167 30 28 37 24
51 -26 6 -20 18 -41 28 -47 25 -15 84 20 121 72 l29 40 -22 28 c-11 14 -21 31
-21 35 0 5 34 9 75 9 l75 0 -6 -57 c-5 -51 -3 -62 20 -96 14 -21 26 -42 26
-47 0 -12 34 -30 58 -30 39 0 57 37 57 118 l0 75 48 14 c70 20 92 15 92 -22 1
-36 25 -44 62 -20 21 14 27 15 34 4 12 -19 11 -52 -2 -86 -6 -15 -18 -47 -25
-71 -13 -41 -12 -45 9 -65 l22 -22 -354 0 c-331 0 -356 -1 -378 -18 -31 -25
-15 -47 36 -47 l36 -1 -44 -38 c-40 -36 -42 -40 -25 -49 13 -7 36 -6 73 2 45
10 55 17 66 43 7 17 23 34 35 38 22 7 210 3 210 -4 0 -3 -9 -15 -21 -27 -19
-20 -19 -26 -8 -63 7 -22 20 -48 31 -57 17 -16 19 -16 39 2 25 22 49 66 49 89
0 8 -9 23 -20 32 -25 22 -25 33 -1 33 21 0 31 -19 31 -60 0 -22 5 -29 28 -33
31 -6 52 7 52 33 0 10 7 23 15 30 13 11 20 10 43 -8 15 -12 55 -41 90 -63 70
-46 82 -62 82 -113 0 -35 21 -66 45 -66 15 0 17 6 39 103 15 65 40 127 52 127
3 0 24 -17 46 -37 32 -31 39 -43 35 -67 -6 -42 37 -116 68 -116 37 0 47 22 39
88 -6 53 -4 62 15 81 11 11 21 32 21 45 0 14 4 28 10 31 17 11 51 -16 66 -51
8 -18 25 -41 38 -49 18 -12 24 -25 24 -56 1 -42 24 -89 44 -89 30 0 48 33 48
92 0 43 5 63 19 77 16 16 17 21 4 45 -14 26 -14 26 24 26 49 0 59 -8 68 -50 4
-19 23 -70 43 -112 33 -69 40 -77 62 -75 22 2 26 8 31 52 3 28 14 67 24 88 16
31 17 43 8 67 -10 26 -9 30 6 30 9 0 27 -7 39 -16 21 -14 22 -22 20 -120 -3
-91 -5 -105 -21 -110 -10 -3 -34 -30 -53 -59 -37 -58 -59 -70 -107 -60 -25 4
-37 16 -53 48 -16 32 -26 42 -45 42 -20 0 -26 -8 -38 -44 l-14 -44 -75 7 c-41
3 -131 6 -198 6 l-124 0 -17 38 c-25 51 -61 52 -78 2 l-12 -35 -94 1 c-73 0
-113 6 -179 27 -47 14 -127 33 -179 42 -115 20 -247 66 -322 111 -46 27 -63
33 -89 28 -24 -5 -67 4 -164 36 -134 44 -139 46 -191 80 -41 27 -63 26 -67 -5
l-3 -26 -440 1 c-242 0 -443 4 -447 8 -12 12 -28 186 -28 317 0 75 -5 129 -13
145 -7 14 -35 36 -64 50 -65 31 -69 36 -52 56 12 15 48 16 394 10 209 -3 400
-9 424 -13z m206 -13 c0 -11 -12 -15 -44 -15 -45 0 -68 19 -34 28 35 10 78 2
78 -13z m5363 -72 c-3 -7 -11 -13 -18 -13 -7 0 -15 6 -17 13 -3 7 4 12 17 12
13 0 20 -5 18 -12z m737 -2 c50 -3 114 -10 144 -16 l54 -12 -33 -15 c-57 -23
-67 -64 -25 -103 42 -39 47 -80 24 -187 -25 -110 -20 -148 21 -188 32 -31 39
-62 15 -71 -21 -8 -56 17 -85 60 -31 44 -48 51 -72 30 -10 -10 -21 -14 -25
-11 -3 4 -5 73 -5 153 2 171 -6 212 -54 259 -44 44 -81 46 -124 8 l-31 -28 15
-89 c24 -132 21 -242 -5 -280 -38 -56 -67 -71 -139 -71 -64 0 -65 0 -82 35
-13 25 -18 59 -18 123 0 99 -10 128 -40 120 -18 -5 -19 -2 -14 28 10 49 22 69
44 69 21 0 44 34 37 54 -3 7 -26 16 -52 18 -25 3 -54 13 -64 22 -10 9 -25 16
-33 16 -9 0 -18 7 -22 15 -3 8 -14 15 -24 15 -11 0 -25 -7 -32 -15 -7 -8 -16
-15 -21 -15 -12 0 -21 39 -15 65 l6 24 283 -5 c155 -2 323 -6 372 -8z m-7049
-89 c25 -30 26 -35 19 -102 -5 -38 -9 -98 -11 -132 -1 -34 -9 -73 -18 -87 -9
-14 -23 -37 -31 -51 -30 -49 -55 -27 -55 47 0 31 6 47 25 64 22 20 25 32 25
86 0 58 -2 65 -30 88 l-30 25 21 51 c25 59 43 61 85 11z m3524 -17 c-8 -4 -32
-22 -54 -39 -41 -33 -76 -41 -76 -17 0 20 20 33 62 41 20 4 45 13 55 20 10 7
20 11 23 8 3 -2 -2 -8 -10 -13z m1732 4 c17 -9 44 -14 59 -12 26 4 29 2 29
-24 0 -16 5 -39 11 -50 7 -12 14 -44 18 -72 8 -68 32 -69 82 -2 27 36 38 61
41 97 3 26 11 55 18 64 14 17 95 21 105 5 3 -5 -6 -27 -20 -47 -34 -50 -33
-80 3 -87 15 -4 47 -22 71 -41 24 -19 50 -35 57 -35 25 0 44 42 37 82 -6 38
-5 38 21 29 72 -28 106 -72 106 -140 0 -80 37 -120 61 -67 8 17 8 38 0 74 -11
54 -6 85 13 79 6 -2 13 -40 16 -95 5 -95 19 -127 43 -104 7 8 13 51 15 117 2
58 7 105 12 105 31 0 53 -116 30 -160 -13 -24 -3 -50 21 -50 32 0 41 34 34
138 -5 82 -3 102 12 131 25 48 43 51 43 9 1 -18 7 -60 15 -93 8 -33 15 -81 15
-107 0 -41 3 -48 20 -48 13 0 27 14 40 40 12 23 27 43 35 46 8 4 16 28 20 62
9 83 15 93 31 57 17 -39 17 -184 0 -257 -11 -49 -11 -60 1 -69 10 -9 20 -9 39
2 20 10 29 11 44 1 11 -7 48 -12 82 -12 35 0 69 -4 77 -9 17 -11 -237 -26
-325 -18 -34 2 -83 14 -108 27 l-46 22 -29 -21 c-48 -34 -107 -51 -253 -71
-75 -11 -149 -22 -165 -26 -41 -10 -115 -49 -152 -80 -30 -25 -37 -26 -101
-21 -56 5 -75 2 -106 -14 -21 -10 -50 -19 -65 -19 -15 0 -53 -13 -84 -30 -68
-36 -98 -40 -72 -12 22 25 21 49 -2 62 -27 14 -31 13 -31 -8 0 -49 -53 -77
-124 -65 -30 5 -41 13 -57 44 -24 49 -59 55 -59 10 0 -47 -20 -55 -108 -45
-77 9 -77 9 -80 41 -5 55 -54 52 -88 -6 -33 -55 -146 -48 -174 11 -17 37 -40
49 -40 20 0 -37 -35 -55 -110 -56 l-70 -1 0 33 c0 30 -4 35 -47 53 -82 35 -94
42 -91 58 2 9 12 16 23 16 41 1 48 14 41 77 -7 54 -5 63 15 84 12 13 28 24 34
24 8 0 19 -42 30 -112 10 -62 24 -119 31 -127 24 -26 78 45 110 144 24 72 31
85 50 85 22 0 36 -23 50 -82 3 -15 12 -32 20 -39 8 -7 14 -30 14 -59 0 -93 44
-69 111 60 21 41 47 86 58 100 l20 25 22 -21 c24 -24 38 -83 39 -160 0 -81 34
-93 100 -37 31 26 39 63 20 93 -7 11 0 24 27 52 21 21 42 38 48 38 5 0 21 -34
34 -76 17 -56 21 -87 16 -120 -7 -50 3 -56 55 -29 26 13 30 22 36 76 l7 61 63
28 c35 16 69 38 76 49 7 12 20 21 30 21 24 0 58 -48 58 -81 0 -36 16 -46 40
-24 19 18 24 14 34 -26 11 -49 34 -44 92 18 52 57 67 94 42 109 -19 12 20 23
85 23 63 1 97 -11 97 -34 0 -35 157 -85 175 -56 10 17 -17 60 -44 70 -26 9
-26 9 7 10 25 1 32 5 32 21 0 12 -12 32 -26 45 l-27 25 -321 0 c-177 0 -331 3
-344 6 l-23 7 22 11 c33 16 45 41 31 59 -11 13 -17 12 -50 -5 -30 -16 -51 -19
-109 -15 -40 2 -79 10 -88 17 -13 11 -21 10 -50 -6 -31 -16 -41 -17 -105 -6
-92 16 -115 15 -130 -3 -9 -11 -16 -13 -24 -5 -5 5 -38 10 -71 10 -52 0 -65
-4 -85 -25 -12 -13 -39 -30 -58 -36 -34 -11 -37 -11 -65 25 -26 32 -34 36 -77
36 -44 0 -49 -2 -59 -30 -5 -16 -17 -30 -25 -30 -20 0 -20 4 -2 39 20 39 7 55
-37 47 -31 -6 -38 -3 -53 19 -15 23 -15 32 -4 87 l13 61 270 -6 c149 -4 357
-7 464 -7 l194 0 17 -31 c9 -17 30 -49 46 -72 27 -38 30 -39 42 -22 8 10 14
43 14 73 0 45 3 53 16 48 9 -3 27 -9 41 -13 25 -6 26 -4 20 24 -3 17 -3 33 0
37 11 11 43 6 75 -10z m-2317 -4 l182 0 12 -41 c9 -30 33 -61 83 -110 69 -66
71 -69 56 -91 -15 -23 -64 -35 -95 -24 -12 5 -11 13 11 50 25 43 26 76 2 76
-6 0 -29 -9 -51 -20 -22 -11 -52 -20 -67 -20 -34 0 -35 -7 -7 -36 12 -12 18
-27 14 -33 -13 -22 -42 -10 -66 27 -27 42 -65 55 -76 25 -15 -43 -34 -53 -100
-53 -72 0 -82 15 -22 35 26 9 34 17 34 36 0 28 0 28 -118 -2 -53 -13 -100 -32
-117 -45 -29 -25 -75 -33 -68 -12 3 7 19 16 37 21 69 17 23 29 -144 34 -94 4
-203 6 -242 6 -72 -1 -73 -1 -73 25 1 38 34 107 67 138 l28 27 269 -7 c148 -3
351 -6 451 -6z m862 -35 c16 -23 12 -39 -9 -43 -15 -3 -108 56 -108 68 0 15
104 -8 117 -25z m-510 -16 c18 -34 17 -79 -2 -79 -20 0 -35 32 -35 75 0 42 17
44 37 4z m653 -24 c0 -43 -4 -56 -19 -65 -28 -14 -28 -15 -34 37 -6 55 5 83
33 83 17 0 20 -7 20 -55z m-403 -19 c-8 -19 -37 -21 -37 -3 0 7 5 18 12 25 15
15 33 -1 25 -22z m196 -45 c54 -51 84 -98 70 -112 -5 -5 -23 2 -44 16 -26 20
-34 33 -34 58 0 26 -6 35 -37 52 -23 12 -38 27 -38 39 0 22 10 16 83 -53z
m-132 -63 c-9 -20 -10 -18 -10 17 0 31 2 36 9 23 6 -10 7 -25 1 -40z m-185
-24 c-18 -27 -56 -33 -56 -8 0 8 15 30 32 47 32 32 33 32 36 9 2 -13 -4 -34
-12 -48z m583 -3 c40 -33 35 -51 -17 -51 -27 1 -42 7 -54 25 -40 54 14 74 71
26z m-1659 -11 c0 -5 -9 -10 -20 -10 -11 0 -20 5 -20 10 0 6 9 10 20 10 11 0
20 -4 20 -10z m2535 -30 c4 -6 -5 -10 -19 -10 -14 0 -26 5 -26 10 0 6 9 10 19
10 11 0 23 -4 26 -10z m-1348 -145 c15 -19 40 -40 55 -46 24 -10 32 -7 73 27
56 45 75 37 57 -24 -18 -59 -15 -72 18 -83 18 -7 30 -18 30 -29 0 -10 8 -28
18 -40 l18 -22 30 25 29 26 -32 33 c-18 19 -33 37 -33 41 0 3 18 12 41 18 22
7 46 21 53 31 12 17 15 16 40 -16 14 -19 26 -46 26 -60 0 -26 -14 -35 -25 -16
-11 17 -33 11 -41 -12 -11 -35 44 -78 100 -78 44 0 99 -30 84 -45 -10 -11
-710 -12 -850 -2 -106 8 -118 11 -118 28 0 20 3 21 69 24 53 1 75 24 60 62
-12 32 -12 33 6 33 23 0 37 44 24 76 -5 15 -8 29 -5 31 2 2 29 -10 60 -27 36
-21 65 -31 81 -28 15 3 26 0 29 -9 8 -19 46 -13 60 9 8 13 7 26 -3 50 -7 18
-15 44 -18 57 -5 21 -4 22 15 12 12 -6 34 -27 49 -46z m3420 -17 c28 -11 28
-11 -22 -19 -56 -9 -69 -4 -41 17 24 17 27 17 63 2z m-3800 -100 c-3 -7 -5 -2
-5 12 0 14 2 19 5 13 2 -7 2 -19 0 -25z m3968 -35 c12 -16 26 -15 83 2 18 6
22 4 22 -15 0 -15 -20 -41 -59 -77 -91 -82 -140 -206 -96 -243 17 -14 24 -1
50 92 17 63 39 82 82 72 l26 -7 -33 -30 c-26 -23 -30 -31 -19 -38 8 -5 22 -7
32 -5 9 2 17 0 17 -4 0 -5 -12 -10 -27 -12 -33 -4 -43 -34 -17 -52 11 -9 13
-15 6 -20 -6 -4 -16 -24 -22 -46 -13 -49 -34 -70 -69 -70 -44 0 -56 23 -57
113 -1 70 -4 83 -23 98 -20 17 -20 18 -4 47 15 26 15 35 3 88 -17 74 -25 84
-66 84 -27 0 -43 -10 -84 -52 -27 -29 -50 -60 -50 -68 0 -8 9 -53 20 -100 22
-98 24 -121 10 -171 -16 -55 -61 -73 -164 -66 -103 8 -116 21 -116 114 0 47 3
63 13 60 20 -7 47 12 47 35 0 11 16 42 36 69 40 55 41 77 2 98 -25 15 -29 14
-52 -8 -21 -20 -26 -34 -26 -73 l0 -48 -70 0 c-38 0 -70 1 -70 3 0 2 20 18 45
36 37 27 44 36 34 47 -8 9 -10 32 -6 65 6 45 4 51 -15 58 -12 4 -44 4 -71 -1
-58 -11 -75 -1 -57 32 l12 23 361 -7 c314 -6 362 -9 372 -23z m-977 -85 c9 -9
8 -16 -5 -30 -9 -10 -21 -18 -26 -18 -13 0 -57 40 -57 52 0 13 75 9 88 -4z
m-4618 -37 c0 -4 -18 -30 -39 -59 -37 -48 -41 -51 -50 -33 -15 28 -15 32 19
85 30 47 32 48 50 31 11 -10 20 -21 20 -24z m4473 17 c21 -11 19 -12 -28 -29
-59 -21 -75 -23 -75 -9 0 10 58 50 73 50 5 0 18 -5 30 -12z m-4353 -49 c0 -24
-66 -92 -81 -84 -28 18 19 105 57 105 18 0 24 -5 24 -21z m5280 -34 c0 -38
-15 -45 -36 -17 -10 14 -10 20 3 35 24 26 33 21 33 -18z m-5180 1 c0 -8 -10
-22 -22 -31 -21 -14 -23 -14 -26 0 -6 26 6 45 28 45 11 0 20 -6 20 -14z m3822
-13 c21 -19 26 -87 6 -81 -19 7 -51 66 -44 83 7 19 15 19 38 -2z m146 -15 c2
-16 -1 -28 -7 -28 -25 0 -41 14 -41 37 0 20 4 24 23 21 16 -2 23 -11 25 -30z
m-3868 -1 c0 -16 -9 -28 -25 -35 -21 -10 -25 -9 -25 5 0 18 28 53 42 53 4 0 8
-11 8 -23z m779 -43 c3 -2 -6 -16 -20 -30 -26 -27 -59 -26 -91 3 -34 30 -22
40 45 35 34 -2 64 -6 66 -8z m1039 3 c102 0 115 -11 67 -57 l-34 -33 -37 32
c-68 60 -102 60 -144 1 -12 -16 -25 -30 -29 -30 -5 0 -29 18 -54 40 -61 54
-88 53 -141 -5 -42 -45 -66 -57 -66 -32 0 16 34 49 70 68 43 22 91 28 190 22
52 -3 132 -6 178 -6z m-1751 -19 c-3 -8 -6 -5 -6 6 -1 11 2 17 5 13 3 -3 4
-12 1 -19z m453 12 c0 -12 -34 -30 -58 -30 -10 0 -27 9 -37 20 -18 20 -17 20
38 20 32 0 57 -4 57 -10z m495 -15 c-33 -33 -32 -71 6 -157 35 -80 33 -109 -9
-135 -15 -9 -44 -32 -65 -50 -20 -18 -46 -33 -57 -33 -24 0 -24 0 -5 36 10 20
15 57 14 123 -1 82 2 97 22 124 14 20 19 34 13 43 -5 6 -19 26 -32 43 l-23 31
80 0 80 0 -24 -25z m173 2 c24 -25 20 -39 -6 -30 -22 8 -52 34 -52 45 0 17 37
7 58 -15z m1125 -25 c-46 -42 -50 -66 -18 -112 23 -33 26 -46 23 -97 -4 -54
-6 -58 -30 -61 -24 -3 -25 -1 -31 65 -14 146 -5 192 44 219 40 22 45 16 12
-14z m252 12 c11 -4 8 -11 -13 -29 -27 -23 -27 -24 -10 -53 32 -53 40 -119 28
-209 -7 -46 -14 -83 -17 -83 -12 0 -99 74 -110 93 -23 42 -15 94 23 152 41 62
41 94 -1 113 -41 19 -20 35 36 28 27 -4 56 -9 64 -12z m1065 1 c0 -8 -4 -15
-10 -15 -5 0 -10 7 -10 15 0 8 5 15 10 15 6 0 10 -7 10 -15z m-1547 -33 c19
-17 23 -42 6 -42 -13 0 -69 58 -69 71 0 11 36 -6 63 -29z m717 24 c0 -7 -6
-19 -14 -25 -11 -10 -25 -7 -63 13 l-48 25 63 1 c46 0 62 -3 62 -14z m229 0
c10 -12 8 -17 -7 -25 -15 -8 -23 -7 -32 4 -13 16 -6 35 14 35 8 0 19 -6 25
-14z m1561 -85 c0 -104 -10 -133 -29 -79 -14 40 -14 106 0 147 19 55 29 33 29
-68z m-3375 -21 c-5 -42 -3 -65 5 -75 9 -11 8 -22 -7 -52 -10 -21 -25 -38 -33
-38 -25 0 -25 101 0 168 28 76 44 74 35 -3z m-453 -5 c17 -24 30 -60 34 -91 5
-45 3 -54 -16 -72 -21 -19 -21 -21 -6 -51 l16 -31 -40 -25 c-22 -14 -40 -29
-40 -34 0 -4 15 -24 34 -43 20 -21 37 -51 41 -72 8 -42 -2 -126 -15 -126 -13
0 -22 -37 -15 -59 4 -15 19 -21 61 -27 30 -3 57 -10 60 -15 8 -14 -44 -22 -98
-15 -78 11 -88 19 -88 75 0 39 -6 54 -30 81 -38 42 -38 71 0 135 36 61 37 85
5 115 -23 21 -25 31 -25 105 0 90 12 138 43 173 28 30 46 25 79 -23z m2037
-20 c35 -41 40 -78 16 -145 -8 -23 -15 -62 -15 -85 0 -29 -6 -47 -20 -60 -28
-25 -25 -49 11 -90 l31 -35 -31 -65 c-38 -80 -73 -103 -102 -66 -27 33 -24 72
11 151 17 38 30 75 30 83 0 9 -13 27 -30 40 -28 24 -29 26 -10 32 27 8 25 28
-5 73 -26 37 -33 86 -15 97 6 3 10 14 10 23 0 19 58 82 76 82 7 0 26 -16 43
-35z m252 -15 c20 -36 27 -136 9 -125 -5 3 -27 -3 -49 -15 -51 -26 -66 -25
-85 2 -29 41 -20 84 26 134 49 53 73 54 99 4z m-1751 15 c0 -8 -6 -15 -14 -15
-17 0 -28 14 -19 24 12 12 33 6 33 -9z m897 -17 c-3 -7 -5 -2 -5 12 0 14 2 19
5 13 2 -7 2 -19 0 -25z m-897 -48 c0 -5 -9 -10 -21 -10 -11 0 -17 5 -14 10 3
6 13 10 21 10 8 0 14 -4 14 -10z m90 -20 c0 -5 -4 -10 -10 -10 -5 0 -10 5 -10
10 0 6 5 10 10 10 6 0 10 -4 10 -10z m-3265 -103 c12 -19 13 -30 4 -55 -10
-30 -9 -51 7 -144 5 -32 1 -46 -25 -86 -35 -56 -37 -69 -15 -100 30 -43 -25
-72 -61 -33 -15 18 -17 38 -14 175 4 138 2 155 -13 165 -27 16 -22 56 8 80 37
29 89 28 109 -2z m3275 15 c0 -13 -12 -22 -22 -16 -10 6 -1 24 13 24 5 0 9 -4
9 -8z m265 -32 c4 -6 -7 -10 -24 -10 -29 0 -41 17 -25 33 8 7 40 -8 49 -23z
m-499 -17 c40 -26 53 -45 29 -44 -34 1 -105 25 -105 35 0 12 19 36 28 36 3 0
24 -12 48 -27z m-2938 -15 c2 -9 -6 -18 -18 -21 -14 -4 -20 0 -20 12 0 33 32
41 38 9z m742 -2 c0 -33 -10 -57 -21 -50 -10 6 -12 57 -2 67 13 14 23 6 23
-17z m4088 6 c3 -11 -56 -48 -64 -39 -2 2 5 16 17 31 21 27 39 30 47 8z
m-3558 -46 c0 -31 -12 -66 -46 -130 -41 -78 -45 -93 -42 -142 3 -50 1 -54 -17
-52 -15 2 -23 18 -36 68 -10 36 -26 72 -37 81 -20 16 -20 16 0 75 25 75 35 87
71 81 22 -3 33 2 47 22 34 46 41 52 51 46 5 -4 9 -25 9 -49z m2864 33 c-8 -14
-24 -10 -24 6 0 9 6 12 15 9 8 -4 12 -10 9 -15z m-2464 -9 c0 -5 -11 -10 -24
-10 -14 0 -28 5 -31 10 -4 6 7 10 24 10 17 0 31 -4 31 -10z m5490 -12 c54 -37
60 -54 27 -81 l-28 -22 -2 -151 c-2 -157 -9 -184 -47 -184 -34 0 -44 26 -26
70 12 30 13 46 6 60 -6 11 -14 20 -18 20 -13 0 -1 253 14 283 18 33 31 34 74
5z m-4100 -17 c0 -11 -4 -23 -10 -26 -6 -4 -10 5 -10 19 0 14 5 26 10 26 6 0
10 -9 10 -19z m918 -40 c2 -40 0 -52 -10 -49 -40 13 -49 114 -10 106 13 -2 18
-16 20 -57z m2300 -5 c-2 -16 -9 -31 -15 -34 -9 -3 -13 11 -13 50 1 49 2 52
16 33 8 -11 14 -33 12 -49z m722 15 c0 -6 -4 -13 -10 -16 -5 -3 -10 1 -10 9 0
9 5 16 10 16 6 0 10 -4 10 -9z m-6190 -21 c0 -11 -4 -20 -10 -20 -5 0 -10 9
-10 20 0 11 5 20 10 20 6 0 10 -9 10 -20z m1197 -35 c38 -40 42 -48 32 -68
-22 -43 -58 -84 -77 -89 -17 -5 -22 5 -40 69 -20 72 -20 94 1 121 17 22 40 13
84 -33z m2309 12 l27 -23 -18 -60 c-10 -32 -24 -79 -30 -104 l-12 -45 -18 35
c-9 19 -28 49 -41 67 -21 27 -22 35 -12 65 15 44 46 88 63 88 8 0 26 -10 41
-23z m750 -12 c13 -20 14 -36 8 -87 -5 -35 -7 -73 -6 -86 3 -20 -1 -23 -24
-20 -21 2 -35 15 -56 52 l-29 48 38 59 c21 32 41 59 45 59 4 0 15 -11 24 -25z
m-4332 -20 c5 -24 0 -61 -13 -110 -12 -42 -21 -88 -21 -103 l-1 -27 -21 25
c-18 22 -20 34 -15 112 5 89 23 138 51 138 8 0 17 -15 20 -35z m-737 -29 c-9
-26 -27 -15 -27 16 1 31 1 32 15 13 9 -10 14 -24 12 -29z m322 -8 c-1 -13 -5
-36 -9 -53 -7 -26 -8 -22 -9 23 0 29 3 52 9 52 6 0 9 -10 9 -22z m186 -30 c10
-51 2 -141 -12 -146 -10 -3 -13 19 -13 87 0 90 13 121 25 59z m-95 -57 c0 -73
-10 -104 -28 -87 -12 12 -14 123 -3 145 22 39 31 22 31 -58z m5884 53 c9 -23
7 -207 -2 -222 -10 -15 -38 -7 -46 14 -3 8 -1 25 4 38 5 14 5 39 -1 62 -14 62
-11 102 9 113 24 14 29 13 36 -5z m-6091 -41 c7 -37 -3 -95 -16 -90 -5 1 -12
18 -14 37 -7 66 19 112 30 53z m389 -40 c-10 -26 -10 -24 -11 22 0 42 2 46 11
28 7 -15 7 -30 0 -50z m-492 -5 c0 -35 -2 -39 -15 -28 -15 12 -21 61 -9 73 14
14 24 -6 24 -45z m6480 -48 c0 -63 -12 -102 -26 -88 -3 4 -3 46 1 94 8 101 25
97 25 -6z m297 -27 c-2 -21 -4 -6 -4 32 0 39 2 55 4 38 2 -18 2 -50 0 -70z
m-98 -30 c1 -13 -3 -23 -9 -23 -6 0 -9 28 -9 68 1 66 2 66 10 22 4 -25 8 -55
8 -67z m-107 5 c-2 -16 -9 -28 -14 -28 -6 0 -8 10 -4 23 3 12 6 36 7 52 1 29
1 29 8 5 4 -14 5 -37 3 -52z m-285 5 c-3 -10 -5 -4 -5 12 0 17 2 24 5 18 2 -7
2 -21 0 -30z m-3469 10 c2 -7 -4 -16 -13 -19 -19 -8 -105 15 -105 28 0 14 113
5 118 -9z m1267 -3 c0 -18 -33 -26 -47 -12 -6 6 -7 15 -3 22 10 16 50 8 50
-10z m210 -9 c17 -7 16 -9 -9 -15 -31 -8 -42 -3 -31 13 7 12 12 13 40 2z m228
-1 c9 0 17 -4 17 -10 0 -11 -39 -13 -64 -4 -25 9 -19 27 7 20 12 -3 30 -6 40
-6z"/>
<path d="M3025 6518 c-24 -14 -35 -28 -35 -47 0 -11 4 -10 19 3 17 16 22 16
48 2 16 -8 35 -22 42 -30 16 -19 10 -22 -69 -31 -110 -12 -169 -61 -140 -115
11 -21 17 -22 76 -15 52 5 70 3 90 -10 21 -13 31 -14 59 -5 43 14 49 35 35
106 -7 31 -9 69 -6 85 10 51 -65 87 -119 57z"/>
<path d="M9028 6755 c-65 -36 -38 -88 42 -83 45 3 45 3 48 42 5 56 -32 72 -90
41z"/>
<path d="M8879 6417 c-28 -19 -34 -29 -32 -56 1 -30 -3 -34 -53 -56 -48 -21
-54 -27 -54 -54 0 -30 29 -71 50 -71 5 0 29 5 53 12 25 6 52 8 63 3 23 -10 83
-6 107 6 14 8 16 18 11 52 -8 50 -21 62 -74 71 -49 8 -51 25 -7 61 31 25 31
26 13 40 -27 20 -37 19 -77 -8z"/>
<path d="M4137 6242 c-59 -60 -46 -92 38 -92 l51 0 0 43 c0 23 4 52 8 65 8 20
5 22 -26 22 -26 0 -42 -9 -71 -38z"/>
<path d="M7930 6435 c0 -15 4 -24 10 -20 6 3 10 12 10 20 0 8 -4 17 -10 20 -6
4 -10 -5 -10 -20z"/>
<path d="M2636 5952 c-5 -8 45 -52 59 -52 3 0 5 9 5 20 0 28 -51 53 -64 32z"/>
<path d="M3082 5939 c-27 -10 -21 -26 16 -40 30 -12 57 8 46 34 -7 19 -27 21
-62 6z"/>
<path d="M2916 5923 c-11 -11 -6 -41 9 -56 11 -11 15 -46 16 -143 3 -138 -3
-162 -48 -200 l-26 -22 22 -7 c15 -5 29 -1 43 12 16 15 37 18 112 18 l91 0 3
145 c1 79 1 149 -2 156 -7 19 -98 -2 -118 -27 -10 -12 -18 -33 -18 -48 -1 -25
-1 -25 -15 -7 -8 11 -15 39 -15 62 0 25 -6 47 -15 54 -8 7 -15 23 -15 36 0 24
-12 38 -24 27z"/>
<path d="M2578 5858 c-23 -18 -30 -19 -43 -8 -8 7 -19 10 -23 6 -4 -4 -8 -79
-10 -167 l-3 -159 65 0 66 0 0 138 c0 75 3 154 6 175 6 32 4 37 -12 36 -11 0
-31 -10 -46 -21z"/>
<path d="M4330 5704 c-6 -15 -8 -29 -5 -33 10 -10 40 16 40 34 0 30 -24 29
-35 -1z"/>
<path d="M3447 5694 c-14 -14 -7 -51 13 -69 19 -17 20 -17 26 0 13 33 -19 89
-39 69z"/>
<path d="M3216 5531 c-22 -24 -20 -31 9 -31 18 0 25 5 25 19 0 28 -15 33 -34
12z"/>
<path d="M2715 5510 c-4 -6 5 -10 19 -10 14 0 26 5 26 10 0 6 -9 10 -19 10
-11 0 -23 -4 -26 -10z"/>
<path d="M4470 5230 c0 -11 5 -20 10 -20 6 0 10 9 10 20 0 11 -4 20 -10 20 -5
0 -10 -9 -10 -20z"/>
<path d="M4943 5234 c-8 -22 9 -48 36 -52 27 -4 29 28 3 51 -23 21 -31 21 -39
1z"/>
<path d="M9514 5766 c-7 -20 2 -46 16 -46 13 0 13 47 0 55 -6 3 -13 -1 -16 -9z"/>
<path d="M7640 5655 c-10 -13 -10 -19 4 -34 23 -26 56 -33 63 -15 5 14 -32 64
-48 64 -3 0 -12 -7 -19 -15z"/>
<path d="M6750 5640 c0 -11 5 -20 10 -20 6 0 10 9 10 20 0 11 -4 20 -10 20 -5
0 -10 -9 -10 -20z"/>
<path d="M5766 5314 c-9 -8 -16 -24 -16 -35 0 -14 7 -19 30 -19 28 0 30 3 30
35 0 39 -17 46 -44 19z"/>
<path d="M6002 5238 c5 -15 58 -24 58 -10 0 11 -24 22 -47 22 -8 0 -13 -6 -11
-12z"/>
<path d="M1585 7186 c-46 -21 -67 -51 -73 -104 -3 -41 0 -52 22 -79 54 -64
138 -64 191 -2 76 91 -32 234 -140 185z"/>
<path d="M10360 7003 c-30 -11 -70 -57 -76 -89 -15 -80 40 -144 125 -144 36 0
49 6 77 34 29 29 34 41 34 80 0 53 -20 90 -61 112 -28 14 -71 17 -99 7z"/>
<path d="M1515 6860 c-35 -14 -66 -57 -72 -97 -10 -77 43 -133 128 -133 33 0
47 6 75 34 28 28 34 42 34 75 0 96 -81 156 -165 121z"/>
<path d="M11143 6835 c-226 -49 -360 -252 -324 -492 34 -227 200 -372 426
-373 174 0 318 88 388 237 25 55 32 84 35 153 12 248 -101 419 -313 475 -71
18 -129 18 -212 0z m306 -216 c120 -25 188 -107 179 -216 -12 -136 -168 -212
-443 -216 -212 -3 -325 68 -325 203 0 114 92 190 275 226 76 15 249 17 314 3z"/>
<path d="M481 6714 c-67 -34 -105 -90 -125 -188 -18 -83 -45 -466 -33 -466 8
0 12 9 21 52 4 15 17 35 30 43 21 14 51 14 312 -5 159 -11 313 -22 342 -26 68
-7 92 -30 92 -84 0 -22 5 -40 10 -40 6 0 10 4 10 8 0 12 19 266 25 345 6 69
-7 94 -19 35 -11 -57 -30 -68 -115 -68 -42 0 -113 3 -158 7 l-83 6 0 97 c0
127 -19 192 -74 246 -68 68 -148 81 -235 38z m186 -199 c45 -19 73 -68 73
-129 l0 -49 -102 7 c-57 4 -138 9 -181 13 l-78 6 6 41 c6 32 39 105 48 106 1
0 20 7 42 15 46 17 138 12 192 -10z"/>
<path d="M10393 6661 c-41 -26 -53 -49 -53 -106 0 -40 5 -52 34 -81 28 -28 42
-34 76 -34 114 0 170 124 92 203 -39 39 -103 47 -149 18z"/>
<path d="M1462 6524 c-41 -21 -62 -60 -62 -115 0 -33 6 -47 34 -75 30 -30 40
-34 86 -34 43 0 56 4 80 29 99 99 -13 258 -138 195z"/>
<path d="M10435 6336 c-85 -37 -90 -159 -10 -212 32 -21 97 -20 131 2 29 19
54 69 54 106 0 34 -35 85 -69 103 -36 18 -66 19 -106 1z"/>
<path d="M1454 6196 c-104 -47 -97 -190 11 -226 43 -14 92 -1 125 35 27 29 37
99 18 134 -30 55 -100 81 -154 57z"/>
<path d="M10450 6007 c-64 -22 -98 -106 -67 -167 16 -32 73 -70 104 -70 101 0
161 123 98 199 -23 27 -38 35 -85 46 -8 2 -31 -2 -50 -8z"/>
<path d="M1431 5844 c-43 -36 -58 -89 -38 -137 18 -42 68 -77 112 -77 44 0 94
35 112 77 32 77 -27 163 -112 163 -32 0 -51 -7 -74 -26z"/>
<path d="M10408 5664 c-54 -29 -74 -109 -42 -164 63 -105 224 -62 224 60 0 92
-99 149 -182 104z"/>
<path d="M1472 5520 c-46 -28 -67 -82 -53 -131 35 -117 193 -119 231 -4 34
103 -85 194 -178 135z"/>
<path d="M2550 5340 c-12 -8 -10 -10 11 -10 28 0 67 -24 53 -32 -5 -3 -26 -11
-47 -17 -45 -15 -39 -31 12 -31 27 0 46 7 65 25 33 31 33 41 -4 60 -33 17 -68
19 -90 5z"/>
<path d="M2998 5344 c-4 -3 11 -29 33 -56 36 -46 38 -52 24 -68 -16 -18 -12
-45 9 -53 16 -7 69 19 92 44 15 17 16 24 6 39 -7 11 -12 28 -12 39 0 27 -24
43 -72 46 -24 1 -50 5 -59 9 -8 4 -18 4 -21 0z"/>
<path d="M10363 5330 c-41 -24 -53 -48 -53 -102 0 -50 19 -82 60 -103 50 -26
96 -19 138 19 34 31 37 39 37 86 0 47 -3 55 -37 86 -44 40 -94 45 -145 14z"/>
<path d="M2876 5247 c-18 -13 -18 -15 3 -44 14 -18 26 -53 29 -84 10 -76 27
-67 30 16 3 98 -21 142 -62 112z"/>
<path d="M1528 5194 c-77 -41 -75 -169 2 -209 84 -43 180 13 180 105 0 92 -99
149 -182 104z"/>
<path d="M2570 5195 c0 -8 7 -15 15 -15 8 0 15 7 15 15 0 8 -7 15 -15 15 -8 0
-15 -7 -15 -15z"/>
<path d="M782 5064 c-12 -8 -22 -24 -22 -35 0 -28 -16 -56 -61 -107 -43 -50
-55 -85 -39 -122 12 -28 21 -34 102 -68 25 -11 54 -32 63 -46 20 -30 73 -43
104 -27 12 7 37 44 55 84 24 49 44 78 65 90 36 21 39 44 11 105 -15 34 -24 42
-45 42 -18 0 -43 16 -79 50 -45 43 -59 50 -92 50 -22 0 -50 -7 -62 -16z m106
-46 c7 -7 12 -21 12 -33 0 -31 -19 -45 -62 -45 -32 0 -39 4 -44 25 -12 48 59
88 94 53z m115 -90 c27 -21 25 -57 -4 -75 -32 -20 -55 -12 -71 23 -11 23 -10
28 11 45 27 22 41 24 64 7z m-215 -50 c7 -7 12 -24 12 -39 0 -20 -7 -30 -31
-40 -29 -12 -33 -11 -50 10 -34 41 -18 81 31 81 14 0 31 -5 38 -12z m137 -123
c0 -36 -3 -40 -28 -43 -34 -4 -57 13 -57 42 0 31 20 47 55 44 28 -3 30 -6 30
-43z"/>
<path d="M10314 5016 c-95 -42 -100 -177 -8 -221 41 -19 67 -19 105 0 63 33
86 112 49 172 -31 52 -93 72 -146 49z"/>
<path d="M8580 4948 c0 -16 5 -28 10 -28 13 0 13 20 0 40 -8 12 -10 9 -10 -12z"/>
<path d="M11115 4909 c-22 -12 -56 -30 -75 -40 -19 -11 -42 -19 -51 -19 -29 0
-69 -39 -69 -68 0 -15 17 -54 37 -86 25 -41 37 -71 36 -95 -1 -19 5 -45 13
-57 26 -38 59 -38 143 0 42 19 91 40 109 46 60 23 79 89 41 140 -15 19 -35 60
-44 90 -18 55 -62 110 -87 110 -8 0 -32 -10 -53 -21z m74 -63 c8 -9 8 -21 1
-40 -12 -33 -34 -42 -66 -28 -26 13 -33 49 -12 70 16 16 63 15 77 -2z m-145
-62 c22 -9 20 -51 -3 -64 -33 -17 -61 -12 -73 15 -19 42 23 69 76 49z m218
-78 c13 -31 5 -54 -24 -65 -51 -19 -83 20 -54 64 22 33 63 33 78 1z m-146 -57
c14 -11 6 -65 -12 -79 -22 -19 -68 9 -72 43 -6 47 43 68 84 36z"/>
<path d="M1624 4880 c-11 -4 -33 -22 -47 -40 -55 -65 -23 -166 60 -189 98 -27
186 78 140 169 -27 53 -99 82 -153 60z"/>
<path d="M3430 4792 c0 -5 6 -15 14 -21 16 -13 49 -4 43 13 -4 14 -57 21 -57
8z"/>
<path d="M3540 4765 c0 -14 5 -25 10 -25 6 0 10 11 10 25 0 14 -4 25 -10 25
-5 0 -10 -11 -10 -25z"/>
<path d="M3622 4758 c2 -12 10 -23 18 -23 22 0 19 39 -3 43 -15 3 -18 -1 -15
-20z"/>
<path d="M3892 4720 c0 -19 2 -27 5 -17 2 9 2 25 0 35 -3 9 -5 1 -5 -18z"/>
<path d="M10223 4694 c-127 -44 -93 -229 42 -229 110 0 162 126 85 203 -35 35
-76 43 -127 26z"/>
<path d="M7816 4693 c-11 -11 -6 -23 9 -23 8 0 15 4 15 9 0 13 -16 22 -24 14z"/>
<path d="M2013 4654 c-8 -22 8 -33 40 -27 32 6 35 18 8 33 -27 14 -41 13 -48
-6z"/>
<path d="M3415 4590 c-4 -7 -3 -16 3 -22 14 -14 45 -2 40 15 -6 16 -34 21 -43
7z"/>
<path d="M2020 4560 c-13 -25 -5 -40 21 -40 25 0 35 25 19 45 -17 20 -27 19
-40 -5z"/>
<path d="M1725 4560 c-33 -13 -65 -55 -71 -92 -13 -75 46 -138 126 -138 34 0
48 6 76 34 29 29 34 41 34 80 0 27 -7 58 -16 72 -31 46 -97 66 -149 44z"/>
<path d="M2015 4480 c-8 -12 3 -50 14 -50 15 0 43 39 36 49 -8 14 -42 14 -50
1z"/>
<path d="M4016 4370 c-18 -46 -45 -52 -86 -20 -32 25 -52 25 -74 1 -12 -13
-16 -32 -14 -58 2 -31 7 -39 27 -41 17 -3 31 5 47 25 l24 28 23 -27 c27 -33
50 -35 105 -10 l41 18 -38 63 -38 62 -17 -41z"/>
<path d="M10094 4380 c-82 -33 -85 -173 -4 -215 107 -56 221 58 165 165 -26
51 -102 74 -161 50z"/>
<path d="M4222 4343 c-7 -3 -19 -17 -27 -33 -13 -25 -13 -29 6 -46 20 -18 21
-18 40 5 35 43 23 91 -19 74z"/>
<path d="M7675 4280 c-3 -5 -1 -20 6 -32 23 -43 48 -49 80 -17 20 20 20 22 3
40 -18 20 -78 26 -89 9z"/>
<path d="M4090 4192 c-19 -9 -34 -21 -34 -27 2 -19 50 -34 123 -37 72 -2 73
-2 104 32 l31 34 -25 7 c-50 14 -163 9 -199 -9z"/>
<path d="M7657 4173 c-16 -16 -5 -45 26 -63 27 -17 46 -20 122 -18 84 3 90 5
93 25 4 26 -29 38 -138 53 -92 12 -95 12 -103 3z"/>
<path d="M1964 3926 c-29 -29 -34 -41 -34 -80 0 -74 49 -126 117 -126 58 0
123 64 123 120 0 36 -31 90 -61 105 -15 8 -47 15 -70 15 -33 0 -47 -6 -75 -34z"/>
<path d="M8311 3885 c-158 -55 -221 -111 -221 -195 0 -18 -9 -43 -20 -57 -24
-31 -25 -41 -3 -124 16 -63 16 -68 0 -93 -10 -14 -35 -37 -56 -50 -73 -47 -84
-72 -111 -255 -13 -88 -41 -144 -86 -171 -39 -22 -84 -105 -84 -153 0 -45 -38
-153 -89 -254 -40 -81 -96 -231 -88 -239 2 -2 61 57 131 131 70 74 134 135
141 135 32 0 23 -26 -32 -96 -139 -180 -174 -227 -169 -231 3 -3 45 17 93 43
129 72 168 85 232 82 51 -2 65 2 156 51 317 172 472 251 490 251 27 0 65 27
65 45 0 18 -54 -2 -255 -90 -260 -114 -301 -119 -324 -39 -12 43 9 82 62 116
23 15 55 40 71 57 40 42 63 40 82 -6 l16 -36 259 259 c142 142 259 261 259
263 0 4 5 7 -228 -147 -143 -95 -175 -112 -187 -102 -8 7 -15 25 -15 41 0 15
-4 30 -8 33 -15 9 -139 -104 -290 -263 -79 -83 -153 -156 -164 -162 -20 -11
-21 -9 -14 31 9 60 27 89 104 172 93 101 118 136 133 188 16 56 127 219 177
260 20 16 52 33 70 36 18 4 48 20 65 36 100 93 234 125 407 98 36 -6 144 -33
240 -60 97 -28 181 -50 188 -50 28 0 7 22 -58 60 -68 39 -104 75 -94 91 3 5
56 25 118 44 115 36 176 69 158 87 -6 6 -34 2 -77 -11 -79 -25 -142 -27 -192
-6 -36 15 -36 15 -17 36 10 12 44 34 75 49 102 52 100 82 -5 60 -93 -19 -199
3 -387 81 -278 116 -327 121 -518 54z m359 -54 c30 -10 120 -51 200 -90 134
-66 142 -71 104 -71 -28 0 -55 9 -88 31 -84 53 -152 74 -241 74 -118 0 -172
-17 -241 -77 -66 -56 -92 -69 -123 -61 -28 7 -28 54 0 99 26 43 106 101 155
114 54 13 169 4 234 -19z m164 -178 l99 -40 -74 -7 c-41 -3 -143 -23 -227 -43
-165 -40 -164 -40 -178 15 -5 17 1 31 21 52 81 84 190 91 359 23z m-609 -68
c22 -13 48 -25 58 -25 29 0 177 -111 177 -132 0 -10 -2 -18 -5 -18 -3 0 -43
29 -90 65 -101 77 -141 95 -207 95 -46 0 -48 1 -38 20 15 27 56 26 105 -5z
m49 -145 c38 -14 50 -44 35 -87 -11 -34 -151 -193 -170 -193 -5 0 -18 15 -30
33 -16 25 -19 45 -17 92 4 74 33 119 92 146 47 21 56 22 90 9z m-236 -245 c11
-14 27 -55 36 -93 10 -37 21 -74 26 -82 11 -18 -25 -90 -45 -90 -20 0 -52 65
-70 142 -15 65 -20 150 -9 161 10 9 40 -9 62 -38z m-105 -350 c3 -46 -19 -40
-32 9 -15 60 -14 64 9 40 12 -11 22 -33 23 -49z m-84 -55 c12 -30 21 -70 21
-88 0 -29 -3 -33 -22 -30 -31 4 -67 125 -49 165 15 32 23 24 50 -47z"/>
<path d="M10300 3863 c-26 -81 -30 -203 -11 -283 46 -187 207 -342 395 -380
113 -23 212 5 279 80 152 169 29 425 -214 447 -75 7 -136 -15 -179 -64 -37
-42 -50 -72 -59 -137 l-6 -49 -52 47 c-34 31 -64 71 -85 114 -31 61 -33 75
-35 176 -1 60 -4 111 -7 113 -3 3 -14 -26 -26 -64z m455 -321 c65 -26 157 -81
193 -115 36 -35 42 -75 15 -103 -41 -41 -223 13 -358 106 -43 29 -46 35 -41
63 15 76 80 93 191 49z"/>
<path d="M5975 3877 c-35 -30 -38 -85 -6 -127 26 -36 22 -56 -18 -94 -33 -32
-53 -27 -90 20 -25 32 -27 71 -4 119 16 34 16 36 -4 63 -42 56 -153 30 -153
-37 0 -15 14 -49 31 -76 l32 -50 -19 -35 c-28 -51 -48 -50 -84 7 -27 42 -31
54 -25 94 5 43 3 49 -26 73 -35 30 -58 32 -99 11 -62 -32 -59 -61 15 -153 38
-47 43 -73 20 -92 -13 -11 -22 -10 -48 2 -35 17 -46 33 -78 121 -28 79 -77 97
-133 48 -52 -45 -40 -93 38 -151 62 -45 71 -73 31 -92 -21 -9 -30 -7 -64 15
-22 14 -56 47 -77 72 -33 38 -44 45 -75 45 -45 0 -89 -32 -89 -65 0 -33 10
-55 24 -55 7 0 40 -14 74 -30 75 -38 212 -177 212 -216 0 -32 14 -58 57 -108
32 -39 43 -79 23 -91 -5 -3 -10 -19 -10 -35 0 -24 10 -37 55 -70 30 -22 55
-45 55 -49 0 -10 -51 -32 -129 -55 -69 -20 -221 -21 -276 -1 -52 19 -75 19
-103 -1 -34 -23 -49 -61 -66 -164 -41 -246 -49 -532 -21 -747 73 -560 327
-1052 726 -1408 99 -89 232 -189 308 -232 l39 -22 83 61 c107 79 310 277 404
393 172 214 319 458 435 723 112 256 144 436 145 797 0 263 -12 362 -64 525
-32 99 -12 93 -211 66 -156 -22 -244 -15 -352 26 -16 6 -28 14 -28 18 0 4 31
29 70 56 48 34 67 54 63 64 -17 44 -14 71 17 124 17 31 32 66 34 78 1 13 15
37 32 54 16 16 51 54 79 84 53 56 95 80 143 80 20 0 44 13 73 39 l44 39 -20
39 c-30 57 -63 56 -143 -3 -74 -55 -127 -65 -127 -24 0 18 14 35 53 64 28 21
52 46 52 56 0 29 -62 100 -88 100 -42 0 -60 -18 -87 -90 -28 -72 -49 -94 -88
-88 -37 5 -32 41 13 93 43 49 44 64 13 112 -19 28 -69 46 -94 33 -26 -15 -36
-37 -44 -103 -8 -59 -42 -117 -70 -117 -22 0 -65 41 -65 61 0 11 16 35 35 55
41 41 45 78 14 118 -42 54 -75 54 -126 -1 -27 -29 -28 -40 -7 -93 l16 -40 -37
-45 c-41 -51 -53 -54 -83 -22 -30 31 -31 106 -2 132 11 10 20 26 20 36 0 75
-88 115 -145 66z m101 -317 c20 -27 42 -50 50 -50 8 0 30 16 50 35 46 47 65
45 87 -8 9 -23 27 -55 40 -71 21 -26 25 -27 61 -17 64 17 61 1 -5 -30 -68 -32
-91 -31 -115 7 -22 32 -46 30 -88 -6 l-34 -30 -21 35 c-25 42 -50 45 -106 10
-52 -31 -80 -32 -101 0 -22 34 -44 31 -94 -10 -49 -41 -51 -41 -75 -16 -17 20
-17 20 -44 1 -33 -24 -49 -26 -133 -16 -72 9 -85 23 -47 49 14 11 38 13 83 10
58 -5 64 -4 83 20 17 22 26 25 56 20 33 -5 37 -3 56 35 11 22 25 43 30 46 13
9 77 -21 101 -46 l21 -23 22 27 c12 15 30 38 40 52 26 37 42 32 83 -24z m-119
-295 c-2 -37 -5 -45 -21 -45 -14 0 -17 5 -12 23 3 12 6 32 6 45 0 12 6 22 14
22 11 0 14 -12 13 -45z m118 -145 c100 -14 275 -51 275 -59 0 -3 -19 -16 -42
-29 -41 -21 -52 -22 -288 -21 -196 0 -258 4 -308 17 -35 9 -64 21 -65 27 -3
14 104 54 171 64 80 12 175 12 257 1z m-480 -289 c33 -7 25 -9 -45 -9 -59 0
-76 3 -55 8 40 10 53 10 100 1z m583 -8 c-86 -2 -230 -2 -320 0 -90 1 -19 3
157 3 176 0 249 -2 163 -3z m-414 -124 c38 -23 98 -55 134 -71 98 -44 183
-102 239 -160 80 -85 101 -129 119 -254 8 -60 19 -136 24 -169 5 -33 18 -89
30 -125 12 -36 24 -94 27 -130 3 -36 14 -76 23 -90 9 -14 34 -57 54 -96 43
-83 98 -140 151 -159 l39 -13 -35 -7 c-136 -30 -249 -151 -249 -267 0 -67 -19
-98 -100 -163 -53 -43 -77 -71 -100 -117 -16 -34 -30 -70 -30 -80 0 -20 -42
-68 -60 -68 -5 0 -10 17 -10 38 0 46 42 117 94 158 82 65 116 154 81 214 -39
68 -57 122 -79 244 -13 73 -31 146 -39 162 -21 41 -66 84 -103 100 -30 13 -47
34 -117 146 l-36 57 53 11 c51 10 96 39 96 61 0 11 -19 9 -96 -6 -28 -6 -39 1
-138 94 -59 56 -112 101 -119 101 -7 0 -23 -7 -36 -16 -22 -16 -23 -21 -17
-85 9 -90 -14 -93 -44 -7 -11 30 -11 46 0 94 13 53 13 57 -5 70 -10 8 -44 14
-74 14 -51 1 -54 2 -37 15 46 35 206 -2 308 -69 53 -36 118 -57 118 -39 0 5
-25 27 -55 49 -30 21 -55 44 -55 49 0 6 14 33 30 60 16 28 30 53 30 58 0 15
-25 6 -50 -18 -23 -22 -31 -24 -53 -16 -14 6 -33 21 -42 34 -19 29 -14 60 23
132 22 44 26 65 29 168 2 108 1 118 -17 129 -11 7 -20 19 -20 27 0 11 4 10 23
-3 12 -9 53 -34 91 -57z m-244 50 c136 -29 -57 -48 -297 -29 -87 6 -160 13
-162 15 -1 2 0 8 4 14 9 15 388 14 455 0z m1439 -8 c10 -18 4 -19 -113 -26
-68 -4 -316 -6 -550 -4 -358 4 -428 6 -436 19 -5 8 -6 18 -4 22 3 4 250 8 549
8 525 0 545 -1 554 -19z m-1431 -87 c34 -4 59 -10 57 -14 -11 -17 -119 -22
-332 -15 -180 6 -223 10 -223 21 0 12 39 14 219 14 120 0 246 -3 279 -6z
m1451 -17 c16 -20 -116 -27 -521 -27 -327 0 -338 1 -348 20 -11 20 -8 20 423
20 353 0 437 -3 446 -13z m-1407 -95 c15 -15 -239 -26 -401 -18 -141 8 -156
10 -145 28 9 14 531 5 546 -10z m1428 -15 c0 -25 -463 -37 -646 -16 -195 21
-138 28 254 28 322 1 392 -1 392 -12z m-1456 -73 c46 -18 -20 -24 -254 -24
-220 0 -259 2 -264 15 -5 13 27 15 248 15 140 0 261 -3 270 -6z m1279 -11
c146 -5 187 -9 187 -20 0 -10 -37 -13 -188 -13 -309 0 -522 11 -522 27 0 15
200 18 523 6z m-1391 -73 c89 0 98 -2 98 -19 0 -17 -11 -19 -152 -23 -238 -6
-401 12 -382 43 5 9 52 10 172 6 91 -4 209 -7 264 -7z m1348 -10 c69 -5 150
-13 180 -16 117 -14 3 -26 -260 -26 -290 -1 -330 3 -330 33 0 18 9 19 143 19
78 0 198 -5 267 -10z m-1534 -87 c73 -6 76 -8 39 -14 -53 -10 -160 -11 -221
-2 l-49 8 45 6 c69 9 100 10 186 2z m1474 -8 c251 -6 300 -11 300 -29 0 -7
-23 -11 -62 -12 -35 0 -108 -3 -163 -5 -81 -3 -106 0 -132 14 -30 16 -35 16
-97 0 -55 -15 -73 -16 -122 -5 -32 6 -62 16 -68 22 -13 13 31 28 74 24 19 -2
141 -6 270 -9z m-1491 -89 c9 -11 -3 -14 -66 -20 -127 -10 -143 -9 -143 14 0
19 7 20 99 20 71 0 102 -4 110 -14z m1225 -15 c9 -13 -19 -32 -38 -25 -19 7
-21 20 -3 27 20 8 35 8 41 -2z m495 3 c49 -6 61 -10 59 -23 -3 -12 -16 -16
-51 -17 -52 -1 -73 -14 -64 -38 4 -11 19 -16 46 -16 46 0 73 -9 65 -21 -3 -5
-39 -9 -80 -9 -68 0 -75 2 -70 18 4 12 -5 29 -29 52 -19 19 -35 40 -35 47 0
15 58 17 159 7z m-232 -73 c15 -22 23 -48 23 -75 l-1 -41 -30 35 c-40 46 -62
88 -55 107 9 23 38 11 63 -26z m-1434 -2 c21 -5 37 -16 37 -24 0 -12 -16 -16
-67 -17 -171 -6 -269 13 -236 45 10 11 224 8 266 -4z m112 -105 c36 -16 -59
-23 -222 -17 -138 6 -163 10 -148 24 8 9 350 2 370 -7z m1059 -10 c8 -20 -1
-34 -20 -34 -8 0 -14 10 -14 25 0 28 24 34 34 9z m538 -10 c23 -14 2 -24 -52
-24 -61 0 -70 6 -47 29 11 12 77 9 99 -5z m-422 -25 c0 -5 -4 -9 -10 -9 -5 0
-10 7 -10 16 0 8 5 12 10 9 6 -3 10 -10 10 -16z m-90 -64 c0 -8 -9 -15 -20
-15 -20 0 -26 11 -13 23 12 13 33 7 33 -8z m218 -8 c2 -10 -3 -17 -12 -17 -18
0 -29 16 -21 31 9 14 29 6 33 -14z m267 -2 c0 -13 -8 -21 -24 -23 -32 -5 -48
12 -31 33 18 22 55 15 55 -10z m-455 -84 c0 -5 -7 -11 -15 -15 -9 -3 -15 0
-15 9 0 8 7 15 15 15 8 0 15 -4 15 -9z m404 -1 l39 0 -19 -21 c-18 -20 -25
-21 -119 -14 -102 7 -123 14 -110 35 6 9 30 11 89 6 45 -3 99 -6 120 -6z
m-1208 -71 c3 -6 1 -16 -5 -22 -14 -14 -297 -20 -476 -10 -121 7 -140 10 -143
26 -3 16 17 17 307 17 212 0 312 -3 317 -11z m834 -34 c0 -8 -7 -15 -15 -15
-8 0 -15 7 -15 15 0 8 7 15 15 15 8 0 15 -7 15 -15z m345 6 l40 -7 -43 -8
c-24 -5 -69 -5 -100 0 -51 7 -54 8 -27 15 41 9 82 9 130 0z m-977 -62 c26 -22
50 -47 55 -54 4 -8 -4 -57 -18 -110 -14 -54 -25 -105 -25 -114 0 -10 -6 -26
-14 -36 -13 -18 -15 -17 -57 13 -35 26 -52 32 -96 32 -79 0 -157 -34 -212 -91
-26 -27 -55 -49 -64 -49 -33 0 -13 73 31 113 19 17 166 60 257 76 28 5 39 11
36 21 -18 71 -3 184 32 228 15 19 26 15 75 -29z m-423 -10 c125 -1 166 -4 135
-10 -55 -9 -359 -11 -452 -3 -107 11 -72 28 41 20 53 -3 177 -6 276 -7z m1361
-10 c63 -16 54 -29 -21 -29 -65 0 -75 6 -53 28 15 15 18 15 74 1z m-161 -9 c7
-12 -12 -40 -26 -40 -5 0 -9 11 -9 25 0 25 23 35 35 15z m-1065 -76 c56 -6 61
-8 40 -16 -37 -14 -530 1 -524 16 5 12 352 12 484 0z m1239 -18 c10 -12 8 -17
-8 -25 -11 -6 -28 -11 -39 -11 -23 0 -46 25 -37 40 9 15 71 12 84 -4z m-1361
-78 c3 -17 -10 -18 -167 -18 -165 0 -171 1 -171 20 0 20 5 20 167 18 151 -3
168 -5 171 -20z m1296 -14 c25 -10 19 -34 -8 -34 -31 0 -55 26 -29 33 10 3 19
5 20 6 1 0 8 -2 17 -5z m-1455 -70 c39 -5 57 -10 49 -15 -15 -10 -133 -12
-167 -2 -23 6 -23 7 -5 14 25 10 48 10 123 3z m1412 -14 c10 -6 19 -15 19 -20
0 -13 -157 -13 -164 -1 -15 23 107 41 145 21z m-1371 -90 c0 -5 -13 -10 -29
-10 -16 0 -43 -3 -60 -6 -24 -5 -31 -3 -31 10 0 13 11 16 60 16 33 0 60 -4 60
-10z m567 3 c87 -5 110 -9 106 -19 -10 -26 -333 -13 -333 12 0 16 51 18 227 7z
m773 -17 c0 -19 -32 -26 -132 -26 -81 0 -88 2 -88 20 0 19 7 20 110 20 87 0
110 -3 110 -14z m-937 -78 c372 -15 373 -33 2 -28 -137 2 -303 4 -367 4 -65 1
-118 2 -118 3 0 1 3 8 6 17 8 20 71 21 477 4z m882 -18 c13 -5 -20 -8 -90 -8
-71 0 -99 3 -80 8 41 10 146 10 170 0z m-584 -81 c5 -8 9 -18 9 -23 0 -4 -165
-5 -367 -1 -354 7 -393 11 -376 38 2 4 167 6 365 4 300 -3 361 -6 369 -18z
m525 -10 c11 -19 -19 -30 -64 -25 -57 8 -74 18 -42 27 40 11 98 10 106 -2z
m-600 -82 c4 -4 1 -14 -7 -23 -14 -13 -47 -14 -280 -4 -271 11 -299 14 -299
31 0 12 574 8 586 -4z m534 -11 c0 -18 -32 -26 -112 -26 -68 0 -79 5 -56 28
18 18 168 16 168 -2z m-680 -85 c15 -5 -50 -11 -156 -15 -177 -8 -230 -4 -219
15 7 11 338 11 375 0z m547 -1 c58 0 64 -2 53 -15 -7 -9 -19 -14 -26 -11 -19
7 -44 -27 -44 -62 0 -41 -27 -49 -115 -32 -83 16 -85 33 -3 29 58 -4 63 -2 75
21 11 21 10 27 -4 37 -9 7 -26 10 -39 7 -23 -6 -40 9 -28 27 4 6 19 9 36 5 17
-3 60 -6 95 -6z m-633 -80 c150 -11 194 -30 70 -30 -45 0 -122 -3 -172 -6
l-92 -7 0 27 c0 31 -3 30 194 16z m140 -105 c30 -23 10 -32 -89 -38 -94 -7
-137 4 -143 33 -4 22 204 26 232 5z m384 -9 c13 -14 -24 -26 -80 -26 -73 0
-93 7 -76 27 10 12 28 14 81 10 37 -2 71 -7 75 -11z m-91 -89 c21 -22 -28 -27
-218 -25 -191 3 -204 4 -207 22 -4 18 4 19 207 14 116 -3 214 -8 218 -11z
m-162 -97 c50 -7 50 -7 10 -9 -22 -1 -65 -4 -95 -8 -51 -6 -54 -5 -41 10 14
18 45 20 126 7z"/>
<path d="M5715 2480 c4 -6 11 -8 16 -5 14 9 11 15 -7 15 -8 0 -12 -5 -9 -10z"/>
<path d="M1484 3849 c-3 -6 5 -23 18 -37 32 -35 40 -59 28 -82 -11 -21 -32
-33 -327 -189 -224 -119 -238 -122 -289 -53 -18 23 -35 39 -37 34 -7 -10 189
-376 204 -381 8 -2 10 2 5 15 -28 69 -29 75 -9 102 11 15 144 92 343 198 179
96 330 175 335 177 17 6 -10 31 -140 131 -72 55 -127 91 -131 85z"/>
<path d="M7755 3828 c-3 -7 -43 -170 -90 -363 l-86 -350 31 -25 c30 -25 31
-26 20 -75 -5 -28 -15 -75 -20 -106 -15 -79 -26 -92 -67 -74 -69 30 -103 142
-108 361 -1 78 -7 149 -12 159 -13 22 -21 -298 -15 -546 l5 -175 28 -13 29
-13 0 -139 c0 -76 3 -139 8 -139 14 0 152 309 168 376 28 122 55 206 114 354
68 171 92 252 84 275 -6 14 -15 16 -49 11 -29 -5 -45 -3 -52 6 -9 11 3 184 30
446 4 39 -8 58 -18 30z"/>
<path d="M3294 3816 c-3 -8 -1 -23 5 -33 9 -15 10 -13 11 15 0 34 -7 42 -16
18z"/>
<path d="M2758 3804 c-33 -17 -29 -31 21 -66 37 -25 91 -116 91 -152 0 -9 13
-25 29 -37 46 -34 54 -66 46 -172 -6 -85 -5 -95 15 -119 11 -15 30 -30 40 -33
12 -4 34 -33 52 -68 78 -157 190 -304 273 -360 32 -22 106 -85 163 -139 114
-107 171 -141 277 -163 39 -8 95 -21 125 -30 70 -21 139 -14 290 26 178 48
205 50 231 23 11 -12 19 -30 17 -41 -4 -19 -9 -20 -45 -8 -22 6 -23 4 -23 -51
0 -45 5 -64 24 -89 35 -46 76 -61 112 -41 40 20 84 64 84 81 0 21 -13 19 -72
-11 -42 -21 -55 -24 -74 -15 -31 14 -30 27 6 81 35 52 38 85 10 102 -11 7 -20
23 -20 35 0 30 -15 37 -80 37 l-55 1 1 55 c2 83 54 194 156 327 44 57 46 77
17 170 -10 33 -10 51 0 95 22 92 -10 190 -106 326 -65 91 -136 138 -273 180
-100 30 -174 36 -258 18 -94 -19 -161 -56 -243 -133 -73 -69 -120 -147 -144
-238 -23 -88 -19 -135 21 -250 29 -84 44 -111 72 -136 34 -30 35 -33 21 -58
-8 -14 -26 -32 -41 -40 -24 -14 -32 -12 -106 17 -45 18 -90 32 -101 32 -12 0
-30 9 -42 21 -16 16 -20 28 -14 55 6 33 5 34 -17 29 -17 -4 -32 1 -50 18 -22
20 -25 30 -19 58 5 26 14 36 38 44 l31 10 -23 46 c-28 55 -49 73 -74 66 -15
-3 -20 2 -25 25 -3 17 -17 43 -31 60 -43 51 -29 121 28 132 141 29 139 28 174
86 18 30 32 65 33 78 0 22 -4 20 -52 -23 -42 -36 -59 -45 -83 -43 -19 2 -31 9
-33 21 -3 14 4 17 32 17 29 0 38 5 51 30 15 29 20 70 9 70 -3 0 -15 -5 -26
-11 -17 -9 -29 -5 -74 26 -73 51 -108 33 -69 -35 19 -33 19 -66 -1 -74 -11 -4
-30 9 -62 44 -58 64 -73 65 -69 3 3 -61 -18 -67 -68 -21 -25 23 -37 45 -42 73
-9 57 -26 66 -75 39z m1147 -74 c14 -5 29 -20 34 -34 9 -21 14 -23 54 -19 27
3 47 1 51 -6 5 -8 13 -8 28 0 27 14 44 -2 29 -28 -11 -21 -74 -73 -88 -73 -5
0 -26 14 -47 32 -34 28 -42 30 -67 21 -25 -10 -31 -9 -39 7 -12 23 -70 50
-107 50 l-28 0 30 18 c63 39 107 48 150 32z m-70 -180 c30 -48 30 -52 6 -67
-17 -11 -19 -20 -14 -66 5 -48 3 -56 -17 -70 -26 -18 -59 -10 -103 26 -57 46
-41 143 32 193 49 33 67 30 96 -16z m399 34 c24 -9 22 -81 -3 -89 -11 -3 -35
-25 -55 -49 -40 -49 -72 -64 -81 -37 -3 10 -16 27 -28 39 -20 19 -25 20 -43 8
-11 -8 -26 -33 -33 -56 -13 -45 -28 -55 -64 -46 -26 6 -52 71 -41 100 4 10 45
28 106 46 66 21 110 41 131 60 31 29 74 38 111 24z m-606 -146 c-2 -29 -8 -61
-12 -71 -7 -14 -2 -18 23 -23 39 -8 61 -38 61 -81 0 -31 -28 -73 -49 -73 -5 0
-43 16 -85 35 l-76 34 19 33 c10 18 24 58 31 88 8 34 23 65 41 82 41 42 52 36
47 -24z m703 2 c10 -6 37 -35 59 -66 l41 -55 -7 -70 c-4 -38 -10 -72 -15 -75
-24 -15 -124 68 -175 146 -35 52 -23 63 21 20 34 -33 35 -33 55 -15 30 28 25
53 -15 69 -37 16 -42 25 -23 44 15 15 33 15 59 2z m-1261 -114 c0 -28 -24 -51
-45 -42 -20 7 -19 22 5 46 27 27 40 25 40 -4z m1099 -10 c36 -22 -13 -82 -78
-97 -79 -18 -103 23 -55 92 l25 37 49 -13 c26 -7 53 -16 59 -19z m-319 -86
c11 -7 12 -12 3 -21 -8 -8 -14 -6 -22 10 -12 22 -5 27 19 11z m398 -32 c7 -7
12 -27 12 -45 0 -60 -52 -53 -65 7 -4 16 -4 34 0 40 8 14 38 13 53 -2z m-609
-58 c76 0 106 -23 96 -73 -15 -73 -71 -85 -124 -28 -15 16 -36 30 -46 32 -16
3 -21 14 -23 47 -3 41 -2 43 17 33 11 -6 47 -11 80 -11z m489 4 c47 -33 21
-94 -41 -94 -31 0 -77 36 -77 60 0 24 37 50 70 50 14 0 36 -7 48 -16z m205
-81 c13 -30 14 -41 4 -62 -18 -36 -33 -36 -41 0 -18 92 5 132 37 62z m-315
-35 c14 -14 22 -33 22 -53 0 -33 -31 -75 -55 -75 -20 0 -53 38 -66 77 -9 28
-8 38 6 59 13 21 22 24 43 19 15 -4 37 -16 50 -27z m-179 -9 c32 -34 36 -71
11 -91 -25 -21 -70 -24 -88 -6 -18 18 -14 62 9 92 25 31 42 33 68 5z m371 -42
c0 -18 -8 -24 -42 -33 -24 -6 -50 -14 -60 -18 -11 -5 -18 -1 -23 13 -9 30 1
41 38 41 18 0 39 5 47 10 25 16 40 11 40 -13z m-540 -52 c10 -13 9 -15 -9 -15
-12 0 -21 6 -21 15 0 8 4 15 9 15 5 0 14 -7 21 -15z m-212 -80 c24 -11 32 -21
32 -40 0 -31 -27 -33 -86 -6 -44 20 -119 82 -134 111 -9 17 37 1 188 -65z
m135 33 c-4 -7 -8 -31 -8 -53 0 -36 -3 -40 -25 -40 -21 0 -26 5 -28 32 -2 22
3 38 17 52 23 23 58 29 44 9z m623 -3 c44 -30 60 -136 22 -143 -12 -2 -18 3
-18 17 0 11 -19 35 -45 57 -47 38 -53 52 -33 72 16 16 49 15 74 -3z m-434
-143 c13 -25 5 -47 -25 -66 -25 -16 -49 3 -71 57 l-20 47 24 25 25 26 27 -33
c15 -18 33 -43 40 -56z m341 56 c28 -20 37 -58 14 -58 -8 0 -22 9 -32 20 -10
11 -26 20 -37 20 -21 0 -22 4 -7 31 10 20 14 19 62 -13z"/>
<path d="M9792 3783 c-65 -32 -84 -126 -36 -182 52 -62 147 -58 191 8 40 60
26 126 -36 168 -40 27 -73 29 -119 6z"/>
<path d="M2162 3663 c-40 -20 -62 -59 -62 -112 0 -81 88 -139 163 -108 42 18
77 68 77 112 0 43 -35 94 -75 111 -44 18 -62 17 -103 -3z"/>
<path d="M9615 3506 c-55 -24 -81 -80 -64 -140 28 -103 177 -118 223 -22 9 19
16 41 16 50 0 35 -30 86 -62 106 -38 23 -70 25 -113 6z"/>
<path d="M2324 3366 c-28 -28 -34 -41 -34 -77 0 -61 29 -105 79 -120 48 -14
80 -7 120 27 54 45 54 125 -1 176 -25 23 -39 28 -80 28 -44 0 -54 -4 -84 -34z"/>
<path d="M9399 3235 c-27 -14 -59 -69 -59 -99 0 -35 30 -86 62 -106 127 -77
251 98 137 194 -35 30 -97 35 -140 11z"/>
<path d="M1845 3172 c-77 -37 -113 -99 -122 -212 l-6 -68 -42 19 c-76 34 -127
35 -187 6 -154 -76 -149 -268 10 -407 169 -149 402 -32 402 202 0 26 2 48 4
48 2 0 20 -7 41 -16 76 -31 163 -16 211 38 35 37 44 63 44 120 -1 93 -68 202
-156 254 -60 35 -144 42 -199 16z m247 -109 c52 -47 42 -108 -27 -172 -47 -43
-102 -71 -141 -71 -23 0 -24 3 -24 72 0 86 26 150 74 179 36 23 88 20 118 -8z
m-370 -290 c-5 -115 -54 -199 -129 -224 -92 -30 -164 61 -119 150 33 64 161
144 221 139 l30 -3 -3 -62z"/>
<path d="M2583 3139 c-49 -14 -83 -62 -83 -116 0 -38 5 -50 33 -78 56 -56 111
-58 168 -7 36 32 49 100 27 141 -27 50 -88 76 -145 60z"/>
<path d="M3320 3089 c0 -16 47 -59 65 -59 18 0 20 24 3 37 -26 19 -68 33 -68
22z"/>
<path d="M9937 3069 c-55 -13 -91 -34 -122 -71 -37 -43 -46 -72 -46 -141 -1
-77 41 -165 118 -247 203 -220 467 -293 586 -161 45 50 61 99 54 172 -7 82
-47 150 -147 249 -149 148 -324 227 -443 199z m16 -100 c81 -42 457 -341 495
-394 29 -40 24 -76 -13 -101 -46 -30 -102 3 -370 215 -184 145 -235 196 -235
234 0 37 25 67 57 67 13 0 43 -10 66 -21z"/>
<path d="M9213 3000 c-107 -23 -125 -162 -30 -220 39 -24 68 -25 113 -4 42 20
64 59 64 113 0 73 -72 127 -147 111z"/>
<path d="M2764 2866 c-28 -28 -34 -41 -34 -77 0 -59 29 -104 75 -119 77 -25
152 20 162 97 10 77 -43 133 -128 133 -33 0 -47 -6 -75 -34z"/>
<path d="M8939 2755 c-62 -34 -74 -132 -23 -186 49 -51 124 -51 175 1 25 24
29 37 29 80 0 46 -4 56 -34 86 -28 28 -41 34 -77 34 -24 -1 -56 -7 -70 -15z"/>
<path d="M3029 2657 c-128 -86 -2 -279 132 -200 29 17 59 67 59 97 0 35 -30
86 -62 106 -43 26 -87 25 -129 -3z"/>
<path d="M2396 2500 c-71 -38 -131 -71 -133 -74 -3 -3 14 -27 37 -53 50 -56
91 -139 97 -198 7 -55 -22 -111 -84 -162 -99 -83 -151 -100 -212 -69 -43 23
-52 54 -36 122 17 72 2 119 -40 130 -60 15 -95 -28 -95 -114 1 -94 53 -162
174 -222 140 -71 321 -11 386 127 18 38 21 60 18 123 -4 90 -39 170 -117 267
l-51 63 30 15 c16 8 34 15 40 15 6 0 54 -39 106 -86 129 -116 179 -134 267
-96 l39 17 -136 133 c-74 72 -141 132 -148 131 -7 0 -71 -31 -142 -69z"/>
<path d="M8679 2537 c-44 -29 -64 -86 -49 -133 34 -102 179 -115 224 -20 21
45 20 74 -4 113 -38 63 -112 80 -171 40z"/>
<path d="M9411 2489 c-209 -38 -269 -291 -108 -457 58 -60 110 -85 177 -86 86
0 154 43 196 124 l17 35 24 -51 c56 -122 51 -224 -16 -356 -21 -43 -35 -78
-31 -78 19 0 102 109 134 175 97 199 65 409 -86 571 -93 99 -200 142 -307 123z
m-7 -99 c23 -11 64 -39 93 -62 62 -52 163 -166 163 -186 0 -21 -56 -72 -80
-72 -39 0 -92 33 -164 100 -117 109 -154 190 -104 224 29 21 43 20 92 -4z"/>
<path d="M3274 2436 c-28 -28 -34 -42 -34 -75 0 -57 22 -95 66 -116 94 -44
195 40 170 141 -4 15 -21 40 -38 56 -25 23 -39 28 -80 28 -44 0 -54 -4 -84
-34z"/>
<path d="M8433 2354 c-127 -44 -93 -229 42 -229 110 0 162 126 85 203 -35 35
-76 43 -127 26z"/>
<path d="M3590 2279 c-88 -35 -101 -147 -25 -207 55 -44 149 -22 179 42 20 42
20 57 2 101 -25 60 -95 88 -156 64z"/>
<path d="M8128 2174 c-77 -41 -75 -169 2 -209 84 -43 180 13 180 105 0 92 -99
149 -182 104z"/>
<path d="M3851 2095 c-63 -54 -60 -146 8 -192 42 -28 86 -29 129 -3 32 20 62
71 62 106 0 31 -33 85 -61 99 -45 24 -103 19 -138 -10z"/>
<path d="M3009 2057 c-123 -46 -219 -171 -219 -285 0 -85 78 -182 158 -198 45
-9 47 -18 10 -50 -105 -88 -237 -104 -415 -49 -43 13 -23 -11 30 -38 231 -117
452 -90 622 77 185 181 185 433 1 528 -50 26 -139 33 -187 15z m192 -68 c40
-40 8 -148 -86 -289 -60 -89 -77 -104 -110 -96 -41 10 -65 41 -65 84 0 94 156
322 220 322 11 0 30 -10 41 -21z"/>
<path d="M7840 2027 c-32 -16 -70 -73 -70 -104 0 -69 57 -123 130 -123 34 0
48 6 76 34 33 33 39 52 34 106 -6 76 -99 123 -170 87z"/>
<path d="M8727 1974 c-55 -88 -157 -257 -157 -260 0 -12 22 0 48 26 37 37 74
39 103 6 11 -13 88 -123 170 -245 169 -252 172 -262 112 -317 -72 -67 -23 -42
148 72 202 136 184 122 177 130 -4 3 -20 -2 -37 -10 -47 -25 -75 -20 -108 18
-17 18 -114 159 -217 312 -104 153 -194 285 -201 293 -11 11 -17 7 -38 -25z"/>
<path d="M4163 1960 c-41 -24 -53 -48 -53 -102 0 -50 19 -82 60 -103 49 -25
96 -19 135 18 109 100 -15 265 -142 187z"/>
<path d="M7520 1888 c-99 -67 -52 -218 67 -218 38 0 50 5 78 33 56 56 58 111
7 168 -39 43 -103 50 -152 17z"/>
<path d="M4473 1840 c-39 -24 -53 -48 -53 -95 0 -130 170 -174 225 -59 54 114
-64 220 -172 154z"/>
<path d="M7202 1784 c-30 -21 -52 -66 -52 -109 0 -26 9 -45 34 -73 31 -34 39
-37 86 -37 47 0 55 3 86 37 38 42 45 88 19 138 -22 42 -53 60 -105 60 -25 0
-56 -7 -68 -16z"/>
<path d="M4105 1278 c-34 -21 -64 -32 -97 -33 -62 -3 -98 -27 -98 -64 0 -16
16 -62 35 -102 19 -41 35 -88 35 -105 0 -24 8 -39 31 -58 39 -33 85 -34 128
-2 19 14 48 28 65 32 46 10 104 41 116 63 18 35 11 65 -30 125 -31 45 -40 68
-40 101 0 79 -59 97 -145 43z m95 -54 c14 -36 -3 -64 -40 -64 -23 0 -31 5 -36
25 -13 53 57 89 76 39z m-148 -58 c18 -41 4 -58 -44 -54 -50 4 -61 25 -29 57
28 28 59 27 73 -3z m212 -85 c17 -18 17 -21 1 -45 -29 -43 -85 -29 -85 21 0
41 55 56 84 24z m-149 -80 c0 -40 -21 -57 -58 -47 -21 5 -27 12 -27 34 0 37
18 54 55 50 27 -3 30 -7 30 -37z"/>
<path d="M7758 1283 c-8 -10 -25 -50 -37 -90 -16 -55 -28 -77 -51 -93 -36 -26
-38 -55 -7 -101 16 -24 33 -35 57 -39 19 -4 61 -23 92 -44 49 -33 63 -38 95
-33 50 9 72 34 82 96 5 35 17 61 34 79 31 33 42 77 28 113 -8 21 -24 32 -73
48 -36 12 -80 35 -99 51 -40 34 -97 40 -121 13z m80 -60 c16 -13 20 -25 15
-46 -5 -24 -10 -28 -37 -25 -26 2 -32 8 -34 31 -3 27 12 57 28 57 4 0 17 -8
28 -17z m153 -63 c26 -15 24 -46 -5 -65 -19 -13 -29 -14 -45 -5 -26 13 -28 55
-3 69 22 13 29 13 53 1z m-216 -74 c41 -41 15 -88 -43 -79 -44 7 -54 44 -21
79 28 30 34 30 64 0z m150 -106 c0 -33 -2 -35 -37 -38 -36 -3 -38 -2 -38 27 0
33 22 52 55 48 16 -1 20 -9 20 -37z"/>
</g>
</svg>
