<?xml version="1.0" standalone="no"?>
<!DOCTYPE svg PUBLIC "-//W3C//DTD SVG 20010904//EN"
 "http://www.w3.org/TR/2001/REC-SVG-20010904/DTD/svg10.dtd">
<svg version="1.0" xmlns="http://www.w3.org/2000/svg"
 width="1200.000000pt" height="1117.000000pt" viewBox="0 0 1200.000000 1117.000000"
 preserveAspectRatio="xMidYMid meet">

<g transform="translate(0.000000,1117.000000) scale(0.100000,-0.100000)"
fill="#000000" stroke="none">
<path d="M8340 11160 c0 -6 16 -30 35 -53 20 -23 38 -53 41 -67 16 -70 28 -93
58 -109 53 -28 94 -77 101 -123 9 -54 17 -64 63 -79 66 -21 99 -62 121 -153 9
-37 23 -59 54 -87 32 -28 39 -40 31 -49 -9 -9 -17 -9 -32 -1 -11 6 -29 11 -39
11 -10 0 -33 13 -50 28 -28 26 -36 28 -84 24 -46 -3 -60 0 -92 22 -21 14 -42
26 -47 26 -5 0 -29 -14 -53 -31 -40 -28 -46 -29 -87 -20 -76 18 -99 14 -113
-16 -10 -23 -9 -28 7 -37 11 -6 36 -25 55 -43 34 -30 36 -35 41 -109 6 -99 13
-104 162 -104 105 0 109 -1 140 -29 31 -28 33 -33 33 -101 0 -50 4 -73 14 -79
8 -5 63 -12 123 -16 101 -7 113 -10 156 -39 31 -22 50 -43 57 -64 7 -24 14
-31 25 -26 38 16 101 15 149 -1 44 -14 59 -15 102 -5 42 10 53 10 74 -4 14 -9
25 -20 25 -25 0 -16 -94 -44 -145 -44 -27 0 -73 3 -102 8 -47 7 -57 5 -107
-24 -45 -25 -67 -31 -114 -31 -95 0 -121 -40 -51 -78 57 -31 79 -56 97 -112
l19 -55 88 -6 c80 -6 91 -9 112 -33 19 -23 23 -38 23 -96 0 -59 3 -72 23 -91
21 -20 28 -21 117 -13 140 12 184 9 222 -12 31 -18 36 -18 75 -5 37 13 49 13
85 2 24 -8 73 -13 109 -12 53 1 71 -2 90 -18 l24 -20 -52 -1 c-29 0 -64 -5
-78 -12 -19 -9 -38 -8 -81 2 l-57 14 -24 -30 c-62 -77 -68 -82 -128 -95 -90
-19 -95 -37 -17 -63 38 -13 52 -24 65 -52 9 -19 17 -50 17 -68 0 -49 16 -58
83 -44 78 17 103 6 142 -61 18 -30 43 -59 56 -63 13 -5 61 -6 105 -3 86 7 108
2 152 -38 26 -24 28 -49 7 -67 -23 -19 -19 -28 25 -50 47 -24 79 -25 106 -5
19 15 18 16 -6 33 -74 51 -82 64 -84 136 -2 54 -6 72 -21 82 -32 23 -45 18
-38 -16 3 -16 3 -30 1 -30 -3 0 -22 14 -43 30 -22 17 -50 30 -66 30 -24 0 -28
4 -26 22 1 17 -10 29 -53 55 -52 32 -197 83 -290 101 l-45 10 66 1 c45 1 70 6
79 16 11 13 18 10 51 -19 50 -42 117 -66 129 -45 5 7 6 25 3 39 -8 33 6 19 37
-38 14 -25 45 -62 70 -80 l45 -35 7 49 c3 27 9 61 13 75 6 24 1 30 -49 64 -66
44 -89 81 -85 139 4 58 -6 80 -53 112 -34 24 -52 29 -102 30 -68 1 -158 30
-220 71 -36 23 -46 25 -104 20 l-65 -7 23 25 c15 16 20 29 14 34 -5 5 -55 35
-112 66 -99 56 -104 58 -160 52 -46 -5 -53 -4 -37 6 30 17 129 13 175 -8 39
-18 41 -18 55 1 13 17 16 17 25 3 24 -40 51 -62 133 -109 92 -52 106 -57 124
-39 7 7 15 2 27 -16 17 -25 71 -55 129 -69 27 -6 27 -6 21 32 -5 32 -2 43 20
69 l25 30 -44 32 c-60 43 -102 56 -225 71 -174 21 -240 70 -226 167 19 135 19
127 -6 150 -27 25 -87 43 -143 43 -57 0 -96 34 -115 101 -16 56 -22 61 -88 79
-68 18 -102 55 -109 120 -4 44 -12 62 -38 90 -34 36 -55 71 -55 90 0 6 11 22
25 35 27 28 61 31 130 13 40 -11 49 -10 90 10 69 33 96 29 155 -23 53 -47 72
-53 115 -33 29 13 29 15 11 59 -8 19 -19 74 -25 122 -11 96 -38 170 -68 185
-10 6 -48 18 -83 27 -111 27 -116 31 -176 126 -76 121 -93 133 -169 124 -115
-15 -123 -13 -190 57 l-62 63 -109 0 c-60 0 -121 4 -136 9 -20 6 -28 5 -28 -4z
m502 -312 c58 -51 60 -52 74 -33 19 25 29 11 39 -53 5 -31 18 -56 44 -86 61
-67 112 -145 100 -152 -6 -3 -25 7 -42 24 -36 35 -75 52 -116 52 -41 0 -46 12
-11 26 16 7 30 17 30 22 0 14 -88 125 -108 136 -9 6 -44 15 -77 22 -33 7 -50
12 -38 13 12 1 28 4 37 7 18 7 22 39 6 49 -11 7 -14 25 -4 25 3 0 33 -24 66
-52z m-179 -517 c61 -26 77 -26 84 -1 8 30 18 24 38 -21 11 -23 30 -48 45 -57
34 -21 70 -54 70 -64 0 -15 -30 -8 -68 16 -21 13 -66 38 -100 55 -55 28 -69
31 -113 25 -49 -7 -51 -6 -40 14 9 17 7 22 -12 34 -12 8 -30 17 -39 21 -16 6
-15 8 5 31 l22 25 30 -29 c17 -16 52 -38 78 -49z"/>
<path d="M3275 11051 c-11 -2 -48 -30 -83 -62 -70 -65 -85 -69 -163 -42 -46
17 -48 17 -69 -2 -12 -11 -31 -38 -42 -60 -50 -97 -77 -114 -179 -115 -69 0
-77 -2 -101 -27 -32 -35 -52 -75 -67 -137 -7 -27 -20 -65 -31 -85 -36 -71
-121 -131 -185 -131 -30 0 -30 1 -4 -50 29 -56 17 -96 -56 -180 -30 -35 -55
-68 -55 -74 0 -6 18 -27 40 -47 33 -31 40 -43 40 -75 0 -36 -7 -45 -76 -111
-76 -71 -77 -72 -69 -110 4 -21 10 -55 13 -76 l7 -37 37 25 c42 29 80 32 131
10 20 -8 41 -15 47 -15 5 0 35 22 65 50 69 62 94 69 151 41 55 -28 87 -17 78
28 -7 33 25 113 58 148 11 12 52 34 90 49 88 35 93 42 79 99 -16 65 3 98 77
131 77 34 89 47 97 107 4 29 18 71 31 94 13 23 24 44 24 47 0 3 -32 6 -70 6
-45 0 -82 6 -102 16 -29 15 -32 15 -57 -3 -14 -11 -41 -42 -58 -69 -44 -66
-78 -94 -114 -94 -35 0 -76 20 -103 49 -27 29 -67 27 -98 -6 -14 -16 -45 -66
-69 -112 -54 -102 -121 -181 -155 -181 -35 0 -30 16 24 75 26 28 70 94 97 145
90 168 140 197 240 141 66 -38 82 -33 125 37 55 90 119 118 188 83 46 -24 97
-27 128 -8 12 6 56 38 99 71 l77 58 -7 74 c-7 81 -12 73 85 146 40 30 46 40
52 83 3 28 9 61 13 75 l6 25 -83 0 c-46 0 -92 -1 -103 -4z m-56 -194 c-20 -18
-59 -51 -88 -75 -28 -24 -51 -47 -51 -52 0 -5 24 -18 53 -29 l52 -20 -92 0
c-52 1 -101 -4 -114 -11 -33 -18 -217 -169 -238 -196 -33 -42 -59 -21 -26 22
8 10 15 41 15 68 l0 49 23 -21 c13 -12 27 -22 31 -22 11 0 124 86 169 129 28
26 37 43 37 67 0 43 14 50 34 19 16 -24 18 -24 44 -11 15 8 61 39 102 70 79
58 109 66 49 13z m-234 -525 c-6 -5 -66 -49 -134 -98 -113 -82 -161 -125 -161
-144 0 -4 12 -11 27 -15 21 -5 24 -8 12 -16 -7 -5 -29 -9 -48 -9 -49 0 -109
-32 -161 -85 -44 -45 -44 -47 -25 -61 24 -18 12 -29 -44 -39 -25 -5 -56 -26
-103 -71 -60 -56 -88 -75 -88 -59 0 16 66 96 163 199 121 128 125 134 126 184
1 35 16 43 24 12 9 -37 35 -34 95 8 31 23 98 66 147 96 50 30 106 66 125 80
33 23 67 37 45 18z"/>
<path d="M5785 10958 c-143 -26 -307 -151 -379 -287 -77 -147 -87 -326 -28
-474 l32 -78 -81 -382 c-44 -210 -85 -384 -90 -388 -5 -3 -43 -13 -84 -23
l-74 -18 4 -41 c9 -77 25 -260 25 -283 0 -19 -17 -28 -118 -68 -65 -25 -121
-46 -124 -46 -3 0 -51 60 -106 134 l-101 135 -103 -56 c-57 -30 -131 -70 -165
-89 l-62 -34 55 -162 c30 -88 53 -162 52 -163 -121 -90 -191 -136 -197 -129
-4 5 -44 59 -90 121 -76 103 -82 114 -76 147 6 29 1 45 -28 93 -34 56 -35 60
-24 109 l10 51 -193 264 c-106 145 -205 277 -220 292 -36 39 -82 44 -153 17
-78 -29 -223 -128 -309 -209 -114 -107 -121 -137 -53 -236 44 -64 45 -66 30
-96 -10 -19 -14 -41 -10 -62 8 -41 14 -35 -315 -287 -291 -222 -336 -261 -344
-296 -12 -48 49 -124 99 -124 45 0 83 22 410 236 l290 189 81 1 82 2 36 -44
c36 -43 39 -44 88 -43 50 2 53 1 92 -44 27 -31 52 -49 74 -53 27 -6 48 -28
142 -155 l109 -148 -62 -66 -62 -66 -145 75 c-80 42 -148 76 -152 76 -7 0
-206 -273 -214 -294 -2 -6 38 -54 90 -105 l95 -94 -20 -29 -20 -28 -396 -2
-395 -3 282 -298 281 -298 -27 -92 c-14 -50 -30 -98 -34 -106 -6 -12 -40 -15
-176 -15 l-169 -1 -31 -182 -31 -182 126 -42 c69 -23 129 -45 134 -48 4 -4 4
-24 0 -45 -8 -37 -11 -39 -128 -90 -200 -88 -333 -175 -454 -297 -114 -115
-171 -224 -171 -327 0 -76 11 -111 85 -277 125 -280 156 -380 204 -675 70
-421 74 -435 131 -483 37 -32 95 -42 220 -41 204 2 389 88 515 242 30 36 55
69 55 73 0 4 -44 -21 -97 -57 -191 -127 -311 -169 -468 -162 -107 4 -153 28
-179 91 -20 47 -20 47 0 94 22 54 76 101 249 219 l110 74 38 -77 c22 -43 40
-79 42 -81 1 -1 75 20 163 48 88 27 163 50 165 50 2 0 34 -45 72 -100 l68 -99
-99 -113 c-55 -62 -105 -120 -112 -129 -11 -15 3 -36 108 -158 67 -78 124
-140 128 -138 4 2 69 41 145 86 120 72 140 81 155 69 9 -7 47 -39 83 -71 l67
-58 -44 -210 -43 -210 -251 -291 c-197 -229 -250 -297 -250 -319 0 -46 140
-217 243 -295 34 -26 123 -77 197 -113 108 -52 145 -65 184 -66 l49 0 199 315
c110 173 217 343 238 376 l39 62 68 -25 c37 -14 116 -42 175 -63 l107 -38 82
152 81 153 117 -29 c64 -16 117 -31 119 -32 1 -2 7 -77 13 -167 6 -90 14 -167
17 -170 9 -9 360 -44 367 -37 3 3 21 63 41 134 19 71 39 143 45 161 l10 32
120 3 119 3 24 -80 c14 -44 34 -114 46 -155 12 -41 25 -79 30 -83 4 -5 87 3
185 17 97 14 179 26 181 26 2 0 5 44 5 98 1 53 4 130 8 171 l6 74 113 32 112
33 18 -27 c10 -14 47 -73 82 -131 35 -58 68 -110 74 -117 8 -9 48 4 171 58 88
38 163 73 168 78 4 4 -4 61 -17 126 -14 65 -24 120 -22 122 3 3 80 -110 113
-167 43 -73 177 -376 330 -747 33 -81 74 -118 149 -133 73 -15 140 -3 239 45
242 116 456 363 472 545 9 93 -1 106 -165 223 -137 98 -449 331 -519 387 -28
23 -33 37 -62 173 -17 82 -29 153 -25 158 3 5 72 -36 153 -91 81 -55 150 -100
153 -100 3 0 63 60 133 134 l126 135 -100 134 c-56 73 -101 137 -101 141 0 6
76 115 135 194 1 1 72 -24 156 -58 85 -33 157 -60 161 -60 4 0 44 65 89 145
46 80 86 145 90 145 3 0 53 -31 110 -69 193 -129 261 -207 263 -301 2 -92 -56
-133 -184 -133 -122 1 -319 76 -483 186 -37 25 -67 42 -67 39 0 -17 45 -77 88
-119 133 -129 315 -193 517 -181 105 7 167 35 208 93 30 43 29 39 93 430 35
214 61 327 160 700 42 156 48 193 48 280 1 91 -1 105 -28 155 -72 136 -295
296 -618 441 -62 28 -115 53 -116 54 -2 2 -7 19 -12 38 l-7 35 165 56 c91 31
166 57 168 59 2 1 -10 84 -26 182 -16 99 -30 181 -30 182 0 2 -77 4 -172 5
l-172 3 -13 50 c-7 28 -13 53 -13 57 0 3 146 161 324 350 l324 343 -445 5
-446 5 96 91 95 92 -105 154 -106 155 -154 -74 -153 -73 -34 37 c-18 21 -45
52 -59 69 l-26 31 137 201 c75 111 139 202 143 202 3 0 156 -102 340 -227 183
-124 346 -228 360 -231 23 -3 33 5 78 69 28 40 51 81 51 91 0 38 -152 655
-169 683 -9 17 -70 66 -137 113 -65 45 -120 86 -122 90 -1 4 16 31 38 61 22
29 40 59 40 66 0 8 -19 29 -42 48 -81 65 -311 217 -330 217 -11 0 -35 -24 -61
-60 -23 -33 -45 -60 -49 -60 -3 0 -149 97 -324 215 -174 118 -318 214 -319
212 -28 -35 -396 -579 -393 -581 1 -1 143 -96 313 -211 171 -114 314 -211 319
-215 10 -10 -48 -97 -83 -125 -14 -11 -73 -57 -132 -101 l-106 -82 -99 64
c-54 35 -100 68 -101 72 -2 4 17 78 41 165 l43 158 -56 28 c-90 46 -283 133
-286 129 -2 -2 -42 -64 -90 -138 -49 -74 -89 -137 -91 -138 -1 -2 -55 13 -119
35 l-117 38 7 172 7 171 -58 12 c-33 6 -68 14 -80 16 -18 5 -31 50 -115 407
l-95 402 19 55 c27 78 33 226 13 314 -60 256 -297 440 -560 435 -34 -1 -83 -5
-111 -11z m320 -141 c285 -136 350 -514 126 -738 -105 -104 -255 -154 -395
-131 -200 34 -354 187 -386 385 -58 363 321 642 655 484z m563 -2075 l309
-1304 -75 -111 c-41 -62 -82 -120 -92 -131 -17 -18 -18 -17 -28 15 -6 19 -38
124 -72 234 -117 381 -130 417 -175 481 -48 66 -61 77 -180 144 -78 44 -80 47
-97 100 -9 30 -110 411 -223 845 -113 435 -208 798 -211 808 -5 15 3 17 78 17
156 0 289 53 392 155 34 33 62 58 63 55 2 -3 142 -592 311 -1308z m-1019 1157
c36 -18 67 -33 68 -34 1 0 42 -152 91 -338 l89 -338 -133 -512 c-74 -282 -141
-525 -150 -542 -8 -16 -52 -59 -96 -94 -75 -59 -84 -70 -123 -155 -24 -50 -49
-110 -56 -133 l-12 -43 -165 0 -164 0 4 23 c2 12 112 531 243 1153 l239 1132
50 -43 c27 -24 79 -58 115 -76z m3066 -795 l241 -162 73 -312 73 -311 -23 -34
c-23 -34 -24 -34 -50 -17 -143 91 -1578 1059 -1579 1065 0 7 206 312 267 395
l24 32 367 -246 c202 -136 475 -320 607 -410z m-4975 167 c104 -140 190 -262
190 -271 0 -21 -90 -111 -165 -165 -66 -47 -190 -115 -208 -115 -7 1 -99 118
-205 262 -153 206 -192 266 -188 283 13 52 320 271 368 263 9 -2 103 -117 208
-257z m4867 118 l123 -82 -19 -31 c-11 -17 -24 -32 -28 -33 -5 -2 -63 34 -130
80 l-122 84 22 31 c12 18 24 32 27 32 2 0 60 -37 127 -81z m-1917 -143 c0 -12
-3 -52 -7 -87 l-6 -63 -18 75 c-24 96 -23 99 6 99 20 0 25 -5 25 -24z m-1463
0 c-3 -8 -11 -43 -18 -77 -6 -35 -15 -68 -19 -72 -4 -5 -10 27 -14 69 -7 81
-3 94 38 94 11 0 16 -5 13 -14z m2013 -171 l25 -14 -37 -1 c-36 0 -47 8 -31
23 9 9 14 8 43 -8z m-2535 -122 l37 -48 -148 -3 c-81 -1 -152 2 -156 6 -6 6
18 26 59 50 55 32 78 40 120 41 51 1 53 0 88 -46z m1259 -15 c6 -25 4 -28 -19
-28 -29 0 -29 0 -13 52 12 42 16 39 32 -24z m1448 28 c-2 -10 -8 -29 -12 -42
-9 -24 -11 -24 -166 -24 l-156 0 14 23 c8 12 21 32 29 45 14 22 18 22 154 20
131 -3 140 -4 137 -22z m-4125 -73 l33 -47 -361 -238 c-198 -131 -364 -238
-369 -238 -4 0 -15 11 -24 25 l-16 25 317 236 c175 130 332 247 348 260 17 13
32 23 35 23 3 1 20 -20 37 -46z m698 -57 c12 -17 13 -30 6 -49 -11 -27 -112
-107 -193 -150 -45 -24 -54 -26 -72 -14 -11 8 -25 21 -30 30 -14 22 25 62 134
136 118 80 131 84 155 47z m1150 -18 c-15 -75 17 -68 -324 -68 -331 0 -323 -1
-336 53 l-7 27 166 0 c165 0 166 0 182 -25 9 -13 23 -27 32 -30 10 -2 62 13
117 35 55 22 117 40 138 40 38 0 39 0 32 -32z m1802 11 c47 -16 66 -18 82 -10
12 7 87 11 186 11 l167 0 -7 -32 c-4 -18 -9 -36 -12 -40 -2 -5 -136 -8 -298
-8 l-294 0 -10 38 c-6 20 -11 43 -11 50 0 20 127 15 197 -9z m-939 -28 c7 -21
12 -41 12 -45 0 -3 -29 -6 -65 -6 -36 0 -65 3 -65 8 0 4 5 24 11 45 9 35 12
37 53 37 41 0 43 -2 54 -39z m2163 -62 c82 -54 119 -85 115 -95 -4 -9 -1166
-1719 -1192 -1753 -3 -4 -336 30 -343 35 -3 3 1290 1894 1296 1894 2 0 58 -36
124 -81z m-3061 -71 c0 -13 -3 -33 -6 -45 l-6 -23 -273 0 -272 0 -11 39 c-7
21 -12 41 -12 45 0 3 131 6 290 6 l290 0 0 -22z m929 5 c5 -10 11 -29 12 -43
l4 -25 -100 0 -100 0 4 25 c7 54 16 60 96 60 61 0 76 -3 84 -17z m-1672 -465
c192 -260 353 -479 357 -485 6 -10 -21 -13 -121 -13 l-128 0 -314 427 c-296
401 -313 427 -295 440 10 7 46 33 79 58 33 24 63 44 66 44 3 1 163 -212 356
-471z m2973 462 c0 -5 19 -23 42 -40 l41 -30 -311 0 c-172 0 -312 4 -312 9 0
5 -3 23 -6 40 l-6 31 276 0 c176 0 276 -4 276 -10z m378 -167 l-34 -48 -421
-3 c-415 -2 -422 -2 -427 18 -19 67 -58 60 346 60 l363 0 40 -25 c55 -34 75
-31 120 15 21 22 41 38 43 35 3 -2 -11 -26 -30 -52z m-2638 20 c0 -10 -3 -28
-6 -40 l-6 -23 -357 0 -356 0 60 40 60 40 303 0 c281 0 302 -1 302 -17z m995
7 c4 -6 10 -24 15 -40 l9 -30 -144 0 c-111 0 -143 3 -140 13 2 6 9 24 14 40
l11 27 114 0 c68 0 117 -4 121 -10z m-1025 -157 c0 -10 -3 -28 -6 -40 l-6 -23
-323 0 -322 0 -27 40 -26 40 355 0 c331 0 355 -1 355 -17z m1069 -1 c5 -9 13
-35 17 -56 6 -35 5 -39 -12 -32 -32 12 -237 18 -297 8 l-58 -9 7 31 c17 81 6
76 178 76 138 0 156 -2 165 -18z m1511 12 c0 -4 -9 -22 -21 -40 l-21 -34 -358
0 -358 0 -6 23 c-16 61 -44 57 379 57 212 0 385 -3 385 -6z m-2610 -153 c0 -5
-3 -23 -6 -40 l-6 -31 -253 0 -252 0 -27 40 -26 40 285 0 c157 0 285 -4 285
-9z m2510 4 c0 -3 -10 -21 -22 -40 l-23 -35 -288 0 c-221 0 -289 3 -291 13 -3
6 -7 24 -10 40 l-6 27 320 0 c176 0 320 -2 320 -5z m-1437 -29 c37 -7 69 -15
71 -17 2 -2 13 -36 25 -76 l21 -71 98 -52 c53 -29 112 -66 130 -83 31 -30 82
-122 97 -174 l6 -23 -551 0 -551 0 6 23 c3 12 23 56 43 97 33 66 47 83 125
145 86 69 88 71 109 140 11 39 22 72 24 74 2 3 32 10 67 17 83 16 196 16 280
0z m-1107 -138 c-3 -13 -6 -31 -6 -40 0 -17 -15 -18 -182 -18 l-183 0 -28 40
-28 40 217 0 216 0 -6 -22z m2444 16 c0 -3 -12 -21 -26 -40 l-26 -34 -219 0
c-121 0 -219 4 -219 9 0 5 -3 23 -6 40 l-6 31 251 0 c138 0 251 -3 251 -6z
m664 -31 l36 -38 -76 -3 c-42 -2 -79 -1 -82 2 -10 10 49 76 68 76 10 0 35 -17
54 -37z m424 10 c10 -16 22 -34 26 -40 6 -10 -22 -13 -125 -13 l-133 0 79 39
c98 48 127 51 153 14z m-4728 -18 l65 -34 -189 -1 c-178 0 -188 1 -175 18 41
53 37 52 138 52 89 -1 101 -3 161 -35z m328 -2 l25 -33 -123 0 -122 0 29 35
c27 33 30 34 97 32 65 -2 70 -4 94 -34z m106 -143 l26 -40 -353 0 -353 0 -39
40 -39 40 366 0 365 0 27 -40z m730 13 c-3 -16 -7 -34 -10 -40 -2 -10 -34 -13
-111 -13 l-108 0 -28 40 -28 40 146 0 145 0 -6 -27z m2370 15 c-4 -7 -17 -25
-28 -40 l-20 -28 -147 0 c-145 0 -148 0 -154 23 -18 62 -34 57 170 57 146 0
185 -3 179 -12z m1287 -4 c11 -13 8 -19 -17 -39 l-29 -24 -352 -1 -353 0 28
40 27 39 341 1 c298 0 343 -2 355 -16z m-4277 -171 l26 -38 -72 -6 c-40 -4
-209 -7 -375 -8 -316 -1 -323 0 -287 41 14 14 14 20 4 33 -11 13 25 15 332 15
l345 0 27 -37z m592 25 c-3 -7 -7 -25 -10 -40 -6 -25 -11 -28 -44 -28 -32 0
-41 6 -65 40 l-28 40 75 0 c56 0 74 -3 72 -12z m2277 -28 l-28 -40 -82 0 c-46
0 -83 4 -83 9 0 5 -3 23 -6 40 l-6 31 116 0 117 0 -28 -40z m1246 0 l-44 -39
-323 -1 -322 0 26 40 27 40 340 0 340 0 -44 -40z m-1819 -319 c33 -103 60
-191 60 -195 0 -3 -645 -7 -1433 -8 l-1434 -3 213 -229 c117 -126 211 -233
208 -238 -3 -4 -11 -8 -19 -8 -8 0 -100 -25 -206 -55 -105 -30 -193 -55 -194
-55 -2 0 -703 732 -864 903 l-74 77 1841 0 1841 0 61 -189z m474 177 c-4 -7
-17 -26 -28 -43 l-20 -29 -7 24 c-15 52 -11 60 27 60 25 0 33 -3 28 -12z
m2116 6 c0 -5 -744 -788 -900 -947 l-67 -69 -179 57 c-98 31 -190 60 -204 64
-14 4 -24 11 -23 15 0 4 104 116 229 249 l228 242 -432 3 c-238 1 -432 5 -432
8 0 7 226 341 248 367 14 16 64 17 774 17 417 0 758 -3 758 -6z m-4420 -486
c0 -7 -12 -70 -26 -139 l-26 -126 -193 -38 -193 -38 -98 104 c-55 57 -130 137
-168 176 l-69 73 386 0 c303 0 387 -3 387 -12z m407 -10 c-3 -13 -13 -62 -23
-110 l-17 -87 -41 -5 c-22 -3 -92 -13 -155 -21 -62 -9 -115 -14 -118 -11 -5 5
1 35 33 184 l16 72 155 0 155 0 -5 -22z m1526 -11 c8 -25 3 -37 -41 -100 -43
-62 -54 -72 -79 -71 -371 18 -766 24 -990 14 -142 -5 -279 -13 -305 -16 -57
-8 -56 -11 -27 115 l21 91 706 -2 705 -3 10 -28z m1356 26 c0 -5 -80 -90 -177
-191 l-178 -184 -162 36 c-89 20 -210 45 -268 56 -59 11 -109 21 -111 23 -1 2
38 63 88 135 l90 132 360 0 c197 0 359 -3 358 -7z m-4679 -195 c0 -4 -22 -8
-50 -8 -55 0 -58 5 -39 59 l12 33 38 -38 c22 -21 39 -42 39 -46z m5325 -90
c10 -22 16 -23 180 -28 151 -4 170 -7 173 -22 3 -17 -15 -18 -264 -18 l-268 0
44 45 c38 39 50 45 85 45 32 0 42 -4 50 -22z m-5210 -28 l39 -40 -322 0 c-277
0 -322 2 -322 15 0 12 28 15 173 17 168 3 172 4 182 26 9 21 16 22 110 22
l101 0 39 -40z m3060 20 c286 -22 533 -57 770 -110 629 -140 1064 -284 1512
-500 333 -161 605 -338 648 -420 34 -66 17 -201 -66 -532 -52 -209 -89 -405
-109 -581 l-13 -107 -48 45 c-171 160 -652 409 -1136 589 -583 216 -1366 373
-2018 405 -718 36 -1543 -105 -2234 -381 -472 -189 -904 -427 -1084 -597 l-75
-71 -12 82 c-36 251 -95 473 -184 691 -109 266 -120 346 -64 458 122 244 626
509 1423 747 578 173 1061 256 1720 296 112 7 839 -3 970 -14z m-2920 -170
l39 -40 -402 0 -402 0 0 24 c0 59 -20 56 369 56 l357 0 39 -40z m5435 31 c0
-5 3 -23 6 -40 l7 -31 -347 0 -347 0 33 40 33 40 308 0 c169 0 307 -4 307 -9z
m-5531 -145 c-2 -2 -49 -20 -103 -40 -90 -33 -108 -36 -200 -36 -91 1 -111 5
-211 40 l-110 39 314 0 c173 1 312 -1 310 -3z m5341 -36 c-106 -36 -124 -39
-229 -39 -106 -1 -119 1 -210 35 -53 20 -98 38 -100 40 -2 2 144 4 325 3 l329
-1 -115 -38z m-3221 -1040 c-18 -22 -35 -40 -39 -40 -3 0 -21 15 -39 34 -33
34 -33 34 -10 39 13 2 46 5 72 6 l48 1 -32 -40z m284 -21 l45 -61 -71 -98 -72
-99 -83 84 -83 84 63 75 c62 74 64 75 110 76 45 0 47 -1 91 -61z m374 45 l42
-6 583 -752 584 -752 154 -537 c85 -295 158 -536 162 -535 5 2 50 76 101 165
l94 162 -34 158 c-18 87 -35 169 -38 182 -6 22 -3 21 47 -14 125 -90 418 -318
418 -326 0 -5 -9 -9 -19 -9 -31 0 -211 -95 -282 -148 -106 -80 -202 -199 -251
-310 l-21 -47 -35 75 c-18 41 -68 156 -109 255 -109 262 -164 370 -259 505
-81 116 -451 616 -1114 1508 -173 232 -317 428 -319 434 -4 11 195 5 296 -8z
m-635 -261 c136 -142 267 -278 292 -303 l46 -44 98 97 99 98 107 -142 107
-143 -203 -203 c-112 -112 -206 -203 -210 -203 -7 0 -1001 1037 -1006 1050 -5
12 253 46 364 49 l60 1 246 -257z m1195 192 c81 -14 149 -28 152 -31 5 -5
-259 -274 -270 -274 -3 0 -50 57 -104 128 -54 70 -103 133 -108 140 -7 9 -2
21 19 43 28 30 31 31 96 25 37 -3 133 -17 215 -31z m-2097 -34 c0 -13 -628
-2220 -639 -2246 -7 -17 -14 -8 -46 55 l-37 76 211 1004 c116 553 215 1016
220 1030 7 22 21 29 132 57 133 34 159 38 159 24z m2368 -87 c7 -23 12 -44 12
-48 0 -3 -29 -6 -65 -6 -36 0 -65 3 -65 7 0 14 94 103 100 95 4 -4 12 -26 18
-48z m240 16 c72 -18 132 -35 132 -38 0 -4 95 -459 211 -1011 l212 -1004 -37
-75 c-20 -41 -39 -73 -41 -70 -5 5 -635 2215 -635 2228 0 5 6 8 13 5 6 -2 72
-18 145 -35z m-2366 -22 l40 -43 -108 -3 c-58 -1 -109 0 -112 3 -3 2 0 23 7
45 l12 40 61 0 c59 0 62 -1 100 -42z m1082 -63 c31 -41 56 -78 56 -82 0 -5
-31 -40 -70 -78 l-70 -69 -55 54 c-30 30 -55 59 -55 65 1 10 127 185 134 185
2 0 29 -34 60 -75z m-1720 43 c-9 -31 -4 -29 -75 -26 l-64 3 60 22 c79 28 88
28 79 1z m-27 -129 c-3 -22 -7 -43 -10 -45 -2 -2 -125 -3 -273 -2 l-269 3 125
42 125 43 154 0 154 0 -6 -41z m803 5 c22 -20 40 -40 40 -45 0 -5 -90 -9 -200
-9 -191 0 -200 1 -200 19 0 11 4 31 10 45 l10 26 150 0 150 0 40 -36z m2029 5
c21 -61 26 -59 -156 -59 l-168 0 47 45 47 45 109 0 110 0 11 -31z m809 -11
l127 -43 -234 -3 c-129 -1 -238 1 -242 5 -3 5 -10 25 -13 46 l-7 37 121 0
c116 0 126 -2 248 -42z m-3668 -127 c0 -5 -3 -23 -6 -40 l-6 -31 -436 0 c-239
0 -432 3 -428 7 3 4 39 21 79 39 l72 33 363 0 c200 1 362 -3 362 -8z m918 -31
l-33 -40 -233 0 -233 0 6 23 c4 12 9 30 11 40 5 16 26 17 260 17 l255 0 -33
-40z m1990 0 l10 -40 -182 0 -182 0 -20 28 c-11 15 -24 33 -28 40 -6 9 35 12
192 12 l200 0 10 -40z m1192 -2 l75 -36 -412 -1 -412 -1 -6 23 c-19 64 -53 58
332 55 l348 -3 75 -37z m-2987 -131 l89 -96 -404 -638 c-800 -1264 -923 -1456
-955 -1490 -40 -43 -44 -42 -202 34 -110 53 -122 62 -224 167 -82 84 -107 116
-105 133 3 20 336 419 344 411 1 -2 -2 -33 -8 -68 l-11 -65 94 -163 c51 -89
96 -162 100 -162 3 0 68 217 144 483 75 265 143 492 149 503 20 39 881 1054
890 1051 6 -2 50 -47 99 -100z m-1148 -14 c-4 -21 -8 -39 -9 -41 -2 -1 -254
-1 -560 0 l-557 3 63 37 63 37 504 1 503 0 -7 -37z m844 20 c-50 -67 -35 -63
-242 -63 l-189 0 7 33 c4 17 9 35 12 40 2 4 99 7 215 7 199 0 210 -1 197 -17z
m2135 0 c2 -10 7 -28 11 -40 l6 -23 -144 0 -144 0 -32 40 -32 40 165 0 c148 0
165 -2 170 -17z m1453 -20 l68 -38 -539 -3 c-297 -1 -541 0 -543 2 -3 2 -8 21
-13 40 l-8 36 484 0 483 0 68 -37z m-5447 -128 c-47 -18 -67 -18 -74 0 -4 12
5 15 52 14 l57 -1 -35 -13z m986 -7 c-3 -13 -6 -31 -6 -40 0 -17 -21 -18 -304
-18 l-305 0 -19 28 c-10 15 -22 33 -26 40 -6 9 63 12 330 12 l336 0 -6 -22z
m732 -18 l-33 -40 -151 0 -151 0 10 40 11 40 174 0 173 0 -33 -40z m2315 33
c3 -5 8 -23 12 -40 l7 -33 -104 0 c-96 0 -106 2 -124 23 -54 61 -59 57 79 57
69 0 128 -3 130 -7z m1437 1 c0 -4 -9 -22 -21 -40 l-21 -34 -135 0 c-102 0
-147 4 -184 17 -45 16 -49 16 -67 0 -17 -15 -48 -17 -299 -17 l-281 0 -6 23
c-16 62 -57 57 504 57 281 0 510 -3 510 -6z m-2133 -179 c65 -88 122 -165 126
-172 11 -17 -188 -163 -297 -216 -298 -149 -644 -135 -1004 40 -87 42 -112 59
-107 71 8 20 255 411 264 416 3 2 98 -92 210 -210 l203 -214 237 229 c130 127
239 227 242 223 4 -4 60 -79 126 -167z m-2383 8 c-15 -69 9 -63 -252 -63
l-237 1 -22 44 -22 45 270 0 269 0 -6 -27z m655 10 c-48 -64 -45 -63 -162 -63
-96 0 -108 2 -103 16 3 9 9 27 12 40 6 24 7 24 136 24 123 0 130 -1 117 -17z
m2479 -23 l10 -40 -72 0 c-67 0 -74 2 -92 28 -40 54 -42 52 54 52 l90 0 10
-40z m882 33 c0 -3 -11 -21 -26 -40 l-25 -33 -215 0 c-117 0 -214 4 -214 9 0
5 -3 23 -6 40 l-6 31 246 0 c135 0 246 -3 246 -7z m-4047 -175 c-3 -18 -9 -36
-12 -41 -4 -4 -135 -6 -291 -5 l-284 3 33 38 33 37 264 0 264 0 -7 -32z m567
26 c0 -3 -12 -21 -27 -40 -27 -33 -31 -34 -95 -34 -38 0 -68 4 -68 9 0 4 5 22
11 40 l11 31 84 0 c46 0 84 -2 84 -6z m2634 -14 c3 -11 9 -29 12 -40 5 -17 1
-20 -29 -20 -28 0 -40 7 -61 34 -14 19 -26 37 -26 40 0 3 22 6 49 6 41 0 51
-3 55 -20z m739 1 c-3 -10 0 -28 6 -40 12 -21 12 -21 -169 -21 -99 0 -180 4
-180 9 0 5 -3 23 -6 40 l-6 31 180 0 c172 0 180 -1 175 -19z m-3973 -153 c-1
-61 -8 -68 -74 -68 -50 0 -68 5 -96 25 l-34 25 -42 -25 c-40 -24 -51 -25 -195
-25 -152 0 -153 0 -181 27 -26 25 -27 28 -11 45 15 17 39 18 325 18 l308 0 0
-22z m474 10 c-27 -46 -72 -88 -93 -88 -20 0 -22 4 -17 25 17 69 23 75 71 75
34 0 44 -3 39 -12z m2200 -29 c15 -22 26 -42 23 -45 -2 -3 -43 -4 -91 -2 l-86
3 53 42 c28 23 57 42 62 42 6 0 23 -18 39 -40z m608 5 l7 -29 -19 25 c-22 29
-25 43 -8 38 7 -3 15 -18 20 -34z m797 -3 c17 -21 31 -42 31 -45 0 -9 -438 -7
-443 2 -2 4 -7 24 -11 45 l-7 37 200 0 199 0 31 -39z m-2814 -156 l100 -45
-174 0 -173 0 14 23 c8 12 20 32 27 45 20 38 88 30 206 -23z m-1685 24 c-8 -5
-28 -17 -43 -25 -26 -14 -30 -14 -48 2 -31 28 -23 34 44 34 45 0 58 -3 47 -11z
m390 -5 c0 -14 -3 -14 -15 -4 -8 7 -15 14 -15 16 0 2 7 4 15 4 8 0 15 -7 15
-16z m2822 -24 l28 -40 -283 0 -282 1 70 38 70 39 185 0 185 1 27 -39z m1328
-5 l-44 -45 -93 0 -94 0 -67 45 -67 45 205 0 204 0 -44 -45z m-1217 -146 l28
-39 -1000 0 c-551 0 -1001 3 -1001 6 0 4 9 21 20 39 l20 33 953 1 952 0 28
-40z m110 -149 l28 -40 -1106 0 -1106 0 23 40 23 40 1055 0 1055 0 28 -40z
m68 -152 l6 -38 -1179 0 -1178 0 26 40 27 40 1146 -2 1146 -3 6 -37z m-556
-134 c-49 -13 -103 -31 -118 -39 -24 -13 -109 -15 -563 -15 l-533 0 -147 35
c-80 19 -157 35 -170 35 -18 0 -31 -10 -45 -35 l-21 -35 -144 0 -145 0 23 40
23 40 965 -1 965 -1 -90 -24z m579 4 c16 -60 19 -58 -147 -58 l-153 0 -23 40
-22 40 169 0 c167 0 170 0 176 -22z m-2214 -135 c0 -3 -11 -26 -25 -50 l-26
-43 -80 0 c-69 0 -176 24 -196 44 -3 2 3 16 12 30 l17 26 149 0 c82 0 149 -3
149 -7z m780 -12 c0 -11 -4 -31 -10 -45 l-10 -26 -148 0 -149 0 -6 37 c-4 20
-4 40 -1 45 3 4 77 8 165 8 151 0 159 -1 159 -19z m710 -26 l0 -45 -149 0
-149 0 -11 31 c-21 61 -25 59 149 59 l160 0 0 -45z m750 40 c0 -10 -181 -95
-202 -95 -20 0 -53 40 -76 93 -2 4 60 7 137 7 78 0 141 -2 141 -5z m-1504
-197 l-12 -43 -127 -3 c-104 -2 -127 0 -127 11 0 8 -3 29 -6 46 l-6 31 145 0
146 0 -13 -42z m754 -3 l0 -46 -126 3 -127 3 -12 43 -13 42 139 0 139 0 0 -45z
m2023 -37 c19 -25 19 -32 8 -82 -23 -105 -158 -271 -307 -379 -79 -56 -199
-110 -260 -115 -47 -4 -55 -1 -80 23 -23 24 -26 32 -20 72 17 128 185 327 369
439 83 51 153 74 216 71 46 -2 57 -6 74 -29z"/>
<path d="M5785 10666 c-204 -97 -226 -381 -39 -504 113 -76 265 -61 361 35
145 145 100 388 -87 472 -65 30 -169 28 -235 -3z m195 -82 c23 -9 40 -20 38
-25 -2 -5 -66 -65 -143 -134 l-140 -125 -14 32 c-22 54 -10 141 25 185 59 74
150 100 234 67z m110 -110 c17 -43 11 -115 -11 -162 -43 -88 -159 -128 -255
-87 l-36 15 78 72 c44 40 106 99 139 130 33 32 63 58 68 58 4 0 12 -12 17 -26z"/>
<path d="M5470 6779 c-818 -54 -1563 -236 -2296 -562 -172 -76 -374 -194 -509
-295 -108 -81 -105 -81 47 7 725 416 1582 684 2473 775 471 48 1056 48 1520 0
742 -77 1422 -261 2062 -558 130 -60 360 -179 441 -228 69 -42 27 -7 -70 60
-243 164 -506 294 -884 438 -489 185 -1178 323 -1819 364 -184 12 -781 11
-965 -1z"/>
<path d="M5515 6580 l-130 -5 55 -13 c31 -7 70 -21 88 -32 l32 -20 0 -237 c-1
-231 -8 -315 -27 -334 -5 -5 -38 -15 -74 -22 l-64 -12 102 -3 c57 -1 149 -1
205 0 l103 3 -42 14 c-90 30 -102 75 -103 359 l0 173 28 -21 c72 -56 380 -362
468 -465 l99 -116 5 334 c6 380 2 365 89 392 43 13 33 14 -149 13 -135 0 -180
-3 -147 -8 93 -16 106 -47 114 -270 l6 -155 -223 218 c-221 215 -224 217 -264
215 -23 -1 -99 -5 -171 -8z"/>
<path d="M6816 6530 c-111 -28 -216 -115 -264 -218 -23 -49 -27 -70 -27 -152
0 -79 4 -103 24 -142 38 -79 95 -134 179 -175 75 -37 78 -38 191 -38 109 0
120 2 181 31 36 17 93 55 128 84 63 52 63 53 44 72 -19 20 -20 20 -81 -29 -33
-27 -85 -62 -114 -76 -142 -72 -325 3 -368 151 -44 150 20 350 131 412 38 21
57 25 125 24 141 -1 213 -55 246 -185 7 -27 16 -49 21 -49 4 0 8 28 8 63 0 34
3 85 6 112 l6 51 -118 33 c-128 36 -250 48 -318 31z"/>
<path d="M4687 6473 c-2 -4 -46 -136 -96 -293 -128 -399 -139 -426 -177 -467
l-33 -35 27 7 c90 23 240 55 260 55 43 0 21 18 -29 22 -33 4 -58 12 -71 26
-19 19 -20 24 -8 66 7 25 16 46 21 46 5 0 34 -12 66 -26 32 -14 72 -32 88 -39
l31 -13 63 79 c35 43 68 79 72 79 10 0 79 -81 79 -92 0 -21 -32 -67 -50 -73
-11 -3 -20 -10 -20 -15 0 -5 13 -5 28 1 16 5 101 25 190 43 150 30 191 46 119
46 -44 0 -96 35 -149 98 -312 380 -407 491 -411 485z m67 -324 c42 -44 76 -84
76 -89 0 -5 -25 -28 -56 -53 l-56 -44 -57 16 c-31 10 -56 21 -56 27 0 21 60
224 66 224 4 0 41 -36 83 -81z"/>
<path d="M4095 6329 c-77 -27 -144 -50 -150 -52 -5 -2 11 -3 36 -3 55 1 79
-16 79 -57 0 -36 -41 -411 -46 -416 -5 -6 -314 270 -324 290 -19 35 -11 58 30
85 22 15 39 29 37 30 -2 2 -33 -8 -68 -22 -35 -15 -129 -48 -209 -75 -133 -44
-141 -48 -98 -48 26 -1 60 -7 75 -13 15 -7 154 -116 308 -241 256 -209 283
-228 310 -223 16 4 34 11 39 16 5 5 21 144 34 307 30 375 34 398 79 440 19 18
28 32 21 32 -7 -1 -76 -23 -153 -50z"/>
<path d="M7618 6349 c45 -23 58 -49 49 -98 -15 -71 -167 -486 -186 -505 -17
-16 -33 -21 -72 -19 -28 0 -48 -1 -46 -3 3 -3 92 -27 198 -55 107 -27 252 -66
323 -86 l128 -36 86 86 c71 71 83 88 73 100 -10 13 -20 12 -74 -13 -142 -64
-290 -65 -408 -4 l-26 13 42 123 c42 121 43 123 72 122 16 -1 51 -11 77 -22
51 -23 76 -63 76 -124 0 -45 13 -26 40 57 13 39 25 75 27 82 3 7 -37 21 -111
38 -64 16 -116 32 -116 38 0 5 14 54 32 109 l31 99 41 -6 c157 -25 266 -94
282 -180 3 -19 9 -35 13 -35 4 0 18 35 31 78 13 42 26 82 27 87 2 6 -48 23
-114 39 -65 15 -207 52 -315 82 -108 30 -203 54 -210 54 -7 0 6 -10 30 -21z"/>
<path d="M8560 6029 c-17 -32 -60 -148 -60 -162 1 -6 9 -2 19 10 38 45 116 55
212 27 67 -20 219 -84 219 -93 0 -3 -156 -84 -346 -179 -190 -95 -344 -175
-342 -177 2 -3 65 -31 139 -64 74 -32 216 -97 315 -144 l182 -85 76 92 c76 90
86 119 26 74 -28 -20 -43 -23 -118 -22 -71 1 -101 6 -167 31 -111 43 -215 92
-215 101 0 9 456 234 593 292 42 19 76 38 74 44 -2 6 -41 27 -88 47 -46 20
-178 80 -293 133 -115 53 -210 96 -212 96 -2 0 -8 -9 -14 -21z"/>
<path d="M2970 5898 c0 -106 -42 -739 -51 -772 -6 -23 -18 -49 -27 -59 -26
-29 -9 -27 41 4 26 16 88 50 137 75 50 25 90 47 90 48 0 2 -29 1 -64 -1 -59
-5 -65 -4 -79 18 -11 17 -14 37 -10 68 l6 43 36 -5 c20 -3 63 -9 97 -13 l60
-6 42 91 c23 50 45 91 50 91 4 0 27 -14 50 -31 35 -26 42 -36 42 -65 0 -24 -8
-43 -25 -59 -27 -28 -12 -34 24 -9 12 9 87 50 164 91 104 55 132 73 105 68
-72 -11 -103 7 -396 235 -155 121 -285 220 -287 220 -3 0 -5 -15 -5 -32z m151
-295 c52 -36 96 -68 98 -69 2 -2 -16 -28 -40 -58 l-44 -55 -62 -1 -63 0 0 125
c0 69 4 125 8 125 5 0 51 -30 103 -67z"/>
<path d="M5690 5753 c-138 -5 -454 -34 -600 -54 -542 -75 -1158 -257 -1572
-465 -143 -72 -548 -315 -548 -329 0 -1 55 29 123 68 264 152 669 335 962 435
661 226 1504 338 2187 292 908 -62 1727 -285 2536 -691 127 -64 232 -115 232
-114 0 5 -249 149 -350 203 -199 106 -517 237 -810 335 -740 246 -1435 349
-2160 320z"/>
<path d="M9020 4886 c0 -3 9 -10 20 -16 11 -6 20 -8 20 -6 0 3 -9 10 -20 16
-11 6 -20 8 -20 6z"/>
<path d="M2177 10445 c-27 -25 -68 -50 -96 -60 -46 -15 -50 -19 -70 -75 -29
-79 -66 -110 -131 -110 -59 0 -63 -6 -79 -108 -17 -112 -56 -172 -109 -172
-40 0 -46 -10 -21 -36 11 -12 23 -39 26 -61 4 -33 -2 -48 -41 -108 -25 -38
-46 -78 -46 -87 0 -9 13 -26 30 -38 52 -37 41 -83 -44 -194 -20 -26 -36 -58
-36 -71 0 -28 -17 -42 -32 -27 -17 17 1 79 37 127 19 25 35 50 35 57 0 6 -16
26 -35 44 -30 27 -35 38 -35 75 0 43 4 52 64 138 28 41 29 43 16 96 -9 36 -11
81 -6 135 l7 81 -28 -3 c-22 -2 -34 -15 -58 -58 -21 -39 -41 -60 -68 -74 -29
-14 -45 -31 -64 -73 -29 -61 -54 -83 -98 -83 -55 0 -75 -31 -75 -117 -1 -64
-19 -124 -46 -154 -10 -11 -40 -32 -66 -47 -62 -35 -78 -73 -78 -190 0 -87
-20 -193 -42 -219 -22 -28 -1 -21 41 13 53 42 84 43 121 5 27 -27 30 -28 45
-11 20 22 35 74 35 121 0 28 -9 48 -40 85 -22 26 -38 49 -36 51 2 2 20 -6 40
-18 46 -27 62 -20 76 33 7 24 25 75 42 113 30 70 34 125 13 180 -7 16 -6 18 6
8 30 -28 46 -14 89 80 23 50 44 87 47 81 2 -6 -21 -79 -52 -163 -30 -85 -55
-165 -55 -179 0 -23 2 -24 43 -18 l42 6 -30 -22 c-80 -60 -102 -87 -115 -141
-14 -60 -9 -77 21 -77 26 0 24 -14 -6 -30 -28 -15 -65 -84 -65 -121 0 -24 1
-23 31 9 38 41 66 52 130 52 69 0 95 29 133 147 11 33 29 62 49 79 29 24 36
26 97 20 64 -7 66 -6 95 25 39 42 84 60 128 52 20 -3 44 -3 53 1 16 6 16 8 -1
20 -18 13 -18 15 2 52 13 27 38 50 78 75 84 50 92 67 72 133 -19 60 -22 109
-7 136 6 10 35 34 64 51 45 27 76 61 76 84 0 2 -16 20 -35 41 -57 61 -51 88
47 207 26 32 48 64 48 72 0 8 -14 31 -32 51 -26 30 -33 46 -36 95 -2 32 -7 59
-11 59 -3 -1 -27 -21 -54 -45z m-100 -279 c-43 -78 -87 -189 -87 -217 0 -8 16
-10 53 -5 57 7 57 7 -32 -42 -23 -12 -54 -40 -70 -62 -30 -42 -74 -142 -86
-197 l-7 -33 42 0 c23 0 51 5 62 11 16 9 19 8 16 -3 -3 -7 -31 -26 -64 -41
-76 -37 -92 -52 -119 -112 -20 -46 -50 -83 -60 -74 -2 2 12 39 30 81 52 116
68 183 61 243 -5 48 -4 52 16 51 24 -1 28 6 79 121 27 61 30 79 24 118 -6 45
-6 46 14 35 29 -15 35 -10 77 68 70 128 86 154 91 148 3 -3 -15 -43 -40 -90z"/>
<path d="M9717 10403 c-5 -71 -2 -80 59 -195 24 -44 25 -49 12 -108 l-12 -62
34 -29 c111 -93 125 -124 97 -212 -20 -62 -15 -72 63 -132 33 -26 69 -63 79
-83 37 -73 46 -142 19 -142 -5 0 -22 28 -38 63 -31 69 -51 90 -126 136 -62 37
-89 83 -80 132 23 121 24 114 -36 153 -75 48 -95 90 -80 166 17 78 16 80 -21
80 -53 0 -132 46 -184 107 -52 61 -37 57 -164 37 -33 -5 -41 -1 -88 40 -28 25
-58 46 -66 46 -8 0 -33 -10 -56 -22 -38 -19 -46 -20 -103 -10 -33 7 -71 15
-83 18 -42 11 -27 -28 24 -66 38 -28 50 -45 61 -83 14 -50 16 -51 102 -78 52
-16 90 -64 90 -114 0 -54 18 -67 101 -74 154 -14 202 -80 167 -231 -12 -52
-12 -53 19 -80 26 -24 43 -29 110 -35 150 -13 244 -48 306 -113 20 -20 27 -36
23 -49 -5 -16 3 -24 44 -43 55 -26 52 -26 130 -12 70 13 96 2 171 -66 52 -47
61 -52 104 -52 67 0 100 -24 152 -110 25 -41 50 -78 57 -82 6 -4 28 -8 49 -8
61 0 110 -55 140 -155 22 -75 26 -82 70 -110 53 -34 81 -81 71 -120 -9 -37
-30 -30 -51 17 -7 15 -30 36 -52 48 -51 26 -85 71 -105 141 -19 68 -34 82
-110 104 -70 20 -112 57 -121 109 -11 54 -57 96 -105 96 -58 0 -88 15 -140 71
l-48 51 -78 -7 c-61 -5 -87 -3 -116 9 -86 37 -105 7 -30 -47 67 -50 88 -83 94
-147 5 -47 10 -58 42 -85 56 -47 76 -83 76 -139 0 -43 5 -54 40 -92 39 -42 40
-46 40 -112 0 -61 3 -71 26 -93 15 -13 33 -38 40 -56 11 -25 22 -33 51 -39 78
-14 146 -75 156 -141 5 -27 18 -50 46 -77 l39 -38 50 16 c48 16 52 16 103 -4
30 -11 59 -20 64 -20 17 0 75 103 75 133 0 15 -9 46 -21 69 -27 53 -19 97 27
148 l35 39 -6 80 c-7 71 -5 83 15 119 l23 41 -25 30 c-28 32 -43 99 -55 235
-7 90 -18 106 -87 131 -61 22 -76 54 -76 165 0 45 -4 89 -10 99 -5 10 -32 33
-59 50 -54 35 -66 58 -77 141 -8 65 -15 81 -65 138 -21 24 -41 56 -44 73 -9
40 -23 45 -36 12 -5 -15 -26 -51 -46 -80 -38 -55 -38 -62 -10 -137 19 -51 8
-89 -39 -137 -45 -46 -46 -75 -6 -126 45 -57 66 -106 58 -138 -9 -37 -38 -29
-49 15 -5 19 -23 51 -41 70 -87 94 -99 121 -75 172 5 13 26 34 45 48 43 31 50
57 30 105 -21 50 -20 91 4 130 l20 32 -29 6 c-35 7 -87 50 -106 87 -8 15 -19
50 -25 76 -15 68 -33 84 -92 84 -78 0 -115 20 -128 72 -20 72 -47 114 -84 132
-18 9 -41 16 -49 16 -8 0 -34 16 -57 35 -23 19 -45 35 -50 35 -4 0 -10 -30
-13 -67z m-340 -247 c64 -32 80 -33 86 -3 3 19 7 15 25 -23 11 -25 55 -79 97
-120 142 -139 237 -270 178 -245 -10 4 -37 11 -61 15 -53 9 -62 17 -28 26 14
3 26 13 26 21 0 8 -45 59 -101 113 -99 97 -148 128 -189 117 -26 -7 -50 10
-27 18 26 10 5 39 -51 72 -26 15 -61 37 -79 49 -31 21 -32 22 -10 32 18 8 27
5 52 -18 17 -15 53 -40 82 -54z m599 -58 c38 -57 70 -105 72 -108 2 -2 12 1
22 8 19 12 20 9 20 -47 0 -69 34 -189 57 -198 9 -4 24 5 39 23 28 35 29 31 8
-50 -14 -58 -14 -66 0 -94 27 -52 -1 -47 -33 5 -53 86 -60 93 -103 99 l-40 7
32 13 c29 13 32 17 26 45 -12 62 -71 194 -91 204 -47 24 -49 27 -30 41 17 13
16 18 -23 84 -22 38 -37 70 -33 70 5 0 39 -46 77 -102z m564 -552 c24 -108 42
-133 70 -98 10 12 20 22 23 22 3 0 -4 -28 -14 -62 l-20 -62 47 -103 c26 -57
44 -106 41 -109 -7 -8 -37 14 -37 26 0 4 -15 30 -33 57 -21 31 -42 86 -60 153
-17 63 -37 114 -50 128 -21 22 -21 24 -4 33 17 10 17 40 0 103 -3 11 -1 16 5
12 6 -3 20 -49 32 -100z m-240 -456 c53 -48 80 -61 80 -40 0 25 18 6 24 -24 4
-19 26 -61 49 -93 23 -32 53 -75 67 -95 14 -21 31 -40 38 -43 14 -5 42 50 42
82 0 10 3 13 9 8 6 -6 5 -39 -1 -85 l-11 -75 41 -95 c23 -52 46 -96 51 -98 6
-2 22 8 37 23 14 14 28 24 31 22 2 -3 -8 -29 -24 -59 -18 -34 -30 -75 -33
-113 l-5 -60 -19 60 c-50 163 -105 233 -186 236 -31 1 -29 3 18 12 37 7 52 14
52 26 0 28 -95 176 -116 180 -32 6 -46 23 -39 48 7 28 -25 73 -119 171 -72 74
-63 82 14 12z"/>
<path d="M3332 10405 c-41 -23 -77 -35 -102 -35 -42 0 -50 -10 -50 -69 0 -20
-10 -57 -22 -81 -18 -34 -34 -49 -73 -68 -84 -39 -80 -35 -77 -91 3 -38 -2
-60 -17 -84 -23 -38 -42 -50 -117 -78 -41 -15 -63 -31 -85 -61 -16 -23 -29
-46 -29 -53 0 -7 18 -15 40 -18 22 -3 52 -14 67 -25 l27 -19 23 34 c13 19 35
57 49 84 33 66 68 85 165 94 100 9 125 26 120 81 -8 107 -7 116 21 137 20 15
49 22 108 26 97 8 118 22 101 72 -21 59 -14 85 29 119 53 42 52 60 -2 60 -24
0 -59 2 -78 5 -27 4 -50 -3 -98 -30z m48 -110 c0 -14 6 -25 13 -25 25 0 -18
-20 -45 -20 -17 0 -52 -20 -100 -58 -97 -78 -114 -98 -99 -115 14 -17 4 -27
-26 -27 -14 0 -34 -5 -45 -11 -15 -8 -23 -8 -31 0 -14 14 101 127 223 219 90
68 110 75 110 37z"/>
<path d="M2730 9679 c-54 -29 -99 -32 -124 -8 -20 18 -53 8 -87 -27 -60 -62
-122 -81 -165 -49 -24 18 -82 19 -114 0 -14 -8 -38 -15 -55 -15 -23 -1 -48
-18 -105 -70 l-75 -70 38 0 c72 0 96 -54 56 -131 -12 -24 -20 -57 -18 -78 3
-62 0 -71 -47 -121 l-46 -49 22 -46 c40 -82 13 -141 -84 -184 -33 -16 -68 -36
-76 -46 -14 -16 -12 -17 17 -11 23 5 43 1 72 -13 50 -26 54 -26 107 0 38 19
47 20 74 9 42 -17 51 -61 25 -122 -6 -15 -2 -16 32 -11 56 9 71 19 104 73 20
32 50 62 94 90 50 33 65 48 65 66 0 15 16 42 40 68 45 49 49 65 19 92 -22 20
-83 24 -150 10 -33 -8 -36 -6 -62 33 -15 23 -33 41 -39 41 -7 0 -42 -18 -79
-40 -69 -42 -124 -57 -148 -41 -16 10 -8 39 11 45 7 3 26 7 41 11 16 3 43 21
60 39 65 69 104 72 178 16 52 -39 72 -48 67 -32 -2 5 23 34 55 65 40 40 70 59
100 67 78 20 85 25 92 74 8 53 26 71 108 111 52 25 66 38 88 79 18 32 42 58
73 77 55 35 61 63 15 73 -17 3 -44 17 -61 31 -37 32 -50 31 -118 -6z m-150
-134 c0 -17 23 -18 107 -6 29 4 50 4 47 0 -2 -4 -23 -10 -47 -14 -64 -10 -227
-93 -227 -116 0 -10 5 -21 10 -24 25 -15 6 -23 -43 -18 -76 8 -147 -31 -243
-135 -38 -41 -56 -53 -69 -48 -14 5 -5 19 55 82 73 77 100 123 100 169 0 35
17 32 25 -5 4 -16 9 -30 12 -30 3 0 40 15 82 34 42 19 88 39 104 45 15 6 37
27 48 46 22 37 39 46 39 20z m-371 -614 c1 -32 2 -33 34 -27 17 3 50 9 71 12
59 10 37 -11 -38 -36 -67 -22 -93 -41 -81 -60 5 -8 -4 -9 -32 -3 -56 12 -107
7 -136 -12 -25 -16 -47 -14 -47 4 0 8 79 42 130 57 39 10 49 23 67 83 13 45
17 52 24 36 4 -11 8 -35 8 -54z"/>
<path d="M2010 9370 c-8 -5 -43 -10 -77 -10 -60 0 -64 -2 -114 -46 l-52 -46
-64 7 c-62 7 -64 6 -97 -27 -25 -25 -37 -49 -46 -93 -23 -109 -39 -125 -140
-134 -59 -5 -66 -9 -86 -38 -12 -18 -29 -64 -39 -101 -21 -89 -47 -130 -92
-148 -57 -24 -63 -4 -16 50 41 47 53 79 53 145 0 34 -2 36 -30 35 -22 -1 -37
-10 -56 -35 -42 -55 -47 -78 -33 -137 13 -55 11 -65 -27 -164 l-18 -48 36 -33
c65 -59 63 -110 -7 -227 -25 -41 -45 -82 -45 -92 0 -10 12 -36 26 -58 31 -47
38 -112 13 -118 -8 -1 -21 9 -29 24 -8 14 -31 34 -52 45 -69 35 -61 94 28 211
30 39 54 76 54 80 0 16 -22 52 -50 83 -44 48 -45 67 -10 141 25 49 31 73 26
97 -20 100 -19 132 8 185 26 52 33 82 18 82 -4 0 -26 -13 -48 -29 -29 -21 -54
-30 -97 -33 -64 -5 -96 -27 -127 -89 -29 -56 -45 -64 -116 -61 -76 3 -77 2
-99 -130 -22 -128 -38 -172 -83 -223 -68 -78 -78 -157 -35 -282 47 -140 34
-299 -27 -318 -44 -14 -2 -79 57 -88 87 -14 114 -61 121 -204 5 -101 5 -102
34 -114 68 -28 87 -91 59 -196 -22 -86 -14 -114 36 -124 48 -10 83 -36 100
-77 19 -45 13 -80 -26 -170 -38 -85 -39 -108 -6 -134 63 -49 81 -149 50 -273
-20 -82 -29 -248 -17 -313 5 -30 7 -62 5 -73 -8 -31 -33 -22 -50 19 -19 43
-23 259 -9 400 l9 83 -43 62 c-64 90 -66 133 -10 241 54 105 52 124 -24 160
-74 35 -100 69 -91 121 3 22 9 70 12 107 l6 66 -40 20 c-68 35 -79 65 -58 156
8 34 15 78 15 99 0 53 -39 92 -103 101 -71 11 -83 28 -90 127 -7 99 -13 119
-37 119 -18 0 -28 -23 -59 -136 -7 -26 -25 -53 -52 -77 -40 -37 -40 -37 -34
-92 11 -81 2 -102 -53 -128 -45 -21 -47 -24 -50 -69 -2 -34 6 -71 32 -141 53
-140 46 -181 -35 -223 -53 -26 -65 -54 -53 -121 11 -60 38 -103 104 -168 147
-142 221 -276 185 -331 -17 -26 -17 -27 37 -38 57 -13 108 -92 108 -169 0 -51
22 -117 42 -128 12 -7 42 -8 72 -5 44 6 56 4 78 -14 50 -39 56 -93 32 -317 -6
-56 -5 -63 18 -85 16 -16 45 -29 88 -37 87 -17 97 -24 111 -74 14 -53 6 -110
-25 -181 -28 -64 -27 -74 21 -133 40 -50 41 -57 24 -162 -22 -135 1 -315 45
-352 18 -15 18 -39 1 -39 -19 0 -49 35 -91 105 -32 53 -36 68 -35 125 0 36 6
99 14 140 l13 75 -38 65 c-21 36 -42 77 -45 91 -4 15 3 66 16 118 29 121 24
137 -56 168 -33 13 -73 37 -90 53 l-30 30 -2 157 c-1 149 -3 159 -23 175 -12
10 -32 18 -45 18 -30 0 -85 38 -111 77 -12 18 -25 54 -29 80 -13 91 -53 144
-126 168 -48 16 -109 72 -109 100 0 18 -27 45 -45 45 -8 0 -21 -10 -30 -23
-12 -19 -13 -32 -3 -78 14 -70 8 -95 -42 -155 -46 -56 -51 -92 -24 -175 23
-70 14 -120 -30 -169 -20 -22 -36 -50 -36 -63 0 -12 21 -56 45 -97 67 -111 74
-139 46 -203 -37 -83 -37 -99 0 -163 47 -83 92 -121 235 -199 210 -114 314
-232 314 -356 0 -26 -6 -41 -17 -48 -16 -8 -16 -12 -3 -36 34 -64 54 -75 130
-75 80 0 121 -14 171 -58 53 -46 76 -105 108 -270 16 -82 36 -163 44 -179 9
-16 59 -72 111 -124 85 -85 115 -129 87 -129 -17 0 -127 87 -166 132 -53 60
-111 178 -135 276 -49 195 -96 252 -209 252 -98 0 -137 30 -191 145 -20 44
-46 88 -58 98 -13 12 -48 22 -99 28 -92 12 -109 21 -164 95 -23 30 -50 59 -60
64 -38 21 -41 14 -34 -73 6 -73 4 -90 -15 -134 l-21 -50 40 -77 c43 -80 50
-126 31 -183 -8 -21 -7 -40 2 -69 11 -32 27 -48 95 -94 45 -30 92 -67 103 -82
17 -22 40 -108 40 -150 0 -4 26 -24 57 -45 32 -21 67 -53 79 -71 21 -31 23
-32 33 -14 6 11 31 30 57 42 59 29 95 19 189 -50 37 -27 72 -50 78 -50 5 0 27
16 48 35 44 40 80 45 135 19 34 -16 91 -84 115 -137 13 -28 13 -28 84 -22 133
13 180 -38 235 -252 11 -45 41 -73 77 -73 29 0 29 13 1 50 -15 21 -22 44 -22
78 0 45 9 69 49 138 18 30 18 35 3 98 -17 69 -12 112 15 150 11 15 10 26 -5
70 -25 74 -22 108 17 197 47 106 46 134 -5 184 -57 56 -56 101 5 220 50 98 64
150 47 174 -62 86 -77 167 -47 252 19 54 13 82 -30 144 -33 45 -35 54 -35 127
0 86 -10 96 -60 61 -13 -10 -47 -25 -75 -34 -54 -17 -67 -34 -86 -108 -15 -60
-53 -96 -112 -105 -26 -4 -54 -14 -63 -23 -26 -26 -13 -96 34 -192 47 -94 51
-122 23 -167 -15 -24 -34 -37 -78 -51 -51 -17 -60 -24 -72 -57 -21 -55 -2
-104 69 -181 77 -82 86 -114 67 -240 -10 -68 -10 -99 -3 -113 6 -10 44 -49 84
-87 86 -81 114 -129 110 -187 -4 -61 -22 -57 -47 11 -19 52 -31 68 -102 126
-89 74 -136 132 -145 180 -3 18 2 67 11 108 9 42 14 86 10 99 -4 13 -28 50
-53 83 -57 76 -74 117 -74 175 1 78 27 116 112 167 17 9 33 25 36 35 3 10 -13
57 -36 109 -39 83 -42 96 -38 155 5 81 32 114 102 121 51 6 50 4 36 53 -18 60
4 131 62 203 84 105 89 123 73 258 l-8 66 54 77 c60 85 56 65 49 271 -2 57 3
81 24 128 41 92 44 129 11 193 -26 52 -27 59 -17 105 17 73 15 107 -7 118 -14
8 -26 4 -52 -15 -19 -14 -48 -32 -66 -39 -25 -11 -39 -28 -61 -77 -32 -72 -74
-112 -134 -130 -44 -13 -68 -50 -68 -104 0 -50 -38 -108 -90 -137 -55 -31 -64
-48 -50 -97 17 -61 -3 -107 -80 -180 -69 -66 -90 -105 -90 -172 0 -16 -4 -28
-10 -28 -14 0 -13 149 2 191 6 19 31 55 55 81 41 45 43 50 43 111 0 77 24 120
85 154 60 33 65 40 65 94 0 94 41 149 110 149 51 0 77 23 95 82 8 28 15 53 15
55 0 1 -10 2 -22 0 -16 -1 -22 3 -20 13 10 46 113 264 154 327 43 65 48 80 48
129 0 30 -7 69 -16 85 -8 17 -13 33 -10 36 11 11 24 -9 35 -50 6 -25 17 -50
26 -57 13 -10 19 -8 38 16 39 50 90 105 94 101 6 -7 -67 -128 -97 -162 -90
-102 -91 -144 -1 -130 l36 6 -35 -20 c-19 -11 -46 -20 -59 -21 -39 0 -103 -76
-140 -165 -18 -42 -30 -79 -28 -81 7 -7 127 52 151 74 33 31 66 44 91 38 18
-5 32 4 69 44 56 60 81 115 107 234 14 64 28 100 49 127 28 34 29 41 24 96 -6
51 -3 66 20 111 14 29 23 53 19 54 -5 1 -30 2 -58 3 -27 0 -67 4 -87 9 -37 8
-37 8 -72 -47 -26 -40 -45 -59 -76 -71 -51 -20 -71 -20 -108 1 -38 22 -80 10
-101 -29 -15 -25 -14 -31 17 -91 28 -55 31 -68 22 -92 -17 -45 -64 -98 -169
-189 -117 -102 -120 -108 -161 -346 -14 -85 -30 -154 -36 -153 -5 1 -12 19
-16 40 -11 58 -9 294 2 333 19 68 76 129 249 268 50 40 53 70 16 140 -14 26
-25 56 -25 68 0 42 46 89 154 161 61 40 114 80 119 88 5 10 0 34 -17 71 -33
72 -33 126 -1 186 20 38 25 61 25 125 0 54 6 90 19 119 10 23 16 46 12 52 -4
7 -35 8 -90 3 -81 -7 -86 -9 -110 -41 -67 -87 -104 -120 -132 -120 -41 0 -65
-29 -73 -89 -14 -107 -44 -134 -146 -132 -67 1 -68 1 -83 -32 -8 -17 -25 -70
-38 -116 -24 -91 -67 -156 -89 -135 -9 9 -7 21 8 50 10 22 24 80 30 131 6 50
18 105 27 122 20 39 66 63 118 61 87 -4 85 -5 103 58 24 83 48 117 96 137 44
17 168 134 168 157 0 7 -12 0 -26 -17 l-25 -30 6 35 c6 34 23 172 24 198 2 24
49 62 79 62 71 0 92 17 137 114 23 50 55 102 70 116 24 22 34 25 100 23 60 -2
79 2 97 17 18 15 21 21 11 31 -39 40 3 117 86 159 34 16 68 42 77 56 16 24 16
28 1 60 -10 19 -17 52 -17 74 0 32 8 48 45 90 40 45 45 56 45 98 0 29 8 59 20
80 11 18 20 37 20 42 0 13 -21 13 -40 0z m-140 -198 c0 -5 -34 -57 -75 -117
-42 -59 -74 -109 -72 -111 2 -2 21 -7 43 -12 l39 -8 -49 -13 c-64 -16 -104
-36 -143 -74 -41 -39 -41 -54 -1 -72 l33 -13 -40 -7 c-85 -14 -105 -26 -165
-95 -81 -95 -152 -203 -206 -313 -61 -124 -59 -120 -74 -125 -17 -6 -13 7 50
153 29 66 54 131 57 145 2 14 -5 49 -16 78 -12 29 -21 56 -21 60 1 4 18 -12
39 -36 l38 -43 57 68 58 67 -5 59 -5 59 27 -26 c15 -14 32 -26 37 -26 6 0 55
42 109 94 l98 93 -6 77 c-6 81 1 88 31 30 l18 -35 43 37 c23 20 54 54 67 75
24 38 34 47 34 31z m-962 -484 c-45 -120 -105 -317 -109 -358 -4 -38 -2 -39
56 -25 l30 6 -30 -23 c-90 -68 -100 -93 -108 -259 -6 -129 -1 -140 48 -116 67
32 70 20 12 -42 l-57 -60 0 -105 c0 -83 -3 -106 -14 -106 -15 0 -22 76 -32
350 l-6 155 -35 48 c-38 52 -38 74 0 39 26 -25 57 -29 57 -8 0 7 14 58 31 112
40 131 41 169 6 222 -30 46 -25 51 22 25 16 -10 32 -15 34 -13 3 3 30 58 60
123 31 64 58 117 61 117 3 0 -9 -37 -26 -82z m389 -860 c-66 -101 -153 -254
-162 -287 l-7 -24 68 7 c66 5 67 5 34 -8 -90 -34 -141 -67 -167 -109 -39 -61
-82 -168 -89 -221 l-7 -45 49 -3 49 -3 -48 -23 c-59 -27 -73 -57 -87 -184 -5
-51 -10 -97 -10 -101 0 -5 -4 -5 -10 -2 -13 8 -13 104 1 220 13 112 6 139 -51
209 -22 26 -40 51 -40 53 0 3 20 -13 45 -36 24 -22 48 -41 53 -41 14 0 32 23
32 42 0 11 9 36 20 58 24 47 25 83 5 140 -20 58 -20 59 18 22 40 -39 31 -46
136 113 71 108 73 110 69 167 l-3 57 22 -21 c22 -21 23 -21 43 -3 11 10 34 40
51 67 17 27 34 47 36 44 2 -2 -20 -42 -50 -88z m-947 -429 c32 -185 63 -311
79 -317 8 -3 22 6 33 21 34 47 39 29 8 -29 -36 -69 -37 -87 -5 -189 40 -126
56 -165 68 -165 6 0 35 26 64 58 l53 57 -39 -75 c-50 -96 -56 -126 -36 -181 9
-24 23 -66 32 -92 19 -61 39 -70 70 -31 l23 29 -25 -63 -26 -64 16 -80 c9 -44
14 -82 12 -85 -3 -2 -8 11 -12 29 -4 18 -27 82 -50 143 -24 60 -64 169 -90
240 -26 72 -54 139 -63 149 -10 10 -44 31 -77 47 l-60 28 51 -6 c28 -3 54 -1
56 3 3 5 -7 59 -22 119 -15 61 -34 147 -43 193 -10 56 -24 94 -41 117 l-26 34
21 11 c23 13 22 7 3 175 -11 89 5 42 26 -76z m976 -1195 c-36 -108 -66 -203
-66 -211 0 -12 10 -14 53 -9 50 6 51 6 27 -9 -14 -8 -39 -22 -57 -29 -17 -8
-39 -26 -49 -41 -21 -32 -97 -332 -89 -352 3 -11 13 -13 30 -9 36 9 31 -3 -16
-44 l-41 -35 -9 -114 c-5 -63 -11 -116 -13 -118 -2 -3 -7 35 -11 82 -7 80 -4
154 12 291 5 50 4 53 -36 93 -44 44 -37 53 17 21 18 -11 37 -18 41 -16 4 3 20
50 36 105 l28 100 -37 61 c-21 34 -35 64 -32 67 3 3 21 -8 41 -26 20 -17 40
-31 45 -31 20 0 80 150 80 200 0 14 -7 35 -15 46 -17 23 -20 43 -3 26 20 -20
47 -13 61 16 8 15 25 58 38 96 13 38 25 62 27 53 2 -9 -26 -105 -62 -213z
m-1035 -195 c32 -125 94 -306 111 -326 17 -21 25 -16 58 33 40 58 49 51 16
-12 -35 -66 -34 -117 4 -202 37 -79 118 -212 130 -212 5 0 17 11 27 25 65 91
80 98 38 16 -41 -81 -37 -101 47 -262 76 -148 124 -256 116 -264 -2 -3 -28 39
-58 93 -29 53 -88 156 -130 227 -42 72 -88 150 -101 173 -28 52 -62 72 -135
79 -30 3 -54 9 -54 13 0 4 23 10 50 12 28 3 54 8 57 12 4 4 -14 46 -39 94 -26
48 -54 112 -62 143 -22 76 -34 89 -102 115 l-59 23 48 0 c57 1 62 10 47 77
-35 158 -51 203 -84 223 -28 19 -29 21 -8 21 12 0 25 7 29 16 10 27 23 0 54
-117z m1200 -1112 c-19 -172 -12 -215 30 -189 35 22 34 5 -6 -52 l-37 -54 25
-157 c14 -86 28 -159 31 -163 4 -3 12 0 18 6 7 7 16 12 20 12 14 0 9 -27 -7
-40 -22 -18 -19 -96 10 -265 27 -151 31 -295 9 -302 -8 -3 -14 26 -19 89 -10
146 -34 279 -55 313 -11 17 -35 40 -54 50 -41 22 -38 37 4 28 28 -5 30 -4 30
27 0 54 -31 242 -45 277 -8 19 -33 45 -62 63 l-48 32 35 -7 c81 -16 75 -31 78
165 3 193 1 211 -29 241 -25 25 -16 38 12 21 28 -18 34 -11 50 55 l14 58 3
-55 c2 -30 -2 -99 -7 -153z m-1085 -279 c24 -27 48 -48 54 -48 6 0 13 14 17
30 10 52 20 42 25 -25 5 -60 9 -69 56 -122 78 -91 232 -235 245 -230 6 2 16
20 20 40 13 54 24 45 29 -23 4 -60 5 -62 76 -133 40 -40 72 -77 72 -81 0 -5
-10 0 -22 11 -13 12 -45 37 -73 55 -27 19 -68 47 -90 62 -37 25 -45 27 -100
21 l-59 -6 27 27 27 27 -49 56 c-27 31 -71 77 -99 103 -43 40 -57 47 -106 53
-54 7 -79 25 -33 25 12 0 28 4 36 9 21 14 7 39 -88 157 -83 104 -109 151 -44
79 20 -22 56 -61 79 -87z"/>
<path d="M11094 8928 c-9 -18 -30 -48 -46 -66 -27 -31 -28 -38 -21 -80 17 -97
11 -135 -28 -183 -52 -64 -52 -65 -30 -115 12 -26 21 -61 21 -78 0 -45 -46
-132 -85 -162 l-34 -25 14 -45 c24 -80 38 -94 98 -94 72 0 124 -31 159 -95 24
-44 28 -61 28 -141 0 -75 3 -94 18 -107 10 -10 23 -17 29 -17 5 0 29 -14 52
-31 77 -55 89 -135 36 -239 -15 -29 -25 -66 -25 -91 0 -28 -4 -39 -12 -36 -15
4 -16 106 -3 198 7 50 5 57 -16 81 -13 14 -43 30 -66 37 -24 7 -52 24 -67 42
-24 29 -26 37 -26 137 0 88 -3 113 -20 139 -30 49 -53 58 -117 42 -53 -12 -55
-12 -81 14 -15 16 -39 63 -57 114 -25 73 -35 90 -60 102 -29 14 -44 12 -126
-15 -10 -4 -36 11 -68 40 -80 71 -118 57 -81 -30 26 -59 25 -103 -1 -157 -30
-61 -21 -88 44 -136 113 -83 129 -128 77 -216 -16 -27 -30 -59 -30 -71 0 -27
33 -57 95 -83 74 -33 95 -56 95 -108 0 -55 -17 -88 -69 -135 -23 -20 -41 -41
-41 -46 0 -5 29 -35 65 -67 47 -41 65 -63 65 -82 0 -32 14 -58 61 -111 42 -48
54 -95 44 -166 -6 -35 -12 -46 -25 -46 -23 0 -30 19 -30 80 0 42 -6 55 -45
104 -25 31 -53 73 -62 93 -14 35 -38 62 -55 63 -16 0 -48 -41 -48 -61 0 -11
20 -40 44 -63 37 -36 46 -54 59 -110 21 -94 36 -113 105 -131 79 -21 103 -35
129 -74 20 -29 23 -47 23 -122 0 -100 7 -111 83 -124 54 -10 100 -45 111 -84
7 -24 5 -58 -9 -126 l-18 -93 22 -59 c29 -77 27 -168 -4 -168 -15 0 -22 11
-31 53 -7 29 -19 61 -27 70 -51 58 -59 129 -26 216 20 52 21 57 5 80 -10 16
-29 27 -53 32 -96 17 -125 57 -134 187 -4 62 -12 104 -20 112 -8 8 -45 22 -83
32 -84 22 -100 40 -127 148 -11 44 -28 89 -39 99 -11 12 -41 22 -76 27 -39 5
-70 17 -100 38 -23 17 -47 31 -52 31 -6 0 -13 -24 -17 -52 -4 -29 -14 -68 -21
-87 -14 -33 -13 -38 13 -89 37 -73 36 -116 -5 -178 -50 -79 -46 -93 77 -249
62 -78 65 -122 17 -192 -20 -29 -36 -61 -36 -72 0 -11 32 -54 71 -96 66 -71
71 -80 66 -113 -2 -21 -14 -60 -27 -88 -36 -80 -30 -91 98 -202 86 -74 131
-164 110 -222 -8 -26 -6 -34 15 -60 36 -42 50 -94 43 -154 -3 -28 -3 -68 1
-89 5 -33 12 -41 53 -62 101 -51 117 -105 71 -244 l-32 -96 26 -70 c21 -55 26
-80 21 -119 -7 -60 -36 -97 -60 -77 -10 9 -13 19 -7 30 5 9 11 32 15 52 5 30
2 42 -24 74 -16 21 -35 55 -40 76 -11 39 -10 43 44 188 24 62 12 89 -54 126
-31 17 -62 44 -73 63 -18 31 -19 41 -8 135 14 125 10 132 -82 132 -87 1 -115
18 -157 95 -48 88 -64 86 -70 -9 l-5 -73 -54 -48 c-60 -53 -60 -51 -25 -178
23 -87 15 -110 -56 -143 -61 -30 -90 -55 -90 -78 0 -9 21 -57 46 -108 46 -90
62 -158 50 -206 -3 -13 -30 -43 -60 -65 -30 -23 -57 -51 -61 -61 -8 -28 21
-86 104 -205 39 -55 77 -123 86 -154 23 -71 15 -139 -20 -169 -15 -13 -25 -33
-25 -50 0 -15 -5 -64 -12 -110 l-12 -83 54 -48 c53 -48 54 -50 54 -104 0 -44
-8 -71 -43 -141 l-44 -87 17 -43 c42 -110 4 -182 -146 -281 -110 -73 -148 -39
-43 38 36 26 77 63 92 82 24 33 25 39 18 102 -15 120 -12 135 29 195 22 31 40
71 43 94 5 37 2 44 -46 97 -57 63 -60 79 -39 191 10 57 9 66 -8 96 -11 19 -37
42 -57 52 -36 17 -90 79 -102 118 -4 10 -15 19 -25 19 -19 0 -23 -10 -46 -103
-8 -33 -47 -75 -92 -99 -39 -21 -42 -54 -12 -119 29 -64 26 -105 -9 -140 -19
-19 -40 -29 -59 -29 -16 0 -40 -8 -52 -18 -22 -18 -23 -20 -11 -98 11 -69 11
-85 -2 -116 -9 -20 -26 -42 -39 -49 -12 -6 -24 -13 -26 -14 -1 -1 5 -17 15
-35 24 -49 19 -106 -16 -180 -17 -36 -31 -73 -31 -82 0 -10 16 -38 35 -64 19
-25 35 -56 35 -68 0 -25 17 -46 37 -46 8 0 41 29 75 65 57 60 99 85 146 85 7
0 35 -20 61 -45 26 -25 54 -45 61 -45 7 0 32 11 54 24 71 42 127 39 192 -11
45 -35 52 -37 111 -35 59 3 66 0 93 -27 17 -16 30 -37 30 -46 0 -29 -28 -69
-74 -108 -25 -21 -46 -44 -46 -51 0 -7 -18 -34 -40 -59 -39 -44 -104 -77 -154
-77 -27 -1 -43 -14 -85 -70 -48 -63 -68 -78 -129 -96 -58 -17 -102 -12 -102
11 0 11 12 15 46 15 53 0 77 21 128 110 35 62 94 100 156 100 48 0 78 23 101
79 11 25 34 61 51 78 28 29 30 35 20 58 -9 19 -19 25 -45 25 -22 0 -50 12 -83
35 -27 19 -53 35 -57 35 -4 0 -31 -16 -60 -35 -40 -27 -62 -35 -96 -35 -41 0
-49 4 -92 50 -26 28 -54 50 -63 50 -8 0 -52 -25 -97 -56 -74 -50 -85 -55 -119
-49 -33 6 -39 4 -45 -14 -3 -11 -33 -39 -65 -62 -32 -22 -61 -48 -64 -56 -4
-9 5 -35 19 -59 57 -98 15 -200 -116 -280 -55 -33 -102 -43 -114 -25 -6 11 19
31 100 81 91 56 103 102 48 182 -43 63 -30 97 67 190 47 44 80 84 80 96 0 10
-12 37 -27 58 -15 23 -28 58 -31 85 -4 40 1 56 32 111 49 88 47 107 -14 172
-43 45 -52 62 -61 112 -25 133 -48 137 -118 24 -37 -60 -58 -82 -101 -107 -89
-53 -92 -60 -84 -174 6 -83 4 -102 -10 -124 -24 -36 -75 -65 -114 -65 -25 0
-43 -9 -69 -35 l-35 -35 7 -84 c4 -46 4 -102 0 -124 -7 -42 -10 -45 -133 -158
l-53 -48 35 -18 c39 -20 61 -48 71 -91 13 -51 -4 -92 -70 -172 -36 -43 -65
-86 -65 -96 0 -10 16 -40 36 -66 33 -43 36 -52 31 -97 -4 -44 -10 -55 -53 -96
-39 -37 -67 -53 -133 -75 -87 -29 -131 -60 -131 -92 0 -10 5 -36 10 -58 12
-53 -4 -116 -40 -150 -46 -44 -91 -54 -215 -48 -125 6 -200 -6 -270 -43 -56
-29 -85 -31 -85 -6 0 23 22 43 75 70 83 41 145 53 273 53 l124 -1 29 30 c30
30 30 31 24 108 l-7 77 43 40 c24 22 80 58 123 80 93 47 136 84 136 117 0 12
-14 46 -30 73 -49 82 -38 126 55 225 51 54 69 89 58 115 -2 8 -27 28 -54 46
-53 33 -57 44 -61 129 -3 47 -6 55 -23 55 -14 0 -28 -16 -47 -50 -15 -27 -39
-61 -54 -73 -28 -25 -30 -25 -136 -6 l-37 6 -40 -79 c-21 -44 -46 -85 -55 -92
-25 -21 -19 -28 26 -34 77 -10 103 -79 51 -132 -16 -15 -51 -38 -80 -52 -53
-25 -63 -41 -63 -100 0 -63 -94 -133 -179 -133 -48 0 -56 -14 -53 -83 2 -56
-1 -68 -28 -109 -37 -55 -79 -76 -183 -87 -87 -10 -111 -24 -134 -81 -21 -49
-47 -79 -100 -117 -60 -43 -37 -43 85 -3 108 36 141 37 199 9 49 -24 58 -36
68 -96 11 -72 20 -77 126 -78 142 -2 181 -29 193 -135 9 -76 19 -90 45 -66 17
16 30 18 76 12 30 -3 79 -9 109 -12 l54 -7 54 50 c29 28 63 55 75 62 43 22
102 13 196 -30 113 -52 134 -49 153 25 21 82 36 90 169 96 l115 5 53 58 c39
43 63 61 96 71 25 7 47 18 49 25 4 12 -56 41 -86 41 -11 0 -40 16 -66 36 -60
45 -92 54 -148 42 -62 -15 -92 -5 -149 49 l-49 46 -68 -27 c-98 -39 -131 -38
-187 10 -26 21 -58 45 -73 53 -24 13 -25 14 -7 27 31 23 74 17 112 -16 42 -37
59 -37 130 0 35 19 70 30 96 30 36 0 46 -6 87 -50 l46 -49 49 8 c35 5 60 17
84 39 30 29 39 32 100 32 89 0 118 10 187 63 76 58 105 64 215 41 101 -20 115
-15 125 45 12 77 46 95 182 96 l104 0 31 37 c18 21 47 56 66 78 23 28 50 46
91 61 120 44 128 91 18 103 -72 9 -105 26 -168 90 -24 25 -52 46 -63 46 -21 0
-60 -19 -113 -55 -70 -48 -161 -27 -212 48 -56 81 -91 79 -186 -12 -88 -85
-125 -105 -196 -105 -46 -1 -62 4 -102 32 -58 40 -114 43 -153 10 -14 -13 -55
-72 -89 -133 -53 -92 -74 -118 -125 -158 -42 -31 -72 -47 -92 -47 -41 0 -37
23 8 57 65 48 121 113 159 182 55 98 80 128 137 161 76 44 123 40 190 -16 19
-16 41 -24 68 -24 33 0 48 9 110 63 107 93 117 99 164 105 66 7 90 -3 151 -64
52 -53 58 -56 94 -51 21 3 59 19 83 36 53 36 96 40 148 13 l36 -18 45 41 c25
23 62 67 82 97 58 92 94 111 252 133 102 14 149 30 172 58 6 7 14 45 18 83 5
59 9 73 34 96 16 15 53 35 82 45 29 10 75 29 103 43 53 26 50 21 85 150 12 43
24 57 114 132 42 35 27 48 -53 48 -38 0 -88 7 -111 15 -74 26 -89 22 -150 -45
-78 -87 -143 -99 -218 -40 -48 38 -64 28 -136 -79 -61 -91 -124 -161 -145
-161 -25 0 -18 34 13 65 20 20 48 69 71 123 48 116 86 155 150 155 35 0 55 -7
90 -32 52 -37 57 -36 105 35 34 48 81 73 142 75 41 2 48 6 126 89 l82 87 15
87 c7 48 21 98 29 112 9 13 42 41 73 61 80 53 85 73 42 159 -34 69 -36 87 -27
199 4 39 -19 43 -67 11 -54 -37 -97 -46 -184 -39 -89 7 -85 10 -147 -106 -46
-87 -83 -117 -152 -126 -80 -10 -89 -18 -102 -79 -16 -80 -55 -127 -126 -155
-32 -12 -67 -29 -77 -38 -13 -12 -20 -14 -29 -5 -17 17 -2 40 49 71 89 54 101
68 119 132 27 96 93 149 185 149 39 0 75 34 95 91 40 110 118 163 208 140 64
-16 66 -16 142 34 37 25 79 45 92 45 32 0 82 -52 82 -84 0 -24 3 -26 43 -26
32 0 51 7 76 28 29 24 33 35 42 101 10 85 26 114 76 143 43 26 51 48 46 118
-4 52 -2 58 36 108 23 29 41 56 41 61 0 17 -30 20 -156 14 l-126 -6 -25 -36
c-13 -20 -34 -52 -46 -71 -42 -66 -140 -91 -197 -50 -41 29 -83 35 -100 15 -7
-9 -32 -48 -54 -88 -33 -58 -50 -76 -86 -95 -40 -21 -54 -23 -130 -17 -47 3
-93 3 -103 -1 -36 -13 -59 -83 -68 -199 -8 -123 -19 -163 -72 -256 -43 -78
-71 -109 -97 -109 -29 0 -25 32 6 61 14 13 38 44 52 68 23 40 26 58 33 190 8
157 23 221 64 281 41 59 103 74 186 45 40 -14 48 -14 84 0 34 13 46 27 85 97
47 86 84 118 133 118 32 0 77 -21 96 -44 8 -10 29 -16 52 -16 36 0 42 4 74 54
42 66 88 106 123 107 15 1 60 0 100 -1 61 -1 72 1 72 14 0 9 6 27 14 39 8 12
18 45 21 72 6 45 14 56 74 115 87 84 92 93 84 173 -6 65 -5 68 37 138 l43 72
-27 24 c-37 31 -51 29 -105 -14 -41 -35 -51 -38 -118 -42 -51 -2 -73 0 -73 8
0 7 -4 10 -9 6 -6 -3 4 -27 20 -54 44 -70 48 -119 15 -175 -36 -62 -101 -115
-176 -145 -53 -22 -71 -36 -109 -85 -59 -76 -84 -93 -156 -112 -121 -32 -181
-74 -227 -160 -27 -51 -58 -60 -58 -16 1 39 18 64 91 139 70 71 115 101 202
133 31 12 57 25 57 29 0 4 26 35 59 69 43 46 77 70 133 95 124 57 146 111 82
199 -63 85 -56 166 18 221 18 13 70 43 115 67 54 27 93 56 116 83 61 75 61 75
16 163 -46 91 -45 111 5 189 84 129 85 152 15 232 -28 32 -62 82 -75 111 -12
29 -30 55 -39 58 -28 11 -64 -6 -81 -39 -30 -58 -84 -116 -136 -144 -28 -15
-55 -35 -59 -43 -5 -8 -11 -46 -14 -84 -6 -62 -11 -72 -48 -113 -26 -28 -66
-56 -113 -77 -42 -20 -77 -44 -85 -57 -7 -14 -14 -64 -15 -118 -2 -75 -6 -99
-21 -120 -29 -38 -82 -71 -115 -71 -40 0 -88 -48 -88 -89 0 -16 7 -60 16 -98
21 -92 16 -202 -12 -240 -22 -28 -42 -30 -36 -3 16 71 12 150 -12 229 -55 180
-23 252 126 285 45 10 69 57 80 154 14 125 24 142 120 193 94 51 114 74 128
148 16 84 46 130 114 169 45 27 62 43 77 78 11 23 33 56 49 73 17 16 30 37 30
46 0 29 27 79 68 129 63 75 63 98 7 191 -17 27 -25 55 -25 86 0 39 6 53 39 90
43 50 71 99 71 126 0 11 -18 38 -40 62 -22 23 -40 51 -40 62 0 11 11 42 25 69
30 60 31 84 5 141 -24 53 -25 114 -5 163 12 28 13 41 5 57 -15 27 -24 23 -68
-36 -29 -39 -51 -55 -100 -76 -35 -14 -70 -33 -79 -41 -9 -9 -18 -45 -23 -85
-11 -101 -24 -120 -120 -171 -72 -38 -84 -62 -65 -133 37 -137 1 -203 -123
-224 -54 -9 -65 -28 -45 -80 38 -105 44 -132 40 -185 -6 -66 -23 -107 -49
-116 -29 -9 -32 1 -19 59 12 50 12 56 -17 132 -42 112 -45 122 -38 161 10 50
49 91 96 99 45 8 95 57 85 84 -4 9 -9 52 -12 96 -5 77 -5 82 22 113 15 18 53
46 84 62 32 15 63 35 69 43 10 12 32 106 32 139 0 17 57 72 88 85 l34 14 -27
29 c-23 24 -29 43 -37 107 -5 43 -12 94 -14 113 -3 23 5 65 25 124 45 131 43
145 -29 216 -33 33 -60 67 -60 77 0 10 7 43 15 73 8 30 15 89 15 131 0 82 -5
88 -63 89 -34 0 -76 39 -87 81 -9 32 -8 52 4 94 28 93 18 119 -62 159 -23 12
-39 31 -52 62 -18 40 -22 44 -54 44 -30 0 -38 -5 -52 -32z m61 -238 c13 10 15
9 15 -8 0 -12 -5 -32 -11 -45 -11 -25 -10 -31 45 -211 17 -55 36 -64 73 -36
50 36 56 19 13 -34 -46 -55 -46 -60 -24 -208 22 -140 26 -145 87 -119 26 11
47 16 47 12 0 -5 -24 -29 -52 -54 l-53 -45 -3 -79 c-4 -85 -22 -127 -22 -52 0
55 -28 263 -40 294 -13 33 -71 74 -137 96 l-58 20 54 -6 c30 -3 67 -9 82 -12
27 -5 29 -3 29 27 0 18 -4 49 -10 69 -5 20 -12 53 -15 73 -7 44 -47 95 -90
114 l-30 13 30 1 c55 1 58 8 41 93 -21 99 -21 113 -1 97 12 -10 18 -10 30 0z
m-432 -645 c14 0 23 -9 28 -29 4 -16 17 -38 27 -50 11 -11 42 -69 70 -128 28
-60 55 -108 60 -108 12 0 41 32 68 78 23 36 23 36 24 10 0 -14 -11 -50 -25
-80 -14 -29 -25 -70 -25 -90 0 -37 62 -234 79 -251 12 -12 82 46 117 95 15 21
30 35 35 32 16 -9 10 -21 -36 -75 -24 -29 -56 -69 -70 -89 l-26 -37 12 -154
c12 -145 9 -209 -9 -209 -4 0 -13 41 -20 92 -12 97 -29 133 -74 155 -13 7 -33
22 -44 34 l-19 22 25 -7 c47 -15 74 -12 78 7 2 11 -11 80 -28 155 -31 133 -34
138 -76 178 -24 23 -58 46 -76 51 l-33 11 48 1 c35 1 47 5 47 16 0 9 -22 60
-50 114 -59 119 -108 165 -195 187 l-30 7 38 7 c20 4 40 9 43 12 3 4 -4 24
-15 47 -28 54 -26 62 6 26 15 -16 35 -30 46 -30z m882 -737 c-30 -87 -68 -318
-54 -333 6 -6 27 0 59 18 67 38 85 24 22 -18 -70 -48 -102 -89 -102 -133 0
-32 -14 -137 -35 -259 -8 -46 7 -42 69 17 29 28 56 50 59 50 21 0 -2 -33 -77
-109 -66 -68 -93 -105 -131 -180 -85 -169 -159 -272 -186 -255 -15 9 -11 17
32 74 47 63 117 205 150 303 22 67 22 68 3 109 -10 23 -30 55 -42 70 -30 35
-23 35 29 1 24 -16 43 -23 49 -17 5 5 21 81 35 168 l26 159 -51 58 c-53 61
-69 100 -22 57 15 -14 37 -31 49 -37 28 -14 38 2 47 80 7 63 36 166 68 237 32
70 34 27 3 -60z m-1017 -644 c35 -82 70 -168 79 -191 8 -24 21 -43 28 -43 18
0 58 54 79 104 11 27 20 36 27 29 12 -12 -12 -79 -50 -137 -35 -53 -32 -95 13
-188 38 -79 53 -91 76 -63 26 31 111 97 117 91 3 -3 -15 -27 -41 -53 -26 -27
-56 -68 -68 -91 -20 -43 -20 -45 -4 -105 10 -34 22 -100 26 -146 5 -46 11 -86
14 -88 14 -14 66 14 107 58 25 27 48 49 52 49 16 0 -20 -49 -86 -117 -81 -84
-85 -98 -86 -275 -1 -99 -10 -133 -29 -113 -4 4 -7 64 -7 133 0 80 -4 135 -12
148 -15 26 -80 71 -116 79 -15 4 -29 11 -32 15 -12 19 16 18 79 -3 82 -26 89
-20 80 68 -12 128 -23 161 -64 199 -21 19 -57 40 -79 46 -21 6 -52 17 -68 26
-28 15 -27 15 22 8 88 -13 110 -11 113 11 1 11 -26 93 -61 182 -59 150 -67
165 -105 193 -24 17 -54 30 -71 30 -17 0 -33 5 -37 11 -7 12 57 8 88 -5 44
-20 32 43 -38 207 -38 88 -39 90 -22 85 7 -3 41 -72 76 -154z m1072 -600 c-17
-50 0 -67 35 -34 42 40 40 14 -3 -38 -23 -27 -48 -55 -57 -62 -8 -7 -21 -33
-29 -59 -8 -25 -32 -88 -55 -139 -23 -51 -41 -97 -41 -101 0 -11 81 -2 95 10
5 5 19 9 31 9 13 0 26 5 29 10 3 6 16 10 27 10 20 0 21 -1 3 -20 -10 -11 -26
-20 -36 -20 -10 0 -53 -16 -95 -36 -59 -28 -83 -47 -108 -81 -54 -76 -225
-376 -220 -385 3 -4 42 -8 87 -9 91 0 89 -2 -47 -45 -49 -16 -100 -37 -113
-47 -30 -24 -96 -136 -128 -217 -23 -59 -38 -79 -57 -80 -32 0 42 170 158 363
42 70 46 83 41 123 -2 25 -18 66 -35 94 -37 59 -25 76 15 24 15 -20 35 -46 44
-57 22 -28 32 -19 106 86 50 71 57 88 61 139 4 50 0 67 -31 133 -25 52 -32 75
-22 75 12 0 55 -74 55 -97 0 -5 9 -18 20 -28 19 -17 21 -17 39 -1 33 30 118
215 171 371 63 187 62 185 67 162 3 -9 -1 -33 -7 -53z m-1099 -909 c17 -54 24
-106 29 -228 4 -86 9 -159 12 -162 2 -2 30 5 62 16 31 12 60 19 62 16 3 -3
-11 -18 -32 -34 -94 -72 -94 -71 -109 -168 -24 -147 -19 -179 25 -155 12 6 33
10 47 8 25 -3 23 -5 -23 -34 -73 -45 -81 -69 -99 -290 -15 -199 -29 -263 -76
-356 -30 -60 -43 -73 -59 -63 -6 3 5 34 25 73 52 100 65 166 65 323 l0 137
-52 46 c-29 25 -60 46 -70 46 -9 0 -20 5 -23 10 -8 12 27 13 41 1 13 -12 104
-35 111 -28 3 4 14 70 24 148 21 166 15 195 -54 254 -45 38 -36 46 15 15 41
-25 64 -25 73 -2 11 24 19 245 11 278 -4 15 -30 49 -59 75 -52 48 -63 77 -14
39 29 -23 57 -26 57 -6 0 7 -7 33 -15 56 -8 23 -15 50 -15 58 0 30 18 -2 41
-73z m1029 -614 c0 -6 -25 -31 -55 -58 -61 -52 -66 -74 -20 -84 26 -6 24 -7
-14 -8 -76 -2 -172 -32 -284 -88 -95 -48 -123 -73 -83 -73 8 0 33 -9 57 -19
35 -16 40 -21 26 -27 -10 -4 -30 -1 -44 5 -30 14 -135 5 -173 -15 -34 -17
-129 -117 -171 -179 -24 -36 -35 -45 -37 -32 -2 9 6 32 17 51 24 37 26 76 10
141 -15 59 -6 79 14 32 9 -20 23 -40 31 -43 9 -3 39 12 73 39 32 24 91 65 130
92 71 46 73 49 79 97 7 50 20 54 26 8 4 -32 27 -31 133 7 91 32 186 87 229
132 29 30 56 41 56 22z m-390 -648 c0 -5 -13 -28 -30 -53 -18 -27 -26 -48 -20
-54 8 -8 61 2 159 30 18 5 22 4 16 -5 -12 -20 -84 -47 -160 -60 -107 -18 -159
-49 -263 -154 -51 -52 -92 -99 -92 -105 0 -16 92 -24 186 -17 64 6 85 5 80 -4
-4 -6 -23 -11 -42 -11 -20 0 -43 -4 -53 -10 -10 -5 -56 -12 -102 -16 -142 -11
-151 -18 -277 -206 -113 -169 -165 -237 -207 -270 -23 -18 -26 -18 -31 -3 -5
11 7 30 33 58 41 42 126 164 157 224 23 46 22 64 -20 211 -4 13 -2 22 4 22 6
0 13 -10 17 -22 13 -49 39 -98 50 -98 7 0 39 33 71 73 31 39 77 93 101 119 46
51 54 83 28 128 -8 14 -14 31 -15 38 0 23 18 12 30 -19 14 -33 36 -59 50 -59
5 0 51 36 103 79 91 77 117 113 117 162 0 11 5 19 10 19 6 0 10 -6 10 -14 0
-25 27 -25 51 0 22 24 39 31 39 17z m-1194 -148 c43 -29 56 -28 65 6 4 19 8
12 19 -36 9 -42 11 -96 6 -178 l-7 -119 40 7 c43 7 66 -9 29 -20 -67 -20 -88
-38 -114 -94 -14 -31 -41 -87 -60 -125 -19 -38 -32 -71 -28 -75 3 -3 25 -5 50
-4 24 1 46 -3 49 -8 4 -5 -2 -9 -12 -9 -53 0 -146 -44 -203 -96 -69 -65 -85
-69 -38 -11 37 45 117 167 143 216 19 38 19 78 0 115 -18 35 -12 45 13 23 24
-22 39 -21 51 1 19 37 61 209 61 254 0 43 -5 54 -55 113 -31 36 -53 65 -51 65
3 0 22 -11 42 -25z m-523 -566 l-6 -91 24 13 c13 8 34 23 46 33 13 11 26 17
29 13 4 -3 -23 -35 -58 -69 -62 -60 -67 -68 -100 -170 -20 -59 -34 -109 -30
-112 12 -13 68 -5 109 15 24 12 46 19 49 16 11 -11 -34 -45 -82 -62 -87 -32
-104 -52 -177 -199 -37 -76 -67 -142 -67 -147 0 -5 32 -9 70 -9 51 0 82 6 110
20 46 23 61 25 54 7 -7 -18 -65 -43 -157 -66 -42 -11 -89 -27 -106 -36 -17 -8
-79 -77 -140 -153 -60 -75 -118 -145 -129 -155 -39 -36 -31 2 14 63 50 69 162
239 243 372 53 86 53 88 42 132 -6 24 -27 72 -47 105 -20 33 -34 66 -32 72 2
7 13 -3 24 -22 26 -44 83 -109 96 -109 12 0 70 128 109 244 l32 94 -25 54
c-14 29 -28 60 -31 70 -11 32 6 26 34 -12 16 -22 33 -40 38 -40 8 0 42 110 57
188 11 54 13 36 7 -59z m1553 -97 l36 4 -28 -20 c-16 -11 -49 -40 -73 -63 -51
-51 -46 -68 19 -65 29 2 40 -1 40 -11 0 -10 -20 -16 -71 -21 -39 -3 -79 -12
-89 -19 -30 -21 -190 -211 -187 -222 2 -5 17 -10 33 -10 35 0 43 -18 11 -26
-48 -13 -187 -19 -187 -9 0 6 12 15 26 20 36 14 130 105 144 141 14 32 11 45
-33 172 -11 31 -17 60 -14 63 9 10 27 -6 27 -24 1 -25 63 -137 77 -137 17 0
184 165 194 193 5 13 9 40 10 60 l1 37 14 -34 c14 -30 18 -33 50 -29z m-1104
-343 c-8 -30 -5 -80 4 -89 7 -7 21 -7 40 -1 16 5 67 16 114 26 47 9 106 21
133 27 26 5 55 7 65 3 14 -5 11 -9 -16 -21 -26 -10 -33 -19 -30 -36 2 -18 -1
-22 -17 -21 -129 16 -139 16 -216 -15 -124 -50 -206 -108 -169 -120 6 -2 37
-21 69 -43 32 -21 66 -39 75 -39 9 0 16 -4 16 -10 0 -17 -43 -11 -98 15 -31
14 -72 25 -96 25 -38 0 -47 -5 -116 -76 -71 -71 -155 -133 -166 -121 -3 3 10
17 30 32 19 14 61 61 94 103 33 42 98 113 144 158 82 78 85 83 103 153 10 44
22 70 29 68 6 -3 9 -11 8 -18z m-1372 -533 c29 -61 47 -74 65 -50 8 10 17 31
20 46 9 39 25 45 25 9 0 -24 4 -31 19 -31 10 0 24 7 31 15 7 8 17 15 23 15 6
0 -14 -26 -44 -57 -59 -61 -159 -225 -159 -261 0 -26 59 -40 96 -23 14 6 33
11 42 11 14 -1 14 -3 -5 -19 -13 -11 -46 -21 -83 -24 -92 -10 -127 -32 -240
-150 -118 -123 -119 -132 -16 -146 103 -14 73 -24 -53 -17 l-124 6 -107 -49
c-144 -66 -329 -124 -294 -92 5 5 54 28 109 51 206 86 365 185 365 227 0 8 -8
28 -17 44 -22 37 -9 49 18 16 11 -15 30 -27 41 -27 31 0 91 53 180 159 121
143 136 192 98 313 -11 34 -20 66 -20 71 0 16 9 5 30 -37z m1245 -38 c-9 -26
-13 -106 -5 -118 8 -13 101 -10 259 8 59 7 66 11 103 52 33 37 38 41 33 20
-16 -59 -13 -65 33 -68 72 -5 46 -19 -49 -25 -50 -3 -93 -8 -96 -11 -12 -11
10 -44 49 -74 35 -27 38 -32 19 -32 -21 0 -82 29 -149 71 -36 23 -65 21 -250
-21 -114 -26 -122 -34 -75 -76 21 -18 56 -40 78 -49 59 -25 68 -30 72 -42 5
-15 -87 17 -186 66 -47 23 -93 41 -104 41 -10 0 -69 -21 -130 -46 -148 -60
-175 -84 -120 -105 16 -6 35 -16 43 -24 8 -7 37 -25 64 -39 48 -26 48 -26 17
-26 -17 0 -62 14 -99 31 -110 51 -128 52 -237 8 -161 -64 -295 -85 -295 -45 0
10 19 15 68 18 52 3 91 15 177 52 130 57 220 110 230 134 3 9 11 55 16 101 10
85 24 120 42 102 5 -5 5 -17 -2 -29 -12 -22 -14 -93 -5 -129 4 -13 14 -23 23
-23 9 0 67 20 128 44 62 25 148 54 190 66 106 29 114 38 138 153 3 15 10 27
15 27 5 0 7 -6 5 -12z m-1149 -776 c-20 -40 -20 -78 0 -86 9 -3 62 -6 118 -6
117 0 116 0 160 88 25 49 35 59 48 47 3 -3 -6 -26 -18 -52 -13 -25 -24 -52
-24 -59 0 -28 42 -36 164 -33 l121 4 0 -25 c0 -21 6 -26 35 -32 22 -4 14 -5
-20 -2 -30 3 -74 10 -97 17 -49 13 -297 -3 -315 -21 -14 -14 25 -62 75 -91 20
-12 37 -26 37 -31 0 -28 -67 7 -140 72 -31 28 -72 53 -95 59 -47 13 -284 3
-300 -12 -12 -12 19 -73 80 -154 25 -33 45 -63 45 -67 0 -22 -27 1 -102 88
-100 118 -120 128 -208 108 -36 -9 -69 -20 -74 -25 -6 -5 -21 -9 -34 -9 -20 0
-22 3 -13 14 6 8 26 19 44 26 18 7 46 19 63 26 50 22 192 52 278 60 76 7 79 8
105 44 14 21 34 53 44 71 24 44 46 25 23 -19z"/>
<path d="M1814 8662 l-51 -57 -71 0 c-96 0 -122 -23 -152 -142 -14 -56 -54
-88 -136 -106 -36 -9 -69 -18 -72 -22 -4 -4 -7 -40 -7 -80 l0 -73 45 -5 c25
-2 68 2 97 11 42 12 57 13 82 3 53 -23 58 -85 10 -152 -20 -29 -21 -36 -11
-76 17 -61 15 -77 -13 -133 -22 -43 -34 -110 -20 -110 2 0 24 19 47 43 24 23
80 62 126 85 96 50 106 66 96 151 -5 51 -4 60 19 87 14 17 44 36 66 44 45 14
53 38 26 74 -36 47 -11 99 81 166 63 47 77 84 68 176 -6 60 -6 62 30 101 56
63 42 84 -28 42 -50 -29 -91 -28 -124 4 -16 15 -35 27 -43 27 -7 0 -37 -26
-65 -58z m92 -106 c-3 -6 -11 -30 -17 -53 -7 -23 -22 -47 -34 -53 -12 -6 -46
-47 -75 -91 l-54 -81 24 -19 25 -19 -33 0 c-19 0 -47 -8 -63 -17 -40 -24 -45
-12 -15 34 45 68 51 97 27 143 -32 61 -24 70 18 21 l38 -43 39 42 c48 51 74
97 74 131 0 23 3 26 25 21 14 -2 24 -10 21 -16z"/>
<path d="M9955 8508 c-48 -19 -53 -19 -108 -4 -32 9 -62 14 -68 11 -12 -8 -12
-42 1 -50 26 -16 50 -86 50 -144 0 -56 2 -62 33 -86 17 -14 66 -40 107 -58 69
-30 76 -36 89 -73 13 -38 13 -45 -7 -92 -18 -42 -20 -55 -10 -76 13 -29 98
-76 137 -76 125 0 198 -90 163 -200 -19 -61 -13 -70 72 -109 94 -43 98 -51 81
-196 -7 -66 -6 -73 16 -97 13 -15 33 -28 44 -30 17 -3 20 2 17 30 -3 42 16 77
72 131 70 67 61 112 -29 141 -56 18 -79 35 -100 74 -22 40 -16 69 25 121 16
21 30 47 30 58 0 20 -57 80 -123 130 -63 47 -69 114 -17 187 25 35 25 63 0
119 -11 24 -20 55 -20 70 0 28 29 63 63 74 24 9 22 19 -14 55 -45 46 -70 50
-199 27 -29 -6 -50 1 -122 39 -48 25 -97 46 -110 45 -13 -1 -45 -10 -73 -21z
m69 -158 c43 -22 83 -37 88 -34 6 4 7 20 4 36 -9 47 17 19 43 -46 16 -39 35
-63 71 -90 54 -41 80 -42 80 -2 0 14 5 28 10 31 6 4 10 -8 10 -28 0 -19 7 -56
15 -83 26 -87 20 -86 -88 14 -102 95 -174 144 -198 137 -10 -4 -28 -1 -39 5
-17 9 -19 14 -10 25 9 11 2 20 -37 44 -67 43 -43 38 51 -9z"/>
<path d="M1959 4128 c-6 -7 -23 -38 -37 -68 -33 -68 -78 -100 -138 -100 -53 0
-77 -21 -67 -58 3 -15 7 -57 7 -93 1 -61 -2 -71 -36 -121 -44 -63 -46 -83 -17
-140 16 -32 19 -46 11 -59 -9 -14 -4 -24 27 -56 28 -28 45 -59 66 -123 20 -61
37 -94 60 -115 18 -16 51 -47 73 -68 22 -20 61 -73 87 -117 25 -43 60 -92 77
-108 36 -36 35 -68 -2 -64 -32 3 -91 61 -142 137 -22 33 -73 92 -112 130 -70
67 -74 73 -91 145 -10 41 -24 84 -32 95 -7 11 -46 34 -85 50 -87 37 -106 61
-131 168 -31 127 -80 174 -155 147 -71 -25 -123 5 -160 91 -24 56 -57 89 -90
89 -13 0 -42 -13 -65 -30 l-42 -30 -54 18 c-33 10 -73 34 -102 59 -62 56 -96
58 -145 7 -33 -36 -35 -37 -94 -31 -39 3 -76 14 -104 31 -102 60 -148 8 -91
-104 17 -33 25 -66 25 -100 0 -70 19 -100 93 -149 98 -63 109 -79 116 -162 6
-63 11 -75 37 -96 58 -49 111 -65 234 -72 97 -6 122 -11 154 -30 47 -29 93
-92 102 -137 5 -26 11 -33 23 -30 9 2 26 7 38 11 12 3 47 -3 80 -15 42 -16 80
-21 137 -20 l80 1 48 -48 c26 -26 48 -53 48 -60 0 -24 -22 -25 -47 -2 -23 22
-32 24 -120 22 -81 -3 -103 0 -139 18 -34 18 -52 20 -91 15 -145 -20 -137 -21
-201 18 -89 54 -128 68 -141 53 -7 -10 -2 -25 19 -58 33 -48 37 -87 18 -150
-18 -62 -3 -80 111 -139 104 -53 151 -95 151 -133 0 -12 -7 -40 -14 -62 -25
-71 4 -92 165 -120 107 -18 167 -48 198 -98 37 -61 64 -77 137 -88 92 -13 168
-35 184 -54 12 -14 17 -11 43 21 57 69 140 82 254 39 93 -35 130 -31 163 19
63 92 129 87 284 -22 33 -23 66 -42 73 -42 8 0 28 16 46 35 65 71 129 67 202
-13 122 -135 136 -145 254 -196 81 -36 128 -63 165 -97 61 -55 96 -113 79
-130 -7 -7 -29 6 -78 49 -55 50 -83 66 -158 92 -143 50 -218 102 -288 197 -22
30 -47 57 -55 60 -8 3 -33 -12 -60 -37 -43 -39 -49 -42 -86 -36 -50 8 -88 27
-161 82 -79 59 -98 57 -162 -11 -49 -53 -52 -55 -103 -55 -41 0 -71 9 -128 36
-90 45 -144 44 -182 -3 -115 -142 -125 -148 -237 -139 -44 3 -91 9 -105 12
-14 3 -33 -1 -45 -9 -35 -26 -8 -55 96 -106 99 -49 110 -60 130 -139 8 -36 16
-46 47 -59 32 -13 50 -14 128 -4 124 16 160 0 180 -84 15 -67 57 -79 177 -50
67 16 93 10 173 -35 45 -26 62 -31 92 -26 81 15 203 18 231 6 25 -10 33 -8 66
14 44 30 103 34 179 11 81 -25 120 -20 158 19 18 18 43 38 56 45 28 15 99 16
135 2 39 -15 87 -14 87 2 0 7 -11 28 -25 47 -23 31 -24 38 -18 120 6 86 6 86
-23 109 -16 12 -58 40 -94 61 -36 21 -74 50 -85 65 -26 34 -26 106 -1 163 l19
42 -27 59 c-14 32 -26 72 -26 88 0 38 34 83 63 83 19 0 19 2 -10 33 -18 19
-37 55 -47 89 -20 72 -47 102 -116 136 -83 41 -95 64 -95 185 l0 102 -53 1
c-78 3 -122 53 -137 159 -12 79 -28 110 -66 124 -69 25 -85 38 -112 89 -38 70
-74 70 -91 0 -3 -15 -24 -44 -46 -64 -45 -42 -46 -48 -24 -113 15 -42 15 -49
1 -83 -11 -25 -28 -43 -56 -58 -52 -26 -54 -56 -7 -125 44 -63 52 -94 31 -120
-15 -20 -15 -20 -30 -1 -8 11 -15 26 -15 34 0 7 -20 42 -45 76 -64 90 -63 123
6 189 l51 49 -12 49 c-7 28 -10 63 -7 78 5 22 -3 40 -39 87 -62 83 -84 132
-98 222 -12 73 -16 82 -54 117 -48 43 -67 96 -57 161 9 62 -2 88 -50 123 -46
33 -65 73 -65 137 0 45 -27 67 -51 42z m7 -375 c2 -13 11 -23 18 -23 12 0 12
-7 4 -37 -19 -68 12 -253 42 -253 5 0 20 14 34 31 31 37 32 34 6 -31 -23 -60
-25 -95 -6 -132 8 -14 19 -42 25 -61 7 -19 21 -43 31 -52 19 -18 21 -17 43 3
33 32 38 27 22 -19 -22 -62 -19 -78 30 -158 45 -73 52 -91 37 -91 -12 0 -103
115 -155 197 -24 38 -57 77 -72 87 -20 13 -24 21 -16 29 17 17 13 67 -9 112
-11 22 -19 45 -20 52 0 7 -26 30 -58 52 -32 21 -64 47 -72 57 -17 20 -21 21
58 -11 24 -10 45 -15 48 -12 3 3 -2 65 -11 139 -10 83 -13 152 -9 183 l8 50 9
-45 c5 -25 11 -55 13 -67z m-1320 -33 c64 -27 123 -50 132 -50 12 0 14 9 9 46
l-5 46 19 -31 c10 -16 27 -48 39 -71 18 -35 33 -47 102 -81 45 -21 92 -39 105
-39 22 0 23 4 24 68 0 72 7 66 28 -23 18 -74 32 -89 128 -139 124 -65 123 -65
123 47 1 78 3 89 14 75 7 -10 16 -54 19 -98 4 -44 12 -91 19 -104 10 -18 92
-89 196 -169 16 -13 34 10 27 33 -4 10 -1 9 9 -3 7 -9 16 -35 20 -57 4 -27 20
-55 51 -90 41 -46 54 -70 39 -70 -3 0 -47 38 -97 85 -101 94 -133 108 -186 80
-18 -9 -47 -15 -64 -13 -32 3 -31 4 21 27 34 15 52 29 52 41 0 30 -308 220
-357 220 -12 0 -47 -9 -78 -21 -30 -11 -65 -19 -77 -17 -19 2 -13 9 35 36 31
18 57 37 57 42 0 6 -46 33 -102 59 -57 27 -146 69 -198 93 -118 56 -249 128
-233 128 7 0 65 -22 129 -50z m1975 -583 c29 -71 35 -78 58 -75 24 3 25 1 22
-40 -2 -34 5 -57 40 -120 52 -97 91 -152 105 -152 6 0 19 10 27 23 15 21 15
19 15 -38 -1 -56 2 -66 51 -145 59 -94 108 -160 121 -160 4 0 14 15 21 33 13
31 13 29 18 -53 5 -72 11 -94 39 -143 18 -32 31 -66 29 -75 -2 -13 -9 -8 -23
17 -83 145 -416 635 -447 658 -17 13 -45 23 -64 23 -18 0 -33 5 -33 10 0 6 16
10 35 10 44 0 51 16 30 66 -27 63 -85 224 -85 236 0 19 6 7 41 -75z m-746
-223 c22 -12 68 -48 103 -78 35 -31 69 -56 77 -56 7 0 26 11 42 24 42 35 68
46 107 46 56 0 86 -17 162 -91 46 -43 80 -69 94 -69 13 0 40 16 61 35 43 39
65 43 114 19 37 -17 70 -63 104 -144 36 -87 46 -98 106 -115 79 -23 107 -53
167 -172 53 -106 75 -135 139 -184 26 -21 31 -30 23 -39 -19 -20 -93 20 -150
81 -28 31 -66 87 -87 131 -35 73 -40 78 -80 89 -107 29 -136 52 -167 138 -39
104 -50 121 -77 121 -14 0 -40 -9 -57 -19 -79 -49 -151 -33 -213 47 -66 87
-110 101 -170 55 -72 -55 -190 -25 -264 68 -31 39 -80 69 -114 69 -8 0 -32
-16 -53 -35 -58 -52 -84 -58 -153 -39 -56 16 -60 16 -79 -1 -11 -10 -20 -22
-20 -26 0 -5 25 -33 55 -62 l55 -53 0 -66 c0 -43 5 -69 13 -77 8 -6 47 -18 88
-27 126 -28 152 -50 163 -139 3 -27 15 -62 26 -77 l21 -28 -25 0 c-29 0 -76
52 -76 84 0 12 -14 35 -30 51 -27 26 -40 30 -100 33 -48 3 -70 1 -70 -7 0 -12
72 -61 120 -81 33 -13 40 -30 14 -30 -32 0 -180 90 -237 145 -55 51 -62 55
-108 55 -27 0 -49 3 -49 6 0 3 10 14 23 24 l22 19 -70 71 c-109 111 -164 150
-211 150 -39 0 -40 1 -40 35 0 19 3 35 7 35 9 0 128 -80 182 -122 l37 -30 0
26 c0 43 19 29 46 -33 20 -46 42 -74 101 -126 41 -36 76 -65 77 -63 1 2 0 38
-3 80 -5 68 -9 80 -31 95 -73 50 -102 108 -75 150 27 41 78 56 163 48 l74 -7
34 41 c55 64 110 71 189 25z m51 -276 c16 -18 50 -35 92 -47 75 -22 236 -46
250 -37 5 3 7 20 5 38 l-4 33 18 -25 c45 -62 68 -81 111 -94 26 -8 78 -26 117
-40 86 -32 105 -33 105 -4 0 17 5 14 30 -20 16 -23 71 -76 122 -118 95 -79
134 -119 103 -108 -8 3 -15 9 -15 13 0 13 -154 109 -225 141 -114 52 -261 100
-304 100 -24 0 -60 -11 -95 -29 -31 -17 -56 -27 -56 -24 0 3 14 21 30 40 17
19 28 38 25 42 -15 26 -280 75 -352 66 -60 -7 -83 0 -57 19 15 11 13 15 -20
34 -21 12 -41 22 -47 22 -5 0 -9 5 -9 11 0 7 10 9 28 5 94 -21 92 -22 92 15 1
32 1 33 16 14 8 -11 26 -32 40 -47z m716 -707 c20 -15 177 -51 221 -51 27 0
29 2 22 27 -6 25 -3 24 44 -20 28 -26 64 -50 81 -54 17 -3 33 -10 36 -14 3 -5
13 -9 22 -9 9 0 40 -12 67 -25 28 -14 56 -25 63 -25 6 0 12 -4 12 -9 0 -5 9
-13 21 -16 15 -5 18 -10 10 -18 -7 -7 -16 -6 -29 6 -10 9 -28 17 -40 17 -11 0
-24 5 -27 10 -3 6 -17 10 -31 10 -14 0 -41 7 -62 16 -20 8 -69 24 -109 35 -91
24 -107 18 -164 -67 -55 -80 -72 -68 -23 16 49 81 44 90 -72 112 -159 30 -184
23 -250 -74 -53 -78 -69 -75 -29 5 45 89 42 91 -136 83 -122 -5 -159 -10 -195
-28 -25 -11 -46 -19 -49 -17 -2 2 -6 16 -10 30 -7 27 -6 27 67 34 40 4 76 9
81 12 4 2 -4 18 -18 35 -35 41 -31 55 8 26 92 -68 97 -70 256 -63 80 4 151 8
158 10 9 3 9 12 -2 39 -22 52 -19 54 23 15 20 -19 45 -41 54 -48z"/>
<path d="M6874 2824 c-74 -27 -143 -117 -144 -189 0 -115 97 -215 210 -215 43
0 98 20 129 45 16 14 32 25 36 25 14 0 -3 -107 -25 -157 -26 -61 -71 -107
-136 -139 -60 -29 -38 -31 41 -4 149 51 237 144 266 282 23 104 -27 254 -104
312 -71 54 -185 71 -273 40z m121 -28 c71 -71 117 -261 74 -312 -6 -8 -28 -14
-49 -14 -30 0 -44 6 -63 30 -59 70 -99 266 -63 303 25 25 73 21 101 -7z"/>
<path d="M5080 2813 c-19 -9 -81 -19 -138 -23 -128 -9 -148 -23 -57 -40 37 -7
69 -18 72 -25 2 -8 -12 -100 -33 -207 -35 -182 -39 -195 -70 -225 -23 -24 -41
-33 -65 -33 -60 0 -20 -13 139 -46 86 -17 171 -35 187 -38 27 -6 28 -5 11 6
-53 36 -74 61 -80 90 -3 21 14 129 48 296 59 287 59 278 -14 245z"/>
<path d="M5538 2740 c-148 -44 -172 -198 -40 -261 l46 -23 -46 -12 c-100 -25
-148 -77 -148 -159 0 -103 116 -175 279 -175 240 0 332 222 129 310 l-52 22
36 12 c84 29 130 95 114 162 -12 45 -75 100 -136 118 -57 17 -137 20 -182 6z
m185 -41 c29 -35 16 -172 -20 -211 -26 -29 -103 -24 -133 7 -20 22 -22 31 -18
87 7 76 23 115 57 134 34 19 91 10 114 -17z m-30 -300 c33 -40 16 -219 -24
-255 -42 -38 -138 -14 -161 39 -27 64 -8 185 35 225 40 37 116 32 150 -9z"/>
<path d="M6153 2715 c-50 -23 -93 -70 -93 -102 0 -26 26 -12 35 19 21 69 121
97 182 52 51 -38 68 -80 68 -169 0 -117 -21 -154 -167 -297 -65 -64 -115 -118
-111 -121 4 -3 69 1 143 9 74 7 188 16 253 20 l117 7 0 93 c0 51 3 99 6 108 3
9 2 16 -3 16 -6 0 -15 -18 -22 -40 -6 -22 -20 -44 -30 -49 -20 -11 -281 -45
-281 -36 0 1 31 26 70 54 120 90 180 181 180 276 0 121 -77 185 -222 185 -56
0 -85 -6 -125 -25z"/>
<path d="M3277 2318 c-2 -7 6 -34 19 -60 29 -58 30 -97 4 -148 -39 -76 -21
-106 99 -170 106 -57 134 -108 118 -210 -8 -46 -7 -63 3 -76 21 -25 84 -53
156 -70 129 -29 160 -62 150 -153 -14 -115 -14 -114 25 -133 22 -11 79 -21
153 -28 98 -7 129 -14 182 -39 41 -19 64 -36 64 -47 0 -13 -7 -15 -37 -10 -21
4 -108 10 -194 14 -148 7 -158 8 -198 35 -51 34 -71 76 -71 151 0 86 -11 101
-104 137 -44 17 -96 33 -114 36 -33 6 -34 5 -22 -17 18 -35 1 -42 -63 -25 -95
25 -116 21 -172 -31 -28 -25 -60 -50 -73 -55 -43 -17 -103 -9 -174 22 -62 27
-73 29 -99 18 -37 -15 -45 -29 -54 -103 -5 -46 -13 -66 -35 -88 -30 -30 -42
-32 -162 -28 -55 1 -70 -2 -87 -19 -12 -12 -21 -27 -21 -35 0 -25 47 -53 99
-60 47 -6 112 -41 138 -75 7 -9 17 -32 23 -52 5 -19 21 -46 35 -59 28 -26 53
-28 162 -15 33 4 73 5 87 1 14 -3 56 -33 92 -66 58 -53 71 -60 108 -60 26 0
65 12 106 31 93 45 138 44 237 -8 62 -32 154 -63 188 -63 3 0 5 15 5 33 0 18
7 43 16 55 21 30 84 61 140 69 62 8 107 48 124 108 8 28 25 56 45 74 60 52
111 60 323 51 98 -5 105 -4 121 17 10 12 21 41 25 63 9 56 30 94 63 118 68 48
129 40 245 -29 46 -28 99 -53 118 -56 31 -4 40 0 78 41 24 25 54 49 67 52 67
17 219 -49 342 -149 43 -34 95 -73 116 -86 54 -33 73 -81 33 -81 -18 0 -190
122 -247 175 -59 55 -98 75 -148 75 -33 0 -48 -8 -93 -48 -107 -98 -134 -98
-288 5 -49 32 -80 45 -118 50 -72 8 -92 -10 -92 -85 0 -44 -5 -60 -26 -86 -45
-53 -55 -55 -250 -56 -216 0 -221 -2 -230 -90 -11 -96 -39 -120 -162 -138 -87
-13 -112 -30 -113 -81 -3 -83 -8 -91 -100 -140 -98 -52 -119 -68 -119 -87 0
-30 38 -36 103 -16 138 43 202 36 246 -27 39 -54 78 -39 182 67 80 83 102 86
206 33 44 -23 86 -41 94 -41 22 0 128 66 169 105 66 62 173 101 233 84 18 -5
54 -22 80 -39 80 -51 108 -41 186 63 70 94 117 127 181 127 20 0 49 17 97 56
83 69 125 89 154 74 25 -14 17 -27 -21 -35 -36 -8 -64 -43 -49 -61 6 -7 46
-13 104 -16 103 -3 130 -15 103 -45 -9 -10 -23 -35 -31 -55 -20 -48 -44 -59
-144 -69 -118 -12 -139 -25 -146 -91 -8 -63 -30 -95 -83 -123 -49 -26 -55 -54
-19 -102 34 -44 35 -74 1 -117 -35 -47 -33 -61 15 -91 22 -15 49 -42 61 -61
11 -18 28 -34 38 -34 10 0 34 20 54 44 30 37 45 46 88 55 68 15 78 25 78 78 0
85 33 126 109 135 47 6 48 30 7 117 -45 97 -43 133 10 208 26 36 33 55 29 75
-4 14 -2 29 4 32 13 9 192 -43 345 -100 140 -52 338 -144 480 -221 257 -141
312 -185 400 -321 38 -58 105 -132 121 -132 3 0 0 11 -6 24 -17 37 -2 92 35
130 45 45 104 58 215 50 87 -7 191 11 206 36 13 21 -53 38 -165 42 -124 5
-148 13 -224 67 -83 59 -503 264 -621 303 -60 20 -140 40 -177 43 -41 4 -68
11 -69 18 -6 56 16 82 105 122 77 36 85 37 158 32 93 -6 133 -24 243 -107 153
-116 185 -122 293 -52 118 76 138 72 359 -68 38 -23 64 -33 94 -33 37 0 46 6
98 62 55 59 58 61 106 61 28 0 61 -6 75 -14 125 -66 92 -65 239 -11 40 14 48
14 98 0 29 -9 58 -13 63 -10 13 8 1 36 -31 70 -36 39 -59 94 -59 144 0 64 -19
75 -112 67 -48 -4 -95 -2 -120 5 -52 13 -98 61 -98 99 0 46 -18 80 -47 91 -24
9 -41 5 -105 -21 -169 -70 -321 -41 -379 71 -38 76 -95 73 -192 -10 -76 -63
-130 -90 -325 -157 -151 -51 -165 -54 -181 -40 -16 15 -22 15 -65 -4 -25 -12
-74 -26 -107 -32 -82 -14 -99 -32 -99 -106 0 -52 -4 -63 -35 -99 -69 -81 -172
-77 -353 14 -119 60 -160 69 -239 49 -49 -12 -45 20 4 41 50 21 106 13 219
-31 155 -60 266 -65 307 -15 11 14 17 38 17 70 0 106 49 150 187 170 111 16
134 46 98 132 -18 43 -19 90 -4 118 6 11 40 40 77 64 37 23 78 55 92 69 l24
27 -17 48 c-24 68 -22 77 23 133 22 28 40 57 40 64 0 21 -49 17 -106 -10 -84
-39 -107 -41 -170 -12 -52 24 -59 25 -79 12 -13 -8 -36 -36 -51 -61 -55 -88
-89 -128 -126 -148 -38 -19 -38 -19 -103 4 l-65 24 -26 -26 c-21 -21 -28 -43
-38 -111 -7 -47 -16 -89 -19 -95 -11 -18 -73 -43 -105 -43 -16 0 -40 -9 -53
-19 -22 -18 -24 -27 -26 -126 -1 -78 -6 -113 -17 -131 -34 -50 -41 -31 -44
116 l-3 140 40 43 41 44 -50 97 c-28 54 -50 111 -50 127 0 40 -37 63 -87 55
-111 -19 -113 -19 -140 5 -14 13 -34 42 -45 64 -35 68 -44 75 -112 75 -49 0
-69 5 -99 25 -20 14 -42 23 -47 20 -6 -3 -10 -25 -10 -48 -1 -23 -7 -60 -15
-82 -20 -55 -19 -68 10 -126 22 -43 24 -55 15 -87 -15 -55 -14 -58 34 -86 44
-26 91 -74 81 -84 -3 -3 -13 2 -23 11 -10 9 -44 23 -76 31 -65 17 -104 39
-113 63 -3 8 1 38 10 66 15 46 15 54 1 74 -11 18 -23 23 -48 21 -47 -3 -87 30
-166 137 -102 137 -146 164 -223 134 -80 -31 -100 -25 -227 74 -70 54 -100 58
-177 28 -47 -18 -50 -18 -118 1 -102 27 -145 33 -145 20 0 -7 18 -21 39 -32
57 -28 78 -61 86 -131 7 -55 10 -63 38 -78 50 -26 97 -76 97 -103 0 -39 21
-57 88 -72 117 -27 136 -56 107 -162 -21 -78 -15 -88 61 -104 60 -13 72 -23
53 -46 -29 -35 -174 11 -197 61 -15 33 -15 82 -1 124 15 43 2 56 -69 70 -70
14 -81 23 -116 86 -20 37 -43 60 -89 90 -61 40 -62 41 -65 90 -4 85 -8 92 -73
126 -64 34 -82 56 -77 92 2 16 -9 31 -42 57 -41 31 -53 35 -127 40 l-83 6 -74
72 c-40 40 -77 72 -81 72 -3 0 -26 -12 -51 -26 -55 -32 -85 -27 -156 27 -57
43 -64 45 -71 27z m460 -498 c6 0 14 14 18 30 9 43 25 27 25 -26 0 -25 6 -58
14 -73 19 -36 185 -193 200 -188 7 2 11 31 11 75 0 78 10 95 20 35 14 -88 36
-168 53 -186 15 -18 111 -83 281 -189 32 -21 65 -38 73 -38 10 0 10 -2 -1 -9
-19 -12 -93 17 -193 74 -66 38 -86 45 -133 45 -59 0 -64 4 -39 31 15 16 11 22
-53 82 -172 162 -193 177 -237 177 -54 0 -81 16 -43 25 16 4 27 14 27 24 0 18
-69 107 -166 215 l-60 68 -80 8 c-43 4 -65 8 -47 9 17 0 38 4 47 7 20 8 21 38
1 54 -9 7 -25 27 -37 44 -11 17 53 -42 143 -131 90 -90 169 -163 176 -163z
m699 47 c74 -26 94 -29 94 -12 0 25 17 17 45 -19 28 -37 288 -200 308 -193 7
2 10 21 9 48 -3 55 9 40 38 -47 17 -49 33 -73 79 -117 31 -30 83 -71 113 -91
64 -40 74 -52 54 -59 -8 -3 -24 5 -36 18 -12 13 -34 26 -48 30 -14 3 -52 26
-85 50 -65 49 -79 50 -169 13 -73 -31 -80 -15 -10 23 34 19 62 38 62 43 0 15
-67 72 -147 125 -77 51 -79 52 -138 46 -53 -5 -58 -4 -42 8 35 28 20 45 -85
96 -101 49 -118 64 -42 38z m986 -157 c10 0 18 6 18 13 0 6 14 -15 30 -48 19
-39 54 -85 100 -130 l71 -70 29 34 28 33 -9 -42 c-12 -53 0 -99 56 -210 45
-90 64 -150 47 -150 -6 0 -29 38 -51 84 -42 87 -82 126 -130 126 -29 0 -27 18
4 26 33 8 32 25 -10 89 -43 68 -81 89 -144 80 l-46 -7 29 31 29 30 -57 62
c-58 65 -72 92 -34 65 12 -9 30 -16 40 -16z m1148 -95 c-19 -23 -5 -30 62 -32
101 -3 92 -13 -32 -33 -41 -7 -90 -20 -108 -28 -35 -15 -109 -98 -152 -167
-22 -36 -22 -39 -6 -51 14 -10 87 -23 158 -28 4 -1 13 -7 20 -15 11 -11 0 -12
-72 -5 -158 15 -148 19 -236 -75 -44 -46 -81 -88 -83 -93 -2 -6 20 -32 49 -59
62 -58 55 -62 -20 -14 -59 38 -107 45 -150 20 -29 -17 -76 -19 -85 -5 -3 6 13
19 37 29 24 10 49 26 57 34 13 16 12 62 -4 117 l-7 25 26 -28 c14 -15 26 -34
26 -41 0 -8 7 -19 15 -26 12 -10 25 -2 74 45 33 32 70 77 82 102 18 38 19 48
9 74 -16 38 -8 47 14 14 9 -14 22 -25 29 -25 6 0 44 39 82 85 39 47 101 110
138 140 66 53 104 72 77 40z m-3087 -335 c16 -28 38 -57 50 -65 25 -16 164
-41 174 -32 3 4 -2 34 -11 68 -10 33 -15 63 -12 66 2 3 18 -21 35 -53 35 -69
72 -111 105 -120 29 -7 237 1 283 11 26 6 34 4 39 -10 7 -17 -13 -38 -27 -29
-4 2 -26 -3 -49 -11 -23 -8 -54 -15 -68 -15 -15 0 -46 -18 -79 -46 -57 -49
-77 -54 -43 -11 37 47 28 59 -55 72 -22 3 -70 13 -107 21 -82 19 -84 18 -200
-93 -47 -45 -93 -83 -102 -83 -25 0 -19 18 12 34 35 18 117 106 127 135 4 13
3 27 -2 32 -15 15 -195 40 -238 33 -59 -10 -115 -33 -157 -65 -46 -36 -86 -55
-96 -44 -4 4 1 12 12 19 39 23 76 58 70 67 -3 5 -72 9 -155 9 -93 0 -149 4
-149 10 0 6 46 10 118 11 132 1 185 14 190 47 4 27 2 26 49 3 44 -22 208 -36
247 -21 25 9 25 10 11 51 -28 77 -13 82 28 9z m3807 -27 c0 -5 -14 -35 -30
-67 -17 -33 -27 -63 -22 -68 4 -4 48 -13 98 -18 49 -6 119 -15 156 -20 134
-20 159 -15 234 47 60 48 76 40 21 -11 -26 -24 -47 -48 -47 -54 0 -17 24 -26
168 -66 126 -35 135 -36 164 -22 17 9 37 16 45 16 21 0 15 -17 -9 -24 -20 -5
-21 -7 -8 -20 8 -8 47 -25 85 -39 44 -16 61 -26 45 -26 -22 -1 -160 29 -212
45 -28 9 -22 -21 12 -54 28 -28 39 -52 23 -52 -3 0 -41 32 -84 70 l-77 70
-119 30 c-144 36 -193 39 -193 10 0 -30 23 -80 64 -142 20 -29 31 -55 25 -57
-18 -6 -47 29 -108 134 -49 84 -66 104 -88 109 -129 27 -310 33 -378 12 -40
-12 -40 -12 -38 -59 3 -49 30 -114 57 -136 17 -14 22 -41 8 -41 -14 0 -37 31
-82 110 -54 98 -66 110 -106 110 -42 0 -155 -16 -257 -37 -57 -12 -81 -13 -89
-5 -8 8 -5 12 13 16 13 3 92 21 174 40 86 20 208 40 285 47 74 6 143 16 153
21 9 5 29 28 43 51 15 23 33 52 40 65 14 21 34 30 34 15z m-2307 -130 c17 -16
39 -18 206 -15 149 3 189 7 203 19 15 14 20 13 44 -6 14 -11 42 -23 63 -27 84
-15 60 -23 -70 -24 -117 0 -138 -2 -151 -17 -25 -29 -54 -93 -77 -170 -20 -66
-35 -92 -47 -80 -2 2 1 17 7 33 19 48 49 167 49 197 0 16 -7 30 -16 34 -20 8
-214 -24 -285 -47 -112 -36 -133 -57 -209 -208 -18 -35 -34 -61 -37 -58 -3 3
9 39 26 80 48 115 41 135 -37 99 -198 -89 -243 -116 -297 -176 -45 -51 -55
-58 -55 -39 0 12 -2 22 -4 22 -19 0 -94 -35 -118 -55 -16 -14 -39 -25 -51 -24
-21 0 -21 1 -3 12 10 7 33 24 52 38 18 14 93 56 167 92 150 75 196 109 177
132 -7 8 -19 15 -26 15 -8 0 -14 5 -14 10 0 13 34 13 81 -1 35 -11 44 -9 106
21 37 17 111 46 163 64 119 40 123 42 116 72 -8 29 9 32 37 7z m732 -474 c-9
-24 -16 -61 -17 -81 0 -35 -2 -37 -28 -32 -21 5 -32 0 -49 -21 -32 -42 -46
-97 -33 -134 6 -18 7 -29 3 -26 -18 10 -40 -8 -52 -42 -20 -60 -19 -30 1 56
25 101 25 98 -2 107 -20 6 -20 7 9 19 52 22 102 112 72 130 -6 4 12 17 39 30
27 13 53 28 57 35 15 24 15 1 0 -41z"/>
<path d="M8045 2195 c-16 -9 -60 -47 -96 -85 -55 -59 -71 -70 -98 -70 -44 0
-67 14 -96 60 -46 73 -88 52 -191 -96 -36 -51 -75 -101 -87 -109 -32 -22 -81
-18 -139 11 -60 31 -84 27 -132 -21 -59 -59 -85 -115 -117 -256 -17 -76 -40
-151 -54 -175 -51 -87 -141 -143 -248 -153 l-69 -6 -2 -60 c-1 -33 -6 -69 -10
-79 -11 -24 -15 -25 168 49 96 39 171 78 240 125 107 71 148 90 202 90 48 0
77 -14 115 -56 72 -79 78 -84 106 -84 24 1 25 2 11 11 -27 15 -22 26 25 54 33
19 49 38 67 77 32 70 65 115 98 132 15 8 63 19 106 25 123 17 142 36 131 130
-6 53 -5 59 22 88 22 23 43 33 94 42 109 21 136 44 155 136 9 41 17 48 145
118 l34 19 -24 19 c-18 15 -39 19 -96 19 -74 0 -131 16 -155 44 -16 20 -66 20
-105 1z m85 -143 c0 -4 -22 -15 -50 -25 -27 -10 -50 -22 -50 -27 0 -18 33 -40
60 -40 16 0 32 -5 35 -10 12 -20 -30 -23 -94 -7 -81 21 -88 21 -148 1 -113
-38 -253 -116 -253 -142 0 -5 33 -24 73 -43 85 -40 68 -51 -29 -19 -43 15 -78
20 -102 17 -42 -7 -118 -56 -187 -121 -46 -43 -49 -48 -31 -59 10 -7 34 -24
53 -39 20 -16 48 -28 62 -28 15 0 36 -7 47 -15 18 -14 18 -14 -7 -15 -14 0
-58 11 -97 25 -115 40 -128 37 -224 -51 -94 -85 -163 -134 -190 -134 -27 0
-22 14 15 35 17 10 58 38 89 62 64 49 103 117 113 198 11 92 19 106 25 45 3
-33 10 -55 17 -55 6 0 44 27 83 60 40 33 118 92 173 130 89 61 113 85 131 130
2 6 10 2 18 -9 14 -17 17 -17 89 13 91 38 349 130 367 130 6 1 12 -2 12 -7z"/>
<path d="M6983 1738 c-26 -39 -42 -48 -104 -62 -25 -5 -27 -9 -25 -58 1 -64
-39 -141 -86 -167 -66 -35 -81 -54 -73 -90 l7 -34 62 5 c108 9 204 76 253 176
23 47 28 70 27 127 -1 74 -11 132 -24 140 -5 3 -21 -14 -37 -37z"/>
<path d="M6545 894 c-45 -17 -80 -47 -71 -62 3 -5 23 -13 43 -16 95 -17 248
-73 359 -132 138 -72 169 -78 227 -39 43 30 47 38 13 29 -39 -9 -124 35 -200
104 -125 113 -264 157 -371 116z"/>
<path d="M5475 830 c-27 -10 -60 -19 -72 -19 -41 -2 -68 -22 -106 -81 -72
-111 -156 -168 -228 -153 -16 3 -49 23 -74 45 -25 22 -47 39 -49 37 -1 -2 -14
-25 -29 -50 -31 -54 -197 -215 -241 -234 -17 -7 -64 -23 -103 -35 -71 -22 -73
-23 -73 -54 0 -19 12 -51 29 -77 44 -66 194 -209 220 -209 57 0 83 143 39 221
-12 21 -19 41 -16 45 10 10 46 -6 80 -34 26 -22 33 -24 40 -12 71 122 92 150
135 185 92 74 242 175 307 207 50 25 65 37 70 58 7 37 53 90 93 106 18 8 67
14 111 14 61 0 83 4 93 16 11 14 10 18 -6 30 -28 21 -158 17 -220 -6z"/>
<path d="M6020 756 c0 -29 63 -87 132 -122 74 -37 98 -70 98 -133 0 -16 4 -41
10 -55 8 -23 15 -26 58 -26 60 0 85 -17 123 -86 l31 -54 52 0 c42 0 62 -7 106
-35 73 -46 79 -45 72 10 -4 44 -3 47 47 97 28 28 51 52 51 54 0 5 -195 109
-229 121 l-34 13 6 -33 c3 -17 8 -41 12 -52 4 -11 -8 -2 -26 20 -74 89 -135
144 -166 150 -31 6 -32 5 -35 -32 l-3 -38 -34 64 c-19 35 -44 67 -55 71 -12 4
-57 21 -101 38 -44 17 -88 34 -97 38 -13 4 -18 1 -18 -10z"/>
<path d="M7520 229 c-15 -7 -64 -8 -128 -4 l-102 7 -35 -35 c-37 -37 -45 -71
-20 -81 21 -8 61 9 122 51 44 30 58 35 90 30 30 -5 47 -1 78 18 41 26 39 31
-5 14z"/>
</g>
</svg>
